<?xml version="1.0" encoding="utf-8"?>
<!-- Generator: Adobe Illustrator 24.1.2, SVG Export Plug-In . SVG Version: 6.00 Build 0)  -->
<svg version="1.1" xmlns="http://www.w3.org/2000/svg" xmlns:xlink="http://www.w3.org/1999/xlink" x="0px" y="0px"
	 viewBox="0 0 50 50" style="enable-background:new 0 0 50 50;" xml:space="preserve">
<style type="text/css">
	.st0{opacity:0.07;}
	.st1{fill:#FFFFFF;}
	.st2{fill:#0F4B93;}
	.st3{fill:#0D3F85;}
	.st4{fill:#212529;}
	.st5{fill:#CACACA;}
	.st6{fill:#76787A;}
	.st7{clip-path:url(#SVGID_2_);}
	.st8{opacity:0.18;fill:#76787A;}
	.st9{fill:#E9E9EC;}
	.st10{fill:none;stroke:#FFFFFF;stroke-width:1.5;stroke-miterlimit:10;}
	.st11{fill:none;stroke:#3C3C3B;stroke-width:2;stroke-miterlimit:10;}
	.st12{fill:#00973A;}
	.st13{fill:#FADB00;}
	.st14{fill:#002776;}
	.st15{clip-path:url(#SVGID_4_);}
	.st16{fill:none;stroke:#FFFFFF;stroke-width:0.75;stroke-linecap:round;stroke-linejoin:round;stroke-miterlimit:10;}
	.st17{opacity:0.5;}
	.st18{fill:none;stroke:#0F4B93;stroke-width:3;stroke-linecap:round;stroke-linejoin:round;stroke-miterlimit:10;}
	.st19{clip-path:url(#SVGID_22_);}
	.st20{clip-path:url(#SVGID_24_);}
	.st21{fill:none;stroke:#76787A;stroke-width:0.5;stroke-miterlimit:10;}
	.st22{clip-path:url(#SVGID_26_);}
	.st23{clip-path:url(#SVGID_28_);}
	.st24{clip-path:url(#SVGID_30_);}
	.st25{clip-path:url(#SVGID_32_);}
	.st26{fill:url(#SVGID_35_);}
	.st27{fill:url(#SVGID_36_);}
	.st28{opacity:0.05;}
	.st29{opacity:0.7;}
	.st30{fill:none;stroke:#212529;stroke-width:1.5;stroke-miterlimit:10;}
	.st31{fill:#FFFFFF;stroke:#0D3F85;stroke-width:1.5;stroke-miterlimit:10;}
	.st32{fill:url(#SVGID_37_);}
	.st33{fill:none;stroke:#FFFFFF;stroke-width:0.75;stroke-miterlimit:10;}
</style>
<g id="encontre_seu_imóvel">
</g>
<g id="imóveis_em_destaque">
	<g>
		<g>
			<path class="st2" d="M34.89,32.17c1.78,0,3.57,0,5.35,0c0.46,0,0.65,0.19,0.65,0.65c0,0.47,0,0.94,0,1.41
				c0,0.29-0.11,0.46-0.34,0.54c-0.36,0.13-0.71-0.1-0.72-0.48c-0.01-0.29-0.01-0.58,0-0.87c0.01-0.15-0.03-0.2-0.19-0.2
				c-3.41,0-6.82,0-10.23,0c-0.14,0-0.17,0.04-0.18,0.17c-0.06,0.83-0.5,1.41-1.25,1.74c-0.74,0.33-1.47,0.28-2.13-0.23
				c-0.1-0.07-0.19-0.1-0.3-0.1c-2.18,0-4.36,0.05-6.54-0.01c-3.57-0.09-6.38-1.67-8.31-4.67c-3.09-4.78-1.76-11.78,4.48-14.55
				c3.31-1.47,6.56-1.2,9.61,0.82c0.11,0.07,0.16,0.06,0.25-0.02c0.18-0.16,0.38-0.32,0.57-0.48c0.69-0.56,1.65-0.47,2.23,0.2
				c0.46,0.54,0.92,1.08,1.37,1.63c0.5,0.61,0.49,1.44-0.03,2.03c-0.22,0.25-0.48,0.46-0.74,0.67c-0.08,0.07-0.11,0.12-0.06,0.23
				c0.62,1.36,0.88,2.8,0.88,4.28c0,2.33,0,4.66-0.01,6.98c0,0.18,0.05,0.22,0.23,0.22C31.27,32.16,33.08,32.17,34.89,32.17
				C34.89,32.17,34.89,32.17,34.89,32.17z M19.72,32.66c0,0.3,0,0.61,0,0.91c0,0.12,0.03,0.17,0.16,0.14
				c0.3-0.05,0.61-0.08,0.91-0.14c1.92-0.37,3.62-1.17,4.96-2.62c2.01-2.18,2.73-4.79,2.27-7.68c-1.03-6.35-6.97-8.28-10.97-7.28
				c-3.05,0.77-5.12,2.73-6.26,5.63c-0.94,2.41-0.82,4.8,0.34,7.12c0.07,0.14,0.13,0.16,0.26,0.07c0.5-0.31,1.01-0.62,1.52-0.92
				c0.11-0.07,0.12-0.12,0.06-0.23c-0.39-0.77-0.64-1.59-0.66-2.45c-0.07-2.96,1.2-5.18,3.78-6.62c1.3-0.73,2.72-0.88,4.19-0.63
				c1.67,0.28,3.1,1,4.18,2.32c1.38,1.69,1.84,3.64,1.45,5.77c-0.38,2.12-1.53,3.72-3.45,4.74c-0.79,0.42-1.63,0.66-2.52,0.77
				c-0.19,0.02-0.24,0.09-0.23,0.27C19.73,32.12,19.72,32.39,19.72,32.66z M13.37,24.74c0,3.19,2.59,5.87,5.76,5.82
				c3.82-0.05,5.86-2.88,5.86-5.82c-0.01-2.98-2.09-5.74-5.84-5.8C15.98,18.89,13.37,21.56,13.37,24.74z M18.66,32.67
				c0-0.29-0.01-0.58,0-0.87c0.01-0.15-0.05-0.2-0.19-0.21c-1.99-0.23-3.58-1.15-4.79-2.73c-0.08-0.11-0.14-0.1-0.24-0.04
				c-0.51,0.31-1.02,0.62-1.54,0.92c-0.11,0.07-0.13,0.11-0.05,0.22c1.66,2.24,3.87,3.49,6.65,3.76c0.14,0.01,0.17-0.04,0.16-0.16
				C18.65,33.26,18.66,32.97,18.66,32.67z M28.18,29.29c-0.04,0.03-0.05,0.04-0.05,0.05c-0.52,0.99-1.18,1.88-1.99,2.66
				c-0.04,0.04-0.07,0.08-0.07,0.14c0.01,0.41-0.01,0.83,0.02,1.24c0.03,0.4,0.27,0.67,0.64,0.82c0.74,0.28,1.45-0.21,1.46-1.02
				c0.01-1.26,0-2.52,0-3.78C28.19,29.37,28.18,29.34,28.18,29.29z M28.51,18.75c0-0.12-0.03-0.23-0.11-0.33
				c-0.46-0.55-0.92-1.1-1.38-1.64c-0.19-0.23-0.5-0.24-0.73-0.05c-0.14,0.11-0.27,0.23-0.41,0.34c-0.07,0.06-0.09,0.1-0.01,0.17
				c0.74,0.66,1.37,1.4,1.88,2.25c0.05,0.07,0.08,0.1,0.15,0.03c0.15-0.13,0.3-0.25,0.45-0.38C28.46,19.04,28.5,18.9,28.51,18.75z
				 M23.75,33.75c0.41,0,0.82,0,1.23,0c0.04,0,0.1,0,0.08-0.07c-0.05-0.23-0.05-0.47-0.06-0.74C24.58,33.24,24.17,33.49,23.75,33.75
				z"/>
			<path class="st2" d="M21.28,22.1c0,1.21-0.89,2.12-2.1,2.13c-1.18,0-2.09-0.91-2.1-2.11c-0.01-1.2,0.91-2.13,2.1-2.13
				C20.38,19.99,21.28,20.89,21.28,22.1z M18.14,22.1c0,0.61,0.44,1.06,1.04,1.06c0.59,0,1.04-0.44,1.05-1.04
				c0.01-0.61-0.43-1.06-1.03-1.07C18.59,21.04,18.15,21.49,18.14,22.1z"/>
			<path class="st2" d="M19.19,25.28c0.87,0,1.74,0,2.61,0c0.35,0,0.55,0.21,0.55,0.54c0,0.27-0.17,0.47-0.44,0.51
				c-0.05,0.01-0.11,0.01-0.17,0.01c-1.71,0-3.42,0-5.13,0c-0.43,0-0.68-0.29-0.58-0.68c0.06-0.25,0.26-0.38,0.56-0.38
				C17.46,25.28,18.33,25.28,19.19,25.28C19.19,25.28,19.19,25.28,19.19,25.28z"/>
			<path class="st2" d="M19.19,28.46c-0.52,0-1.05,0.01-1.57,0c-0.4-0.01-0.64-0.36-0.5-0.73c0.08-0.22,0.26-0.33,0.49-0.33
				c1.05,0,2.11-0.01,3.16,0c0.33,0,0.54,0.23,0.53,0.54c-0.01,0.3-0.22,0.51-0.54,0.52C20.24,28.46,19.71,28.46,19.19,28.46z"/>
		</g>
	</g>
</g>
<g id="simule_um_financiamento">
</g>
<g id="anuncie_x2C__encontre_x2C__fale_conosco">
</g>
<g id="bairros_mais_procurados">
</g>
<g id="modelos_mais_buscados">
</g>
<g id="footer">
</g>
<g id="Layer_3">
</g>
</svg>
