<?xml version="1.0" encoding="utf-8"?>
<!-- Generator: Adobe Illustrator 24.1.2, SVG Export Plug-In . SVG Version: 6.00 Build 0)  -->
<svg version="1.1" xmlns="http://www.w3.org/2000/svg" xmlns:xlink="http://www.w3.org/1999/xlink" x="0px" y="0px"
	 viewBox="0 0 120 120" style="enable-background:new 0 0 120 120;" xml:space="preserve">
<style type="text/css">
	.st0{opacity:0.07;}
	.st1{fill:#FFFFFF;}
	.st2{fill:#0F4B93;}
	.st3{fill:#0D3F85;}
	.st4{fill:#212529;}
	.st5{fill:#CACACA;}
	.st6{fill:#76787A;}
	.st7{clip-path:url(#SVGID_2_);}
	.st8{opacity:0.18;fill:#76787A;}
	.st9{fill:#E9E9EC;}
	.st10{fill:none;stroke:#FFFFFF;stroke-width:1.5;stroke-miterlimit:10;}
	.st11{fill:none;stroke:#3C3C3B;stroke-width:2;stroke-miterlimit:10;}
	.st12{fill:#00973A;}
	.st13{fill:#FADB00;}
	.st14{fill:#002776;}
	.st15{clip-path:url(#SVGID_4_);}
	.st16{fill:none;stroke:#FFFFFF;stroke-width:0.75;stroke-linecap:round;stroke-linejoin:round;stroke-miterlimit:10;}
	.st17{opacity:0.5;}
	.st18{fill:none;stroke:#0F4B93;stroke-width:3;stroke-linecap:round;stroke-linejoin:round;stroke-miterlimit:10;}
	.st19{clip-path:url(#SVGID_22_);}
	.st20{clip-path:url(#SVGID_24_);}
	.st21{fill:none;stroke:#76787A;stroke-width:0.5;stroke-miterlimit:10;}
	.st22{clip-path:url(#SVGID_26_);}
	.st23{clip-path:url(#SVGID_28_);}
	.st24{clip-path:url(#SVGID_30_);}
	.st25{clip-path:url(#SVGID_32_);}
	.st26{fill:url(#SVGID_35_);}
	.st27{fill:url(#SVGID_36_);}
	.st28{opacity:0.05;}
	.st29{opacity:0.7;}
	.st30{fill:none;stroke:#212529;stroke-width:1.5;stroke-miterlimit:10;}
	.st31{fill:#FFFFFF;stroke:#0D3F85;stroke-width:1.5;stroke-miterlimit:10;}
	.st32{fill:url(#SVGID_37_);}
	.st33{fill:none;stroke:#FFFFFF;stroke-width:0.75;stroke-miterlimit:10;}
</style>
<g id="encontre_seu_imóvel">
</g>
<g id="imóveis_em_destaque">
</g>
<g id="simule_um_financiamento">
</g>
<g id="anuncie_x2C__encontre_x2C__fale_conosco">
	<g>
		<path class="st3" d="M100.96,55.56L61.79,28.45c-0.52-0.36-1.2-0.36-1.71,0L20.92,55.56c-0.41,0.28-0.65,0.74-0.65,1.24v3.01
			c0,0.56,0.31,1.07,0.81,1.33c0.5,0.26,1.1,0.22,1.56-0.1l38.31-26.52l38.31,26.52c0.26,0.18,0.56,0.27,0.86,0.27
			c0.24,0,0.48-0.06,0.7-0.17c0.5-0.26,0.81-0.77,0.81-1.33V56.8C101.61,56.31,101.36,55.84,100.96,55.56z"/>
		<path class="st3" d="M97.09,94.46h-4.52V59.81c0-0.83-0.67-1.51-1.51-1.51s-1.51,0.67-1.51,1.51v34.64H32.32V59.81
			c0-0.83-0.67-1.51-1.51-1.51c-0.83,0-1.51,0.67-1.51,1.51v34.64h-4.52c-0.83,0-1.51,0.67-1.51,1.51c0,0.83,0.67,1.51,1.51,1.51
			h6.03h60.25h6.03c0.83,0,1.51-0.67,1.51-1.51C98.59,95.13,97.92,94.46,97.09,94.46z"/>
		<path class="st3" d="M57.92,85.42c0.83,0,1.51-0.67,1.51-1.51V65.84c0-0.83-0.67-1.51-1.51-1.51H39.85
			c-0.83,0-1.51,0.67-1.51,1.51v18.08c0,0.83,0.67,1.51,1.51,1.51H57.92z M41.35,67.35h15.06v15.06H41.35V67.35z"/>
		<path class="st3" d="M82.02,85.42c0.83,0,1.51-0.67,1.51-1.51V65.84c0-0.83-0.67-1.51-1.51-1.51H63.95
			c-0.83,0-1.51,0.67-1.51,1.51v18.08c0,0.83,0.67,1.51,1.51,1.51H82.02z M65.46,67.35h15.06v15.06H65.46V67.35z"/>
	</g>
</g>
<g id="bairros_mais_procurados">
</g>
<g id="modelos_mais_buscados">
</g>
<g id="footer">
</g>
<g id="Layer_3">
</g>
</svg>
