<?xml version="1.0" encoding="utf-8"?>
<!-- Generator: Adobe Illustrator 24.1.2, SVG Export Plug-In . SVG Version: 6.00 Build 0)  -->
<svg version="1.1" xmlns="http://www.w3.org/2000/svg" xmlns:xlink="http://www.w3.org/1999/xlink" x="0px" y="0px"
	 viewBox="0 0 80 65" style="enable-background:new 0 0 80 65;" xml:space="preserve">
<style type="text/css">
	.st0{fill:#F4F4F4;}
	.st1{fill:#E4E4E7;}
	.st2{fill:#FFFFFF;}
	.st3{fill:#0D3F80;}
	.st4{fill:none;stroke:#0D3F80;stroke-width:2;stroke-miterlimit:10;}
	.st5{clip-path:url(#SVGID_2_);fill:#67675E;}
	.st6{clip-path:url(#SVGID_2_);}
	.st7{clip-path:url(#SVGID_2_);fill:url(#SVGID_5_);}
	.st8{clip-path:url(#SVGID_2_);fill:#76787A;}
	.st9{opacity:0.03;clip-path:url(#SVGID_2_);}
	.st10{fill:#E69339;}
	.st11{clip-path:url(#SVGID_7_);}
	.st12{fill:none;stroke:#76787A;stroke-width:0.5;stroke-miterlimit:10;}
	.st13{fill:#0F4B8E;}
	.st14{clip-path:url(#SVGID_9_);}
	.st15{clip-path:url(#SVGID_11_);}
	.st16{clip-path:url(#SVGID_13_);}
	.st17{clip-path:url(#SVGID_15_);}
	.st18{clip-path:url(#SVGID_17_);}
	.st19{fill:none;stroke:#D9DCE4;stroke-width:1.3;stroke-linecap:round;stroke-linejoin:round;stroke-miterlimit:10;}
	.st20{fill:#B7B7B7;}
	.st21{fill:#A3A3A3;}
	.st22{fill:none;stroke:#D9DCE4;stroke-width:3;stroke-linecap:round;stroke-linejoin:round;stroke-miterlimit:10;}
	.st23{fill:none;stroke:#0F4B90;stroke-width:3;stroke-linecap:round;stroke-linejoin:round;stroke-miterlimit:10;}
	.st24{clip-path:url(#SVGID_19_);}
	.st25{opacity:0.9;}
	.st26{clip-path:url(#SVGID_21_);}
	.st27{clip-path:url(#SVGID_23_);}
	.st28{opacity:0.5;fill:#1D1D1B;}
	.st29{fill:#E89539;}
	.st30{fill:none;stroke:#E89539;stroke-miterlimit:10;}
	.st31{fill:none;stroke:#D1D1D1;stroke-width:0.5;stroke-miterlimit:10;}
	.st32{fill:none;stroke:#0F4B90;stroke-width:2;stroke-linecap:round;stroke-linejoin:round;stroke-miterlimit:10;}
	.st33{clip-path:url(#SVGID_25_);}
	.st34{clip-path:url(#SVGID_27_);}
	.st35{clip-path:url(#SVGID_29_);}
	.st36{clip-path:url(#SVGID_31_);}
	.st37{fill:#C8C8C8;}
	.st38{clip-path:url(#SVGID_33_);}
	.st39{clip-path:url(#SVGID_35_);}
	.st40{clip-path:url(#SVGID_37_);}
	.st41{clip-path:url(#SVGID_39_);}
	.st42{clip-path:url(#SVGID_41_);}
	.st43{clip-path:url(#SVGID_43_);}
	.st44{fill:#C5C5C5;}
	.st45{fill:#76787A;}
	.st46{fill:#00923A;}
	.st47{fill:#F5D600;}
	.st48{fill:#002776;}
	.st49{clip-path:url(#SVGID_45_);}
	.st50{fill:none;stroke:#FFFFFF;stroke-width:0.75;stroke-linecap:round;stroke-linejoin:round;stroke-miterlimit:10;}
	.st51{clip-path:url(#SVGID_63_);}
	.st52{clip-path:url(#SVGID_81_);}
	.st53{clip-path:url(#SVGID_99_);}
	.st54{fill:url(#SVGID_116_);}
	.st55{fill:none;stroke:#FFFFFF;stroke-width:0.75;stroke-miterlimit:10;}
	.st56{fill:url(#SVGID_117_);}
	.st57{fill:url(#SVGID_118_);}
	.st58{fill:url(#SVGID_119_);}
	.st59{opacity:0.4;}
</style>
<g id="quem_somos">
	<g>
		<path class="st4" d="M64.61,34.77l2.74,8.42c0.1,0.3,0.37,0.5,0.69,0.5h8.86c0.7,0,0.99,0.9,0.43,1.31l-7.16,5.2
			c-0.25,0.18-0.36,0.51-0.26,0.81l2.74,8.42c0.22,0.67-0.55,1.22-1.11,0.81l-7.16-5.2c-0.25-0.18-0.6-0.18-0.85,0l-7.16,5.2
			c-0.57,0.41-1.33-0.14-1.11-0.81l2.74-8.42c0.1-0.3-0.01-0.62-0.26-0.81L50.53,45c-0.57-0.41-0.28-1.31,0.43-1.31h8.86
			c0.31,0,0.59-0.2,0.69-0.5l2.74-8.42C63.45,34.11,64.39,34.11,64.61,34.77z"/>
		<path class="st4" d="M42,5.79l2.74,8.42c0.1,0.3,0.37,0.5,0.69,0.5h8.86c0.7,0,0.99,0.9,0.43,1.31l-7.16,5.2
			c-0.25,0.18-0.36,0.51-0.26,0.81l2.74,8.42c0.22,0.67-0.55,1.22-1.11,0.81l-7.16-5.2c-0.25-0.18-0.6-0.18-0.85,0l-7.16,5.2
			c-0.57,0.41-1.33-0.14-1.11-0.81l2.74-8.42c0.1-0.3-0.01-0.62-0.26-0.81l-7.16-5.2c-0.57-0.41-0.28-1.31,0.43-1.31h8.86
			c0.31,0,0.59-0.2,0.69-0.5l2.74-8.42C40.84,5.13,41.78,5.13,42,5.79z"/>
		<path class="st4" d="M19.38,34.79l2.74,8.42c0.1,0.3,0.37,0.5,0.69,0.5h8.86c0.7,0,0.99,0.9,0.43,1.31l-7.16,5.2
			c-0.25,0.18-0.36,0.51-0.26,0.81l2.74,8.42c0.22,0.67-0.55,1.22-1.11,0.81l-7.16-5.2c-0.25-0.18-0.6-0.18-0.85,0l-7.16,5.2
			c-0.57,0.41-1.33-0.14-1.11-0.81l2.74-8.42c0.1-0.3-0.01-0.62-0.26-0.81l-7.16-5.2c-0.57-0.41-0.28-1.31,0.43-1.31h8.86
			c0.31,0,0.59-0.2,0.69-0.5L18,34.79C18.22,34.13,19.16,34.13,19.38,34.79z"/>
	</g>
</g>
<g id="simule_um_financiamento">
</g>
<g id="locação">
</g>
<g id="imóvel">
</g>
<g id="venda_00000113349875049179142070000008859431808294898344_">
</g>
<g id="header">
</g>
<g id="footer">
</g>
<g id="Layer_3">
</g>
</svg>
