<?xml version="1.0" encoding="utf-8"?>
<!-- Generator: Adobe Illustrator 24.1.2, SVG Export Plug-In . SVG Version: 6.00 Build 0)  -->
<svg version="1.1" id="Camada_1" xmlns="http://www.w3.org/2000/svg" xmlns:xlink="http://www.w3.org/1999/xlink" x="0px" y="0px"
	 viewBox="0 0 378.09 162.26" style="enable-background:new 0 0 378.09 162.26;" xml:space="preserve">
<style type="text/css">
	.st0{clip-path:url(#SVGID_2_);fill-rule:evenodd;clip-rule:evenodd;fill:#FFFFFF;}
</style>
<g>
	<defs>
		<rect id="SVGID_1_" width="378.09" height="162.26"/>
	</defs>
	<clipPath id="SVGID_2_">
		<use xlink:href="#SVGID_1_"  style="overflow:visible;"/>
	</clipPath>
	<path class="st0" d="M58.1,0C26.01,0,0,26.01,0,58.1c0,32.07,26.01,58.09,58.1,58.09c32.09,0,58.09-26.02,58.09-58.09
		C116.19,26.01,90.19,0,58.1,0 M96.26,30.61l-6.14,17.62h-2.28l0.85-2.86c1.04-3.07,1.05-5.41,0.03-6.95
		c-0.93-1.39-2.19-2.1-4.75-2.1l-3.51-0.01c-4.38,0-11.81,1.49-16.19,10.83c-0.53,1.13-4.13,11.02-5.34,14.06h10.42
		c1.18,0,2.22-0.17,3.15-0.35c4.07-0.81,7.92-8.43,7.92-8.43h2.01l-7.26,19.98h-2.02l0.29-0.96c0.42-1.47,2.23-8.38-3.39-7.99
		l-11.99,0c-0.6,1.51-4.33,13.26-13.58,19.39c-6.57,4.35-22.34,4.35-24.52-6.4c-0.32-3.06,1.47-4.79,3.54-4.79
		c2.03-0.01,3.69,1.66,3.68,3.71c0,1.53-0.93,2.84-2.25,3.4l0.16,0.1c0.47,2.25,6.77,7.58,16.01,2.07
		c6.04-3.62,11.02-17.51,11.53-18.8c1.35-3.43,3.6-9.13,4.06-10.17c0.98-2.33,2.15-4.62,3.51-6.69c3.91-5.92,7.7-8.11,9.45-8.94
		c0,0-20.13-0.58-28.37,1.24c-2.91,0.67-9.42,2.43-12.11,6.7c-2.67,4.23-1.22,11.86,9.48,10.11c6.4-1.04,8.68-6.85,8.68-6.85h0.5
		h1.65c0,0-2.41,7.22-10.65,9.07c-5.55,1.26-13.18-0.39-13.65-8.31c-0.74-12.45,15.11-17.69,41.18-17.69
		C92.04,30.62,95.81,30.61,96.26,30.61L96.26,30.61C96.26,30.61,96.38,30.61,96.26,30.61"/>
	<path class="st0" d="M154.11,41.78c0-0.39,0.32-0.71,0.71-0.71l15.16-0.01c0.39,0,0.81-0.3,0.94-0.67l2.41-6.95
		c0.13-0.37-0.08-0.67-0.47-0.67h-26.9c-0.39,0-0.71,0.32-0.71,0.71v49.23c0,0.39,0.32,0.71,0.71,0.71h7.46
		c0.39,0,0.71-0.32,0.71-0.71l-0.01-19.28c0-0.39,0.32-0.71,0.71-0.71h15.44c0.39,0,0.71-0.32,0.71-0.71v-6.88
		c0-0.39-0.32-0.71-0.71-0.71h-15.44c-0.39,0-0.71-0.32-0.71-0.71V41.78z"/>
	<path class="st0" d="M188.38,32.78L188.38,32.78c-0.39,0-0.8,0.3-0.92,0.67l-15.25,49.29c-0.11,0.37,0.1,0.67,0.5,0.67h7.79
		c0.39,0,0.8-0.31,0.9-0.68l2.88-9.74c0.11-0.38,0.52-0.68,0.9-0.68h15.42c0.39,0,0.79,0.31,0.9,0.68l2.79,9.74
		c0.11,0.37,0.51,0.68,0.9,0.68h8.09c0.39,0,0.62-0.3,0.5-0.67l-15.11-49.29c-0.12-0.37-0.52-0.67-0.92-0.67H188.38z M187.19,64.61
		c-0.39,0-0.62-0.3-0.51-0.68l6.05-20.86c0.11-0.38,0.29-0.38,0.4,0l6.05,20.86c0.11,0.37-0.12,0.68-0.51,0.68H187.19z"/>
	<path class="st0" d="M228.12,62.38c0-0.39,0.32-0.71,0.71-0.71h15.54c0.39,0,0.71-0.32,0.71-0.71v-6.58c0-0.39-0.32-0.71-0.71-0.71
		h-15.54c-0.39,0-0.71-0.32-0.71-0.71V41.49c0-0.39,0.32-0.71,0.71-0.71h15.41c0.39,0,0.81-0.3,0.94-0.67l2.3-6.67
		c0.13-0.37-0.09-0.67-0.48-0.67H220.1c-0.39,0-0.71,0.32-0.71,0.71v49.23c0,0.39,0.32,0.71,0.71,0.71h26.23
		c0.39,0,0.71-0.32,0.71-0.71v-6.58c0-0.39-0.32-0.71-0.71-0.71h-17.5c-0.39,0-0.71-0.32-0.71-0.71V62.38z"/>
	<path class="st0" d="M286.12,70.09c0,0.39-0.14,0.42-0.31,0.08l-17.95-36.75c-0.17-0.35-0.63-0.63-1.02-0.63h-10.01
		c-0.39,0-0.71,0.32-0.71,0.71l0.02,49.23c0,0.39,0.32,0.7,0.71,0.7h7.11c0.39,0,0.7-0.32,0.7-0.7l-0.28-36.53
		c0-0.39,0.14-0.42,0.3-0.07l18.02,36.68c0.17,0.35,0.63,0.64,1.02,0.64h10.02c0.39,0,0.71-0.32,0.71-0.7V33.48
		c0-0.39-0.32-0.71-0.71-0.71h-7.19c-0.39,0-0.7,0.32-0.7,0.71L286.12,70.09z"/>
	<path class="st0" d="M322.59,62.59c0,0.39,0.32,0.71,0.71,0.71h7.72c0.39,0,0.71,0.32,0.71,0.71v10.71c0,0.39-0.31,0.77-0.69,0.85
		c0,0-4.57,0.89-7.27,0.89c-4.45,0-6.79-0.97-8.46-2.73c-1.88-1.91-2.85-5.58-2.85-15.63c0-9.26,0.83-12.63,2.64-14.91
		c1.46-1.82,3.81-3,8.18-3c4.59,0,10.49,3.46,10.49,3.46c0.33,0.2,0.71,0.06,0.84-0.31l2.44-7.11c0.13-0.37-0.06-0.8-0.41-0.95
		c0,0-7.41-3.23-12.6-3.23c-7.49,0-12.19,2.13-15.31,5.51c-4.51,4.92-5.61,11.97-5.61,21.27c0,8.29,0.91,15.12,5.48,19.97
		c3.25,3.52,8.11,5.35,15.54,5.36c6.35-0.01,15.17-2.86,15.17-2.86c0.37-0.12,0.67-0.53,0.67-0.92V56.15c0-0.39-0.32-0.71-0.71-0.71
		H323.3c-0.39,0-0.71,0.32-0.71,0.71V62.59z"/>
	<path class="st0" d="M359.4,75.42c-0.39,0-0.71-0.32-0.71-0.71V62.38c0-0.39,0.32-0.71,0.71-0.71h15.58c0.39,0,0.7-0.32,0.7-0.71
		v-6.58c0-0.39-0.32-0.71-0.7-0.71H359.4c-0.39,0-0.71-0.32-0.71-0.7V41.49c0-0.39,0.32-0.71,0.71-0.71h15.4
		c0.39,0,0.81-0.3,0.94-0.67l2.31-6.67c0.13-0.37-0.09-0.67-0.48-0.67h-26.89c-0.39,0-0.71,0.32-0.71,0.71v49.23
		c0,0.39,0.32,0.71,0.71,0.71h26.21c0.39,0,0.71-0.32,0.71-0.71v-6.58c0-0.39-0.32-0.71-0.71-0.71H359.4z"/>
	<path class="st0" d="M208.79,142.85L208.79,142.85l-2.91,14.55h7.29l0.25-1.26h-5.88l1.12-5.54H214l0.25-1.26h-5.33l1.03-5.21h5.82
		l0.25-1.26H208.79z M201.88,157.4L201.88,157.4l2.91-14.55h-1.41l-0.99,4.95c-0.2,0.96-0.45,1.87-0.75,2.73
		c-0.3,0.86-0.65,1.65-1.05,2.37c-0.4,0.72-0.83,1.34-1.3,1.86c-0.47,0.53-0.97,0.93-1.5,1.22c-0.53,0.29-1.08,0.44-1.65,0.44
		c-0.59,0-1.03-0.16-1.31-0.47c-0.28-0.31-0.43-0.74-0.42-1.3c0-0.22,0.02-0.47,0.06-0.75c0.04-0.28,0.08-0.57,0.13-0.87
		c0.06-0.3,0.11-0.6,0.17-0.89l1.85-9.3h-1.41l-1.81,9.13c-0.07,0.33-0.13,0.67-0.19,1.01c-0.05,0.33-0.1,0.66-0.13,0.96
		c-0.03,0.31-0.05,0.59-0.05,0.84c0,0.67,0.12,1.21,0.36,1.64c0.24,0.43,0.57,0.75,0.99,0.96c0.43,0.21,0.93,0.31,1.5,0.31
		c0.61,0,1.19-0.11,1.73-0.33c0.54-0.21,1.04-0.51,1.5-0.9c0.46-0.39,0.88-0.84,1.24-1.37c0.37-0.52,0.7-1.1,0.97-1.73l-0.82,4.03
		H201.88z M189.14,146.98L189.14,146.98c0,0.33-0.03,0.72-0.07,1.16c-0.05,0.45-0.12,0.92-0.21,1.44c-0.09,0.51-0.2,1.03-0.33,1.55
		c-0.13,0.53-0.28,1.03-0.44,1.51c-0.16,0.49-0.34,0.92-0.54,1.32c-0.25,0.51-0.56,0.95-0.91,1.31c-0.36,0.37-0.79,0.65-1.31,0.85
		c-0.51,0.2-1.12,0.3-1.83,0.3c-0.79,0-1.43-0.13-1.89-0.39c-0.47-0.26-0.79-0.63-0.99-1.1c-0.19-0.47-0.29-1.04-0.28-1.69
		c0-0.4,0.03-0.85,0.09-1.34c0.06-0.49,0.14-1.01,0.25-1.54c0.11-0.53,0.23-1.05,0.37-1.57c0.14-0.51,0.29-0.99,0.44-1.44
		c0.16-0.45,0.32-0.83,0.48-1.15c0.43-0.82,0.98-1.42,1.66-1.81c0.69-0.39,1.47-0.58,2.36-0.57c0.78,0,1.4,0.14,1.86,0.4
		c0.46,0.26,0.79,0.63,0.99,1.1C189.05,145.79,189.15,146.35,189.14,146.98 M190.58,147.15L190.58,147.15
		c0-1.49-0.37-2.62-1.12-3.39c-0.74-0.77-1.88-1.16-3.39-1.16c-1.18,0-2.21,0.25-3.1,0.74c-0.88,0.5-1.61,1.26-2.19,2.29
		c-0.22,0.39-0.43,0.83-0.62,1.31c-0.19,0.48-0.36,0.99-0.51,1.52c-0.15,0.53-0.28,1.06-0.39,1.61c-0.11,0.54-0.19,1.06-0.25,1.57
		c-0.06,0.51-0.09,0.98-0.09,1.42c0,1.53,0.37,2.68,1.12,3.44c0.74,0.77,1.86,1.15,3.35,1.15c0.55,0,1.08-0.05,1.58-0.16
		c0.5-0.11,0.96-0.27,1.39-0.49l1.83,2.55l1.12-0.82l-1.81-2.53c0.23-0.2,0.44-0.43,0.64-0.68c0.19-0.25,0.37-0.52,0.54-0.82
		c0.24-0.42,0.45-0.87,0.65-1.38c0.2-0.51,0.37-1.03,0.53-1.58c0.15-0.55,0.28-1.1,0.39-1.65c0.11-0.55,0.19-1.08,0.24-1.58
		C190.55,148.01,190.58,147.55,190.58,147.15 M168.9,152.19L168.9,152.19h-4.91l3.94-7.88L168.9,152.19z M170.99,157.4L170.99,157.4
		l-1.92-14.55h-1.75l-7.42,14.55h1.5l2.02-4.03h5.61l0.48,4.03H170.99z M153.28,144.07L153.28,144.07h2.55
		c0.58,0,1.05,0.05,1.42,0.17c0.38,0.12,0.65,0.32,0.84,0.61c0.18,0.29,0.27,0.68,0.27,1.18c0,0.64-0.13,1.21-0.4,1.74
		c-0.27,0.52-0.66,0.95-1.18,1.3c-0.4,0.26-0.86,0.46-1.38,0.59c-0.51,0.13-1.05,0.19-1.62,0.19h-1.67L153.28,144.07z M152.1,142.85
		L152.1,142.85l-2.91,14.55h1.41l1.27-6.32h1.94c0.39,0,0.72,0.06,1,0.18c0.28,0.12,0.51,0.33,0.7,0.62
		c0.19,0.28,0.34,0.67,0.47,1.16c0.12,0.48,0.23,1.08,0.32,1.8c0.08,0.72,0.16,1.58,0.24,2.57h1.45c-0.08-0.99-0.16-1.88-0.26-2.66
		c-0.1-0.78-0.22-1.45-0.37-2.02c-0.15-0.57-0.34-1.03-0.57-1.39c-0.23-0.36-0.52-0.61-0.88-0.77c0.56-0.13,1.07-0.32,1.54-0.58
		c0.48-0.26,0.88-0.59,1.24-0.97c0.36-0.39,0.63-0.83,0.82-1.34c0.2-0.5,0.29-1.06,0.3-1.66c0-0.61-0.1-1.12-0.3-1.53
		c-0.19-0.41-0.47-0.73-0.82-0.97c-0.35-0.24-0.77-0.41-1.24-0.51c-0.47-0.1-1-0.15-1.56-0.15H152.1z M146.05,146.98L146.05,146.98
		c0,0.33-0.02,0.72-0.07,1.16c-0.05,0.45-0.12,0.92-0.21,1.44c-0.09,0.51-0.2,1.03-0.33,1.55c-0.13,0.53-0.28,1.03-0.44,1.51
		c-0.16,0.49-0.34,0.92-0.54,1.32c-0.25,0.51-0.56,0.95-0.91,1.31c-0.36,0.37-0.79,0.65-1.31,0.85c-0.51,0.2-1.12,0.3-1.83,0.3
		c-0.79,0-1.43-0.13-1.89-0.39c-0.46-0.26-0.79-0.63-0.99-1.1c-0.19-0.47-0.29-1.04-0.29-1.69c0-0.4,0.03-0.85,0.09-1.34
		c0.06-0.49,0.14-1.01,0.25-1.54c0.1-0.53,0.23-1.05,0.37-1.57c0.14-0.51,0.28-0.99,0.44-1.44c0.16-0.45,0.32-0.83,0.48-1.15
		c0.42-0.82,0.98-1.42,1.66-1.81c0.68-0.39,1.47-0.58,2.36-0.57c0.78,0,1.4,0.14,1.86,0.4c0.46,0.26,0.79,0.63,0.99,1.1
		C145.96,145.79,146.06,146.35,146.05,146.98 M147.49,147.13L147.49,147.13c0-1.48-0.37-2.6-1.12-3.37
		c-0.74-0.77-1.88-1.16-3.39-1.16c-1.18,0-2.21,0.25-3.1,0.74c-0.88,0.5-1.62,1.26-2.2,2.29c-0.22,0.39-0.43,0.83-0.61,1.31
		c-0.19,0.48-0.36,0.99-0.51,1.52c-0.15,0.53-0.28,1.06-0.39,1.61c-0.11,0.54-0.19,1.06-0.25,1.57c-0.06,0.51-0.09,0.98-0.09,1.42
		c0,1.53,0.37,2.68,1.11,3.44c0.74,0.77,1.87,1.15,3.38,1.15c1.18,0,2.21-0.24,3.1-0.74c0.88-0.49,1.62-1.25,2.21-2.28
		c0.23-0.42,0.45-0.88,0.64-1.39c0.19-0.5,0.37-1.03,0.52-1.57c0.15-0.54,0.28-1.09,0.38-1.63c0.1-0.54,0.18-1.06,0.24-1.56
		C147.46,147.99,147.49,147.54,147.49,147.13 M125.18,142.85L125.18,142.85l-0.25,1.26h4.51l-2.66,13.28h1.39l2.66-13.28h4.51
		l0.25-1.26H125.18z M119.74,157.4L119.74,157.4l2.91-14.55h-1.41l-0.99,4.95c-0.2,0.96-0.45,1.87-0.75,2.73
		c-0.3,0.86-0.65,1.65-1.05,2.37c-0.4,0.72-0.83,1.34-1.31,1.86c-0.47,0.53-0.97,0.93-1.5,1.22c-0.53,0.29-1.08,0.44-1.65,0.44
		c-0.59,0-1.03-0.16-1.31-0.47c-0.28-0.31-0.43-0.74-0.42-1.3c0-0.22,0.02-0.47,0.06-0.75c0.03-0.28,0.08-0.57,0.13-0.87
		c0.06-0.3,0.11-0.6,0.17-0.89l1.86-9.3h-1.41l-1.81,9.13c-0.07,0.33-0.13,0.67-0.19,1.01c-0.05,0.33-0.1,0.66-0.13,0.96
		c-0.03,0.31-0.05,0.59-0.05,0.84c0,0.67,0.12,1.21,0.36,1.64c0.24,0.43,0.57,0.75,0.99,0.96c0.43,0.21,0.92,0.31,1.5,0.31
		c0.61,0,1.19-0.11,1.73-0.33c0.54-0.21,1.04-0.51,1.5-0.9c0.46-0.39,0.88-0.84,1.24-1.37c0.37-0.52,0.7-1.1,0.97-1.73l-0.82,4.03
		H119.74z M102.01,144.07L102.01,144.07l-1.16,5.78h1.67c0.57,0,1.1-0.06,1.62-0.19c0.51-0.13,0.97-0.32,1.38-0.59
		c0.52-0.34,0.91-0.78,1.18-1.3c0.27-0.52,0.4-1.1,0.4-1.74c0-0.5-0.09-0.9-0.27-1.18c-0.18-0.28-0.46-0.49-0.83-0.61
		c-0.37-0.12-0.85-0.17-1.42-0.17H102.01z M100.83,142.85L100.83,142.85h3.79c0.57,0,1.09,0.05,1.56,0.15
		c0.48,0.1,0.89,0.27,1.24,0.51c0.35,0.24,0.63,0.56,0.82,0.97c0.19,0.41,0.29,0.92,0.29,1.53c0,0.61-0.1,1.16-0.3,1.66
		c-0.2,0.5-0.47,0.95-0.82,1.34c-0.35,0.39-0.76,0.71-1.24,0.97c-0.47,0.26-0.99,0.46-1.54,0.58c0.35,0.15,0.64,0.41,0.87,0.77
		c0.23,0.35,0.42,0.82,0.57,1.39c0.15,0.56,0.27,1.24,0.36,2.02c0.09,0.78,0.18,1.67,0.26,2.66h-1.45
		c-0.07-0.99-0.15-1.85-0.24-2.57c-0.09-0.72-0.19-1.32-0.32-1.8c-0.13-0.49-0.28-0.87-0.47-1.16c-0.19-0.29-0.42-0.49-0.7-0.62
		c-0.28-0.12-0.61-0.18-1-0.18h-1.94l-1.26,6.32h-1.41L100.83,142.85z M87.89,142.85L87.89,142.85l-0.25,1.26h4.51l-2.66,13.28h1.39
		l2.66-13.28h4.51l0.25-1.26H87.89z M85.13,143.74L85.13,143.74c-0.25-0.25-0.55-0.45-0.89-0.61c-0.34-0.16-0.71-0.28-1.1-0.35
		c-0.39-0.08-0.79-0.12-1.19-0.12c-0.47,0-0.93,0.05-1.37,0.16c-0.45,0.11-0.87,0.26-1.27,0.48c-0.39,0.21-0.74,0.48-1.04,0.8
		c-0.3,0.32-0.54,0.7-0.71,1.14c-0.17,0.43-0.26,0.92-0.26,1.47c0,0.52,0.08,0.98,0.24,1.37c0.15,0.39,0.36,0.73,0.61,1.01
		c0.25,0.29,0.53,0.54,0.83,0.76c0.31,0.22,0.61,0.41,0.91,0.6c0.5,0.31,0.92,0.58,1.26,0.82c0.34,0.24,0.61,0.47,0.81,0.68
		c0.2,0.22,0.34,0.45,0.42,0.69c0.08,0.25,0.13,0.53,0.12,0.84c0,0.49-0.08,0.91-0.25,1.28c-0.17,0.36-0.39,0.66-0.68,0.89
		c-0.29,0.24-0.63,0.41-1.01,0.53c-0.38,0.12-0.79,0.17-1.23,0.17c-0.35,0-0.72-0.04-1.09-0.12c-0.37-0.08-0.73-0.2-1.07-0.36
		c-0.34-0.16-0.65-0.37-0.92-0.62l-0.76,1.07c0.28,0.28,0.62,0.52,1.01,0.7c0.39,0.19,0.8,0.33,1.24,0.42
		c0.44,0.1,0.88,0.14,1.32,0.14c0.63,0,1.24-0.1,1.81-0.28c0.57-0.19,1.08-0.47,1.53-0.84c0.45-0.37,0.81-0.82,1.06-1.37
		c0.26-0.54,0.39-1.17,0.4-1.87c0-0.53-0.08-1-0.24-1.39c-0.16-0.39-0.37-0.74-0.65-1.04c-0.28-0.3-0.6-0.57-0.96-0.82
		c-0.37-0.25-0.76-0.5-1.19-0.75c-0.42-0.25-0.77-0.48-1.05-0.69c-0.28-0.21-0.5-0.41-0.67-0.6c-0.16-0.2-0.28-0.4-0.35-0.62
		c-0.07-0.22-0.1-0.47-0.1-0.74c0-0.59,0.13-1.08,0.39-1.48c0.25-0.39,0.61-0.69,1.06-0.89c0.46-0.2,0.99-0.3,1.58-0.3
		c0.29,0,0.6,0.03,0.92,0.08c0.32,0.06,0.63,0.14,0.94,0.27c0.31,0.13,0.6,0.3,0.86,0.52L85.13,143.74z M64.66,142.85L64.66,142.85
		l-2.91,14.55h1.37l2.51-12.54l4.55,12.54h1.69l2.91-14.55h-1.35l-2.51,12.5l-4.51-12.5H64.66z M58.61,146.98L58.61,146.98
		c0,0.33-0.03,0.72-0.07,1.16c-0.05,0.45-0.12,0.92-0.21,1.44c-0.09,0.51-0.2,1.03-0.33,1.55c-0.13,0.53-0.28,1.03-0.44,1.51
		c-0.17,0.49-0.34,0.92-0.54,1.32c-0.25,0.51-0.56,0.95-0.91,1.31c-0.36,0.37-0.79,0.65-1.31,0.85c-0.51,0.2-1.12,0.3-1.83,0.3
		c-0.79,0-1.43-0.13-1.89-0.39c-0.46-0.26-0.79-0.63-0.99-1.1c-0.19-0.47-0.29-1.04-0.28-1.69c0-0.4,0.03-0.85,0.09-1.34
		c0.06-0.49,0.14-1.01,0.25-1.54c0.11-0.53,0.23-1.05,0.37-1.57c0.14-0.51,0.29-0.99,0.44-1.44c0.16-0.45,0.32-0.83,0.48-1.15
		c0.43-0.82,0.98-1.42,1.67-1.81c0.68-0.39,1.47-0.58,2.36-0.57c0.78,0,1.4,0.14,1.86,0.4c0.46,0.26,0.79,0.63,0.99,1.1
		C58.52,145.79,58.61,146.35,58.61,146.98 M60.04,147.13L60.04,147.13c0-1.48-0.37-2.6-1.12-3.37c-0.75-0.77-1.88-1.16-3.39-1.16
		c-1.18,0-2.21,0.25-3.1,0.74c-0.88,0.5-1.62,1.26-2.19,2.29c-0.22,0.39-0.43,0.83-0.62,1.31c-0.19,0.48-0.36,0.99-0.51,1.52
		c-0.15,0.53-0.28,1.06-0.39,1.61c-0.11,0.54-0.19,1.06-0.25,1.57c-0.06,0.51-0.09,0.98-0.09,1.42c0,1.53,0.37,2.68,1.11,3.44
		c0.74,0.77,1.87,1.15,3.38,1.15c1.18,0,2.21-0.24,3.1-0.74c0.89-0.49,1.63-1.25,2.21-2.28c0.23-0.42,0.45-0.88,0.64-1.39
		c0.19-0.5,0.37-1.03,0.52-1.57c0.15-0.54,0.28-1.09,0.38-1.63c0.11-0.54,0.18-1.06,0.24-1.56
		C60.01,147.99,60.04,147.54,60.04,147.13 M44.23,154.76L44.23,154.76c-0.61,0.55-1.23,0.96-1.86,1.22c-0.63,0.27-1.25,0.4-1.87,0.4
		c-0.53,0-0.97-0.09-1.33-0.26c-0.36-0.17-0.65-0.42-0.86-0.72c-0.21-0.31-0.37-0.67-0.46-1.08c-0.09-0.41-0.14-0.85-0.13-1.33
		c0-0.38,0.02-0.8,0.08-1.28c0.05-0.47,0.12-0.97,0.22-1.49c0.1-0.52,0.22-1.04,0.36-1.56c0.14-0.52,0.3-1.01,0.48-1.49
		c0.18-0.47,0.38-0.89,0.59-1.27c0.26-0.46,0.56-0.84,0.9-1.13c0.33-0.3,0.72-0.52,1.17-0.67c0.45-0.14,0.97-0.22,1.56-0.22
		c0.34,0,0.67,0.03,1,0.09c0.32,0.06,0.64,0.17,0.94,0.34c0.3,0.16,0.59,0.39,0.85,0.69l0.93-0.86c-0.3-0.39-0.64-0.69-1.01-0.91
		c-0.38-0.21-0.78-0.37-1.22-0.45c-0.43-0.08-0.87-0.12-1.33-0.12c-1.13-0.01-2.11,0.22-2.93,0.67c-0.82,0.45-1.52,1.16-2.09,2.14
		c-0.32,0.54-0.59,1.13-0.83,1.76c-0.24,0.63-0.44,1.28-0.59,1.94c-0.16,0.66-0.28,1.3-0.35,1.93c-0.08,0.63-0.12,1.21-0.12,1.75
		c0,0.97,0.13,1.81,0.41,2.51c0.28,0.71,0.71,1.26,1.31,1.64c0.6,0.39,1.38,0.58,2.35,0.59c0.89,0,1.71-0.17,2.48-0.5
		c0.77-0.33,1.47-0.79,2.12-1.4L44.23,154.76z M26.25,152.19L26.25,152.19h-4.91l3.94-7.88L26.25,152.19z M28.34,157.4l-1.92-14.55
		h-1.75l-7.42,14.55h1.5l2.02-4.03h5.61l0.49,4.03H28.34z"/>
	<path class="st0" d="M373.16,152.19L373.16,152.19l-0.97-7.89l-3.94,7.89H373.16z M375.25,157.4L375.25,157.4h-1.48l-0.48-4.03
		h-5.61l-2.02,4.03h-1.5l7.42-14.55h1.75L375.25,157.4z M362.14,154.76L362.14,154.76c-0.61,0.55-1.23,0.96-1.86,1.22
		c-0.63,0.27-1.25,0.4-1.87,0.4c-0.53,0-0.97-0.09-1.33-0.26c-0.36-0.17-0.65-0.42-0.86-0.72c-0.21-0.31-0.37-0.67-0.46-1.08
		c-0.09-0.41-0.14-0.85-0.13-1.33c0-0.38,0.03-0.8,0.08-1.27c0.05-0.47,0.12-0.97,0.22-1.49c0.1-0.52,0.22-1.04,0.36-1.56
		c0.14-0.52,0.3-1.01,0.48-1.49c0.18-0.47,0.38-0.9,0.59-1.27c0.26-0.46,0.56-0.84,0.9-1.14c0.33-0.3,0.72-0.52,1.17-0.67
		c0.45-0.14,0.97-0.22,1.56-0.22c0.34,0,0.67,0.03,0.99,0.09c0.32,0.06,0.64,0.17,0.94,0.34c0.3,0.16,0.59,0.39,0.85,0.69l0.93-0.87
		c-0.3-0.39-0.64-0.69-1.01-0.9c-0.38-0.22-0.78-0.37-1.22-0.45c-0.43-0.08-0.87-0.12-1.33-0.12c-1.13-0.01-2.11,0.22-2.93,0.67
		c-0.82,0.45-1.52,1.16-2.09,2.14c-0.32,0.54-0.59,1.12-0.83,1.76c-0.24,0.64-0.44,1.28-0.59,1.95c-0.16,0.67-0.28,1.31-0.36,1.94
		c-0.08,0.63-0.12,1.21-0.12,1.74c0,0.84,0.1,1.59,0.32,2.24c0.21,0.65,0.54,1.19,0.99,1.6c0.45,0.41,1.04,0.69,1.75,0.82
		l-0.44,1.56c0.31,0.08,0.56,0.18,0.73,0.28c0.18,0.11,0.3,0.22,0.37,0.35c0.07,0.12,0.1,0.26,0.1,0.41c0,0.24-0.07,0.45-0.18,0.63
		c-0.12,0.18-0.28,0.31-0.47,0.41c-0.19,0.1-0.39,0.15-0.61,0.15c-0.22,0-0.42-0.06-0.59-0.18c-0.17-0.13-0.33-0.32-0.49-0.6
		l-0.82,0.57c0.18,0.41,0.42,0.71,0.74,0.91c0.31,0.2,0.68,0.29,1.12,0.29c0.38,0,0.72-0.07,1.01-0.2c0.3-0.13,0.55-0.3,0.76-0.52
		c0.21-0.22,0.36-0.46,0.47-0.73c0.11-0.27,0.16-0.54,0.16-0.83c0-0.36-0.1-0.65-0.28-0.88c-0.19-0.23-0.47-0.41-0.84-0.56
		l0.27-0.97c0.9,0,1.73-0.17,2.49-0.5c0.76-0.33,1.46-0.79,2.11-1.4L362.14,154.76z M342.34,142.85L342.34,142.85l-2.91,14.55h1.37
		l2.51-12.54l4.55,12.54h1.69l2.91-14.55h-1.35l-2.51,12.5l-4.51-12.5H342.34z M331.66,142.85L331.66,142.85l-2.91,14.55h7.29
		l0.25-1.27h-5.88l1.12-5.54h5.33l0.25-1.26h-5.33l1.03-5.21h5.82l0.25-1.26H331.66z M320.61,144.07L320.61,144.07h2.55
		c0.58,0,1.05,0.05,1.42,0.17c0.37,0.12,0.65,0.32,0.83,0.61c0.18,0.29,0.27,0.68,0.27,1.18c0,0.64-0.13,1.22-0.4,1.74
		c-0.27,0.52-0.66,0.95-1.18,1.3c-0.4,0.26-0.86,0.46-1.38,0.59c-0.51,0.13-1.05,0.19-1.62,0.19h-1.67L320.61,144.07z
		 M319.43,142.85L319.43,142.85l-2.91,14.55h1.41l1.27-6.33h1.94c0.39,0,0.72,0.06,1,0.18c0.27,0.12,0.51,0.33,0.7,0.62
		c0.19,0.28,0.34,0.67,0.47,1.16c0.12,0.49,0.23,1.09,0.32,1.81c0.08,0.72,0.17,1.58,0.24,2.57h1.45c-0.08-1-0.16-1.88-0.26-2.66
		c-0.1-0.78-0.22-1.45-0.37-2.02c-0.15-0.57-0.34-1.03-0.57-1.38c-0.23-0.36-0.52-0.62-0.87-0.77c0.56-0.13,1.07-0.32,1.54-0.58
		c0.48-0.26,0.89-0.59,1.24-0.97c0.36-0.39,0.63-0.83,0.82-1.33c0.2-0.5,0.3-1.06,0.3-1.66c0-0.61-0.1-1.12-0.3-1.52
		c-0.19-0.41-0.47-0.74-0.82-0.97c-0.35-0.24-0.77-0.41-1.24-0.51c-0.47-0.11-1-0.15-1.56-0.15H319.43z M308.74,142.85
		L308.74,142.85l-2.91,14.55h7.29l0.25-1.27h-5.88l1.12-5.54h5.33l0.25-1.26h-5.33l1.03-5.21h5.82l0.25-1.26H308.74z M298.43,142.85
		L298.43,142.85l-2.91,14.55h1.41l1.35-6.75h5.33l0.25-1.26h-5.33l1.05-5.27h5.8l0.25-1.26H298.43z M293.01,142.85L293.01,142.85
		l-2.91,14.55h1.41l2.91-14.55H293.01z M280.83,144.07L280.83,144.07h3.06c0.74,0,1.34,0.1,1.79,0.31c0.45,0.21,0.78,0.54,0.98,0.99
		c0.21,0.45,0.31,1.03,0.3,1.75c0,0.4-0.03,0.85-0.08,1.33c-0.06,0.48-0.14,0.98-0.24,1.49c-0.1,0.52-0.23,1.02-0.36,1.52
		c-0.14,0.5-0.3,0.97-0.46,1.41c-0.17,0.44-0.35,0.82-0.53,1.16c-0.23,0.43-0.52,0.8-0.87,1.11c-0.34,0.32-0.76,0.57-1.24,0.74
		c-0.48,0.18-1.06,0.27-1.73,0.27h-3.04L280.83,144.07z M279.65,142.85L279.65,142.85l-2.91,14.55h4.53c0.76,0,1.46-0.1,2.12-0.31
		c0.65-0.21,1.25-0.54,1.79-0.99c0.54-0.45,1.02-1.04,1.42-1.76c0.25-0.45,0.48-0.96,0.7-1.52c0.21-0.57,0.4-1.16,0.57-1.79
		c0.16-0.63,0.29-1.26,0.38-1.89c0.09-0.64,0.14-1.25,0.14-1.83c0-0.68-0.07-1.3-0.22-1.84c-0.15-0.55-0.4-1.01-0.74-1.4
		c-0.34-0.39-0.79-0.69-1.35-0.89c-0.56-0.21-1.25-0.31-2.07-0.31H279.65z M267.33,152.19L267.33,152.19h-4.91l3.94-7.89
		L267.33,152.19z M269.42,157.4L269.42,157.4l-1.92-14.55h-1.75l-7.42,14.55h1.5l2.02-4.03h5.61l0.48,4.03H269.42z M254.52,142.85
		L254.52,142.85h-8.68l-0.25,1.22h7.17l-9.63,11.81l-0.3,1.52h9.09l0.25-1.22h-7.63l9.7-11.81L254.52,142.85z M239.23,152.19
		L239.23,152.19l-0.97-7.89l-3.94,7.89H239.23z M241.32,157.4L241.32,157.4h-1.48l-0.49-4.03h-5.61l-2.02,4.03h-1.5l7.42-14.55h1.75
		L241.32,157.4z M224.35,142.85l-2.91,14.55h1.41l1.35-6.75h5.33l0.25-1.26h-5.33l1.05-5.27h5.8l0.25-1.26H224.35z"/>
</g>
</svg>
