<?xml version="1.0" encoding="utf-8"?>
<!-- Generator: Adobe Illustrator 24.1.2, SVG Export Plug-In . SVG Version: 6.00 Build 0)  -->
<svg version="1.1" id="Camada_1" xmlns="http://www.w3.org/2000/svg" xmlns:xlink="http://www.w3.org/1999/xlink" x="0px" y="0px"
	 viewBox="0 0 652.59 811.88" style="enable-background:new 0 0 652.59 811.88;" xml:space="preserve">
<style type="text/css">
	.st0{clip-path:url(#SVGID_2_);fill:none;stroke:#FFFFFF;stroke-width:2;stroke-miterlimit:10;}
</style>
<g>
	<defs>
		<rect id="SVGID_1_" width="652.59" height="811.88"/>
	</defs>
	<clipPath id="SVGID_2_">
		<use xlink:href="#SVGID_1_"  style="overflow:visible;"/>
	</clipPath>
	<path class="st0" d="M326.31,1C146.6,1,1,146.63,1,326.28c0,169.19,191.86,378.39,280.9,466.36c24.61,24.32,64.21,24.32,88.82,0
		c89.03-87.97,280.87-297.16,280.87-466.36C651.59,146.63,505.93,1,326.31,1 M326.31,520.05c-105.27,0-190.43-86.07-188.95-191.65
		c1.43-101.75,84.47-184.77,186.22-186.21c105.59-1.49,191.64,83.64,191.64,188.92C515.22,435.45,430.65,520.05,326.31,520.05"/>
</g>
</svg>
