<?xml version="1.0" encoding="utf-8"?>
<!-- Generator: Adobe Illustrator 24.1.2, SVG Export Plug-In . SVG Version: 6.00 Build 0)  -->
<svg version="1.1" id="Camada_1" xmlns="http://www.w3.org/2000/svg" xmlns:xlink="http://www.w3.org/1999/xlink" x="0px" y="0px"
	 viewBox="0 0 390.74 246.39" style="enable-background:new 0 0 390.74 246.39;" xml:space="preserve">
<style type="text/css">
	.st0{clip-path:url(#SVGID_2_);fill:#FA2F93;}
	.st1{clip-path:url(#SVGID_2_);fill:#6C6A69;}
	.st2{clip-path:url(#SVGID_2_);}
	.st3{fill:#474747;}
</style>
<g>
	<defs>
		<rect id="SVGID_1_" width="390.74" height="246.39"/>
	</defs>
	<clipPath id="SVGID_2_">
		<use xlink:href="#SVGID_1_"  style="overflow:visible;"/>
	</clipPath>
	<path class="st0" d="M46.17,92.67h12.74c0,17.48,13.47,26.76,31.86,26.76c15.66,0,28.22-8.37,28.22-22.03
		c0-13.84-13.47-19.84-28.58-25.49c-19.3-7.28-40.6-13.84-40.6-38.6C49.81,12.2,68.38,0,88.23,0c21.3,0,39.87,13.11,39.87,36.41
		h-12.74c0-15.66-11.65-24.03-27.13-24.03c-14.02,0-25.67,7.46-25.67,20.94c0,14.57,12.74,20.21,28.04,26.03
		c19.3,7.46,41.14,14.56,41.14,38.05c0,21.3-19.48,34.41-40.96,34.41C66.56,131.81,46.17,117.79,46.17,92.67"/>
	<polygon class="st0" points="191.81,50.25 172.88,50.25 172.88,129.62 160.86,129.62 160.86,50.25 141.75,50.25 141.75,38.59 
		160.86,38.59 160.86,9.47 172.88,9.47 172.88,38.59 191.81,38.59 	"/>
	<path class="st0" d="M273.73,70.46v59.17h-12.02v-10.19c-6.19,8.74-16.57,12.38-28.22,12.38c-16.75,0-32.59-9.65-32.59-29.31
		c0-19.66,15.84-29.31,32.59-29.31c11.65,0,22.03,4,28.22,11.83V70.46c0-16.38-10.92-22.39-22.58-22.39
		c-11.65,0-22.57,6.01-22.57,18.75h-12.02c0-17.48,14.2-30.4,34.59-30.4C259.53,36.41,273.73,49.34,273.73,70.46 M261.72,102.5
		c0-11.11-10.74-18.02-25.31-18.02c-16.2,0-23.49,7.65-23.49,18.02c0,10.38,7.28,18.02,23.49,18.02
		C250.98,120.52,261.72,112.87,261.72,102.5"/>
	<polygon class="st0" points="366.21,38.6 314.15,181.75 301.4,181.75 321.25,128.89 284.29,38.6 297.03,38.6 327.25,112.15 
		353.47,38.6 	"/>
	<polygon class="st1" points="183.05,180.74 175.93,180.74 175.93,177.44 174.14,177.44 174.14,185.83 175.93,185.83 175.93,182.52 
		183.05,182.52 183.05,185.83 184.83,185.83 184.82,177.44 183.05,177.44 	"/>
	<path class="st1" d="M246.38,180.74l-5.6,0c-0.42,0-0.76-0.34-0.76-0.76s0.34-0.76,0.76-0.76l8.15,0v-1.78l-8.15,0
		c-1.4,0-2.54,1.14-2.54,2.54s1.14,2.54,2.54,2.54l5.6,0c0.42,0,0.77,0.34,0.77,0.76c0,0.42-0.34,0.77-0.77,0.77h-8.14l0,1.78
		l8.14,0c1.41,0,2.54-1.14,2.54-2.54C248.92,181.88,247.78,180.74,246.38,180.74"/>
	<rect x="259.61" y="177.44" class="st1" width="1.78" height="8.39"/>
	<path class="st1" d="M225.78,177.44l0,5.4c0,0.66-0.54,1.2-1.2,1.2l-4.71,0c-0.66,0-1.2-0.54-1.2-1.2l0-5.32l0-0.08h-1.78
		l0.01,5.58c0,0.38,0.07,0.75,0.22,1.08c0.15,0.33,0.35,0.63,0.62,0.88c0.13,0.12,0.26,0.24,0.41,0.34c0.15,0.1,0.31,0.19,0.47,0.26
		c0.17,0.07,0.34,0.13,0.52,0.17c0.18,0.04,0.37,0.06,0.56,0.06h5.08c0.19,0,0.38-0.02,0.56-0.06c0.18-0.04,0.35-0.1,0.52-0.17
		c0.16-0.07,0.32-0.16,0.47-0.26c0.15-0.1,0.29-0.22,0.41-0.34c0.26-0.26,0.47-0.55,0.61-0.88c0.15-0.33,0.22-0.7,0.22-1.08v-5.58
		L225.78,177.44z"/>
	<path class="st1" d="M205.97,179.16c-0.15-0.33-0.35-0.63-0.62-0.88c-0.13-0.12-0.26-0.24-0.41-0.34c-0.15-0.1-0.31-0.19-0.47-0.26
		c-0.17-0.07-0.34-0.13-0.52-0.17c-0.18-0.04-0.37-0.06-0.56-0.06h-5.08c-0.19,0-0.38,0.02-0.56,0.06c-0.18,0.04-0.36,0.1-0.52,0.17
		c-0.16,0.07-0.32,0.16-0.47,0.26c-0.15,0.1-0.29,0.22-0.41,0.34c-0.26,0.25-0.47,0.55-0.61,0.88c-0.15,0.33-0.22,0.7-0.22,1.08
		l0,0.78h-0.01l0,0.82l0,1.09h0.01v0.1c0,0.39,0.07,0.75,0.22,1.08c0.14,0.33,0.35,0.63,0.61,0.88c0.13,0.12,0.26,0.24,0.41,0.34
		c0.15,0.1,0.31,0.19,0.47,0.26c0.16,0.07,0.34,0.13,0.52,0.17c0.18,0.04,0.37,0.06,0.56,0.06h5.08c0.19,0,0.38-0.02,0.56-0.06
		c0.18-0.04,0.35-0.1,0.52-0.17c0.16-0.07,0.32-0.16,0.47-0.26c0.15-0.1,0.29-0.21,0.41-0.34c0.26-0.25,0.47-0.55,0.62-0.88
		c0.14-0.33,0.22-0.7,0.22-1.08v-0.1v-1.91v-0.78C206.19,179.85,206.12,179.49,205.97,179.16 M203.21,184.05l-4.71,0
		c-0.66,0-1.19-0.53-1.2-1.18v-0.9l0-0.87l0-0.03l0-0.65c0-0.66,0.54-1.2,1.2-1.2l4.71,0c0.66,0,1.2,0.54,1.2,1.2l0,1.41l0,1.03
		C204.41,183.51,203.87,184.05,203.21,184.05"/>
	<path class="st1" d="M151.61,177.46c1.61,0,2.54,0.91,2.54,2.24c0,0.9-0.52,1.57-1.28,1.85c0.91,0.23,1.55,1.08,1.55,2.05
		c0,1.32-1.04,2.26-2.58,2.26h-2.65v-8.39H151.61z M151.8,181.28c0.92,0,1.6-0.64,1.6-1.54c0-0.99-0.67-1.62-1.86-1.62h-1.6v3.16
		H151.8z M151.78,185.19c1.15,0,1.89-0.64,1.89-1.64c0-0.95-0.7-1.61-1.74-1.61h-1.99v3.25H151.78z"/>
	<polygon class="st1" points="156.86,177.46 157.76,177.46 160.2,181.57 162.62,177.46 163.48,177.46 160.54,182.26 160.54,185.85 
		159.81,185.85 159.81,182.26 	"/>
	<path class="st1" d="M133.01,162.01v7.09h-1.49v-16.75h5.51c3.1,0,5.13,2.08,5.13,4.84s-2.03,4.82-5.13,4.82H133.01z
		 M136.79,160.66c2.39,0,3.85-1.39,3.85-3.47s-1.46-3.5-3.85-3.5h-3.78v6.97H136.79z"/>
	<path class="st1" d="M159.02,152.04c4.09,0,8.2,3.1,8.2,8.7s-4.11,8.67-8.2,8.67c-4.11,0-8.18-3.07-8.18-8.67
		S154.91,152.04,159.02,152.04 M159.02,168.03c3.4,0,6.69-2.53,6.69-7.3c0-4.8-3.28-7.33-6.69-7.33c-3.43,0-6.66,2.53-6.66,7.33
		C152.36,165.51,155.6,168.03,159.02,168.03"/>
	<polygon class="st1" points="195.58,152.34 197.12,152.34 192.3,169.1 190.67,169.1 185.99,154.3 181.31,169.1 179.75,169.1 
		174.86,152.34 176.42,152.34 180.58,166.9 185.18,152.34 186.82,152.34 191.47,167 	"/>
	<polygon class="st1" points="206.5,169.1 206.5,152.34 216.38,152.34 216.38,153.71 207.99,153.71 207.99,160.02 215.65,160.02 
		215.65,161.39 207.99,161.39 207.99,167.73 216.38,167.73 216.38,169.1 	"/>
	<path class="st1" d="M231.62,161.87h-3.5v7.23h-1.51v-16.76h5.86c3,0,4.99,2.06,4.99,4.77c0,2.43-1.65,4.32-4.21,4.63l4.16,7.35
		h-1.75L231.62,161.87z M232.21,160.5c2.24,0,3.71-1.32,3.71-3.38c0-2.08-1.46-3.43-3.71-3.43h-4.09v6.81H232.21z"/>
	<polygon class="st1" points="247.57,169.1 247.57,152.34 257.45,152.34 257.45,153.71 249.06,153.71 249.06,160.02 256.72,160.02 
		256.72,161.39 249.06,161.39 249.06,167.73 257.45,167.73 257.45,169.1 	"/>
	<path class="st1" d="M267.68,169.1v-16.76h5.22c4.25,0,7.96,2.93,7.96,8.41c0,5.48-3.76,8.34-8.01,8.34H267.68z M272.81,167.77
		c3.47,0,6.52-2.34,6.52-7.02c0-4.7-2.98-7.09-6.47-7.09h-3.69v14.11H272.81z"/>
	<g class="st2">
		<path class="st3" d="M1.94,235.29v-10.54h3.18v10.31c0,2.14,1.17,3.27,3.08,3.27c1.93,0,3.11-1.13,3.11-3.27v-10.31h3.18v10.54
			c0,4-2.78,6.14-6.28,6.14C4.72,241.43,1.94,239.29,1.94,235.29z"/>
		<path class="st3" d="M33.92,241.06v-11.44l-4.69,11.44h-2.65l-4.69-11.34v11.34h-3.04v-16.31h4.19l4.9,11.78l4.79-11.78h4.33
			v16.31H33.92z"/>
		<path class="st3" d="M47.58,241.06v-16.31h3.22v16.31H47.58z"/>
		<path class="st3" d="M65.92,241.06l-7.41-11.57v11.57h-3.18v-16.31h3.96l6.79,10.79v-10.79h3.18v16.31H65.92z"/>
		<path class="st3" d="M84.15,224.75h3.36l-6.05,16.31h-3.27l-6.03-16.31h3.47l4.26,12.13L84.15,224.75z"/>
		<path class="st3" d="M90.41,241.06v-16.31h10.22v2.99h-7.04v3.73h6.37v2.83h-6.37v3.77h7.04v2.99H90.41z"/>
		<path class="st3" d="M112.71,229.51c-0.18-0.92-0.85-2.3-2.97-2.3c-1.54,0-2.55,0.99-2.55,2.07c0,0.9,0.58,1.59,1.77,1.84
			l2.28,0.44c2.95,0.55,4.56,2.53,4.56,4.81c0,2.51-2.12,5.04-5.89,5.04c-4.33,0-6.24-2.78-6.49-5.11l2.95-0.78
			c0.11,1.59,1.27,3.06,3.57,3.06c1.73,0,2.65-0.83,2.65-2c0-0.94-0.69-1.68-1.98-1.93l-2.28-0.46c-2.6-0.53-4.28-2.19-4.28-4.67
			c0-2.88,2.6-5.11,5.68-5.11c3.93,0,5.48,2.39,5.84,4.23L112.71,229.51z"/>
		<path class="st3" d="M126.04,227.76v13.3h-3.2v-13.3h-5.15v-3.01h13.51v3.01H126.04z"/>
		<path class="st3" d="M134.23,241.06v-16.31h3.22v16.31H134.23z"/>
		<path class="st3" d="M157.04,241.06v-11.44l-4.69,11.44h-2.65l-4.69-11.34v11.34h-3.04v-16.31h4.19l4.9,11.78l4.79-11.78h4.33
			v16.31H157.04z"/>
		<path class="st3" d="M164.69,241.06v-16.31h10.22v2.99h-7.04v3.73h6.37v2.83h-6.37v3.77h7.04v2.99H164.69z"/>
		<path class="st3" d="M189.45,241.06l-7.41-11.57v11.57h-3.18v-16.31h3.96l6.79,10.79v-10.79h3.18v16.31H189.45z"/>
		<path class="st3" d="M204.18,227.76v13.3h-3.2v-13.3h-5.15v-3.01h13.51v3.01H204.18z"/>
		<path class="st3" d="M219.19,224.4c4.44,0,8.4,3.24,8.4,8.51c0,5.25-3.96,8.49-8.4,8.49c-4.42,0-8.38-3.24-8.38-8.49
			C210.81,227.65,214.77,224.4,219.19,224.4z M219.19,238.32c2.53,0,5.11-1.75,5.11-5.43s-2.58-5.43-5.11-5.43
			c-2.51,0-5.09,1.75-5.09,5.43S216.68,238.32,219.19,238.32z"/>
		<path class="st3" d="M237.19,241.06v-16.31h3.22v16.31H237.19z"/>
		<path class="st3" d="M255.5,241.06l-7.41-11.57v11.57h-3.17v-16.31h3.96l6.79,10.79v-10.79h3.18v16.31H255.5z"/>
		<path class="st3" d="M270.24,227.76v13.3h-3.2v-13.3h-5.15v-3.01h13.51v3.01H270.24z"/>
		<path class="st3" d="M278.43,241.06v-16.31h10.22v2.99h-7.04v3.73h6.37v2.83h-6.37v3.77h7.04v2.99H278.43z"/>
		<path class="st3" d="M292.61,241.06v-16.31h3.17v13.28h7.27v3.04H292.61z"/>
		<path class="st3" d="M306.31,241.06v-16.31h3.22v16.31H306.31z"/>
		<path class="st3" d="M326.23,241.06l-0.21-1.86c-0.74,1.13-2.35,2.21-4.81,2.21c-4.39,0-8.15-3.22-8.15-8.49s3.93-8.51,8.35-8.51
			c4.3,0,6.65,2.51,7.46,5.02l-3.04,1.08c-0.41-1.45-1.77-3.13-4.42-3.13c-2.46,0-5.13,1.68-5.13,5.55c0,3.68,2.42,5.59,5.15,5.59
			c3.04,0,4.19-2,4.37-3.18h-5.15v-2.76h8.15v8.49H326.23z"/>
		<path class="st3" d="M332.8,241.06v-16.31h10.22v2.99h-7.04v3.73h6.37v2.83h-6.37v3.77h7.04v2.99H332.8z"/>
		<path class="st3" d="M357.58,241.06l-7.41-11.57v11.57H347v-16.31h3.96l6.79,10.79v-10.79h3.18v16.31H357.58z"/>
		<path class="st3" d="M372.31,227.76v13.3h-3.2v-13.3h-5.15v-3.01h13.51v3.01H372.31z"/>
		<path class="st3" d="M380.51,241.06v-16.31h10.22v2.99h-7.04v3.73h6.37v2.83h-6.37v3.77h7.04v2.99H380.51z"/>
	</g>
</g>
</svg>
