<?xml version="1.0" encoding="utf-8"?>
<!-- Generator: Adobe Illustrator 24.1.2, SVG Export Plug-In . SVG Version: 6.00 Build 0)  -->
<svg version="1.1" xmlns="http://www.w3.org/2000/svg" xmlns:xlink="http://www.w3.org/1999/xlink" x="0px" y="0px"
	 viewBox="0 0 120 120" style="enable-background:new 0 0 120 120;" xml:space="preserve">
<style type="text/css">
	.st0{opacity:0.07;}
	.st1{fill:#FFFFFF;}
	.st2{fill:#0F4B93;}
	.st3{fill:#0D3F85;}
	.st4{fill:#EB9839;}
	.st5{fill:#CACACA;}
	.st6{fill:#76787A;}
	.st7{clip-path:url(#SVGID_2_);}
	.st8{opacity:0.18;fill:#76787A;}
	.st9{fill:#E9E9EC;}
	.st10{fill:none;stroke:#FFFFFF;stroke-width:1.5;stroke-miterlimit:10;}
	.st11{fill:none;stroke:#3C3C3B;stroke-width:2;stroke-miterlimit:10;}
	.st12{fill:#00973A;}
	.st13{fill:#FADB00;}
	.st14{fill:#002776;}
	.st15{clip-path:url(#SVGID_4_);}
	.st16{fill:none;stroke:#FFFFFF;stroke-width:0.75;stroke-linecap:round;stroke-linejoin:round;stroke-miterlimit:10;}
	.st17{opacity:0.5;}
	.st18{fill:none;stroke:#0F4B93;stroke-width:3;stroke-linecap:round;stroke-linejoin:round;stroke-miterlimit:10;}
	.st19{clip-path:url(#SVGID_22_);}
	.st20{clip-path:url(#SVGID_24_);}
	.st21{fill:none;stroke:#76787A;stroke-width:0.5;stroke-miterlimit:10;}
	.st22{clip-path:url(#SVGID_26_);}
	.st23{clip-path:url(#SVGID_28_);}
	.st24{clip-path:url(#SVGID_30_);}
	.st25{clip-path:url(#SVGID_32_);}
	.st26{fill:url(#SVGID_35_);}
	.st27{fill:url(#SVGID_36_);}
	.st28{opacity:0.05;}
	.st29{opacity:0.7;}
	.st30{fill:none;stroke:#EB9839;stroke-width:1.5;stroke-miterlimit:10;}
	.st31{fill:#FFFFFF;stroke:#0D3F85;stroke-width:1.5;stroke-miterlimit:10;}
	.st32{fill:url(#SVGID_37_);}
	.st33{fill:none;stroke:#FFFFFF;stroke-width:0.75;stroke-miterlimit:10;}
</style>
<g id="encontre_seu_imóvel">
</g>
<g id="imóveis_em_destaque">
</g>
<g id="simule_um_financiamento">
</g>
<g id="anuncie_x2C__encontre_x2C__fale_conosco">
	<g>
		<path class="st3" d="M77.03,50.18C77.03,50.18,77.03,50.18,77.03,50.18c-0.69,0-1.25-0.56-1.25-1.25
			c0.01-5.73-1.45-10.09-4.32-12.97c-2.69-2.7-6.58-4.06-11.54-4.06c-4.96,0-8.85,1.37-11.54,4.06c-2.88,2.88-4.33,7.24-4.32,12.97
			c0,0.69-0.56,1.25-1.25,1.25c0,0,0,0,0,0c-0.69,0-1.25-0.56-1.25-1.25c-0.01-6.42,1.69-11.38,5.05-14.74
			c3.18-3.18,7.66-4.8,13.31-4.8s10.13,1.61,13.31,4.8c3.36,3.37,5.06,8.33,5.05,14.74C78.28,49.62,77.72,50.18,77.03,50.18z"/>
		<path class="st3" d="M59.92,76.74c-7.49,0-18.36-10.84-18.36-27.82c0-0.69,0.56-1.25,1.25-1.25s1.25,0.56,1.25,1.25
			c0,15.22,9.55,25.32,15.86,25.32c6.65,0,15.86-8.8,15.86-25.32c0-0.69,0.56-1.25,1.25-1.25s1.25,0.56,1.25,1.25
			C78.28,67.9,67.33,76.74,59.92,76.74z"/>
		<path class="st3" d="M49.26,47.61c-0.01,0-0.02,0-0.03,0c-0.69-0.02-1.23-0.58-1.22-1.26c0-0.13,0.08-3.15,2.82-5.09
			c2.92-2.07,7.58-2.04,13.85,0.06c3.42,1.15,5.9,1.18,7.16,0.1c1.52-1.31,1.06-4.02,1.06-4.05c-0.12-0.68,0.33-1.33,1.01-1.45
			c0.67-0.12,1.32,0.32,1.45,1c0.03,0.17,0.72,4.13-1.87,6.38c-2,1.73-5.23,1.86-9.6,0.39c-6.78-2.28-10.03-1.48-11.57-0.42
			c-1.71,1.19-1.79,3.04-1.8,3.12C50.49,47.07,49.93,47.61,49.26,47.61z"/>
		<path class="st3" d="M26.11,91.16c-0.47,0-0.92-0.27-1.13-0.72c-0.29-0.63-0.02-1.37,0.6-1.66c6.7-3.14,17.1-4.73,20.92-4.85
			c3.11-0.1,3.34-6.22,3.5-10.28c0.02-0.6,0.04-1.17,0.07-1.69c0.04-0.69,0.61-1.22,1.32-1.18c0.69,0.04,1.22,0.63,1.18,1.32
			c-0.03,0.51-0.05,1.07-0.07,1.65c-0.19,4.98-0.48,12.51-5.92,12.68c-3.88,0.12-13.86,1.76-19.94,4.61
			C26.47,91.12,26.29,91.16,26.11,91.16z"/>
		<path class="st3" d="M93.89,91.24c-0.18,0-0.36-0.04-0.54-0.12c-6.07-2.89-16.15-4.56-20.09-4.68c-5.44-0.17-5.73-7.7-5.92-12.68
			c-0.02-0.59-0.04-1.14-0.07-1.65c-0.04-0.69,0.49-1.28,1.18-1.32c0.72-0.04,1.28,0.49,1.32,1.18c0.03,0.52,0.05,1.09,0.07,1.69
			c0.16,4.05,0.39,10.18,3.5,10.28c3.89,0.12,14.4,1.73,21.09,4.93c0.62,0.3,0.89,1.04,0.59,1.67
			C94.81,90.98,94.36,91.24,93.89,91.24z"/>
		<path class="st3" d="M59.92,95.53c-7.83,0-14.52-4-16.28-9.73c-0.2-0.66,0.17-1.36,0.83-1.56c0.66-0.2,1.36,0.17,1.56,0.83
			c1.41,4.61,7.25,7.96,13.89,7.96s12.47-3.35,13.89-7.96c0.2-0.66,0.9-1.03,1.56-0.83c0.66,0.2,1.03,0.9,0.83,1.56
			C74.44,91.53,67.75,95.53,59.92,95.53z"/>
		<path class="st3" d="M82.59,60.46c-0.69,0-1.25-0.56-1.25-1.25V42.2c0-8.4-6.83-15.23-15.23-15.23H54.01
			c-8.4,0-15.23,6.83-15.23,15.23v17.01c0,0.69-0.56,1.25-1.25,1.25s-1.25-0.56-1.25-1.25V42.2c0-9.77,7.95-17.73,17.73-17.73h12.11
			c9.77,0,17.73,7.95,17.73,17.73v17.01C83.84,59.9,83.29,60.46,82.59,60.46z"/>
		<path class="st3" d="M42.68,74.46c-0.16,0-0.32-0.03-0.47-0.09c-6.72-2.73-11.07-9.18-11.07-16.43c0-0.69,0.56-1.25,1.25-1.25
			s1.25,0.56,1.25,1.25c0,6.23,3.73,11.77,9.51,14.12c0.64,0.26,0.95,0.99,0.69,1.63C43.64,74.16,43.17,74.46,42.68,74.46z"/>
		<path class="st3" d="M37.54,60.46c-4.89,0-8.88-3.98-8.88-8.88s3.98-8.88,8.88-8.88c0.69,0,1.25,0.56,1.25,1.25
			s-0.56,1.25-1.25,1.25c-3.52,0-6.38,2.86-6.38,6.38s2.86,6.38,6.38,6.38c0.69,0,1.25,0.56,1.25,1.25S38.23,60.46,37.54,60.46z"/>
		<path class="st3" d="M82.59,60.46c-0.69,0-1.25-0.56-1.25-1.25s0.56-1.25,1.25-1.25c3.52,0,6.38-2.86,6.38-6.38
			s-2.86-6.38-6.38-6.38c-0.69,0-1.25-0.56-1.25-1.25s0.56-1.25,1.25-1.25c4.89,0,8.88,3.98,8.88,8.88S87.49,60.46,82.59,60.46z"/>
	</g>
</g>
<g id="bairros_mais_procurados">
</g>
<g id="modelos_mais_buscados">
</g>
<g id="footer">
</g>
<g id="Layer_3">
</g>
</svg>
