<?xml version="1.0" encoding="utf-8"?>
<!-- Generator: Adobe Illustrator 24.1.2, SVG Export Plug-In . SVG Version: 6.00 Build 0)  -->
<svg version="1.1" xmlns="http://www.w3.org/2000/svg" xmlns:xlink="http://www.w3.org/1999/xlink" x="0px" y="0px"
	 viewBox="0 0 50 50" style="enable-background:new 0 0 50 50;" xml:space="preserve">
<style type="text/css">
	.st0{opacity:0.07;}
	.st1{fill:#FFFFFF;}
	.st2{fill:#0F4B93;}
	.st3{fill:#0D3F85;}
	.st4{fill:#EB9839;}
	.st5{fill:#CACACA;}
	.st6{fill:#76787A;}
	.st7{clip-path:url(#SVGID_2_);}
	.st8{opacity:0.18;fill:#76787A;}
	.st9{fill:#E9E9EC;}
	.st10{fill:none;stroke:#FFFFFF;stroke-width:1.5;stroke-miterlimit:10;}
	.st11{fill:none;stroke:#3C3C3B;stroke-width:2;stroke-miterlimit:10;}
	.st12{fill:#00973A;}
	.st13{fill:#FADB00;}
	.st14{fill:#002776;}
	.st15{clip-path:url(#SVGID_4_);}
	.st16{fill:none;stroke:#FFFFFF;stroke-width:0.75;stroke-linecap:round;stroke-linejoin:round;stroke-miterlimit:10;}
	.st17{opacity:0.5;}
	.st18{fill:none;stroke:#0F4B93;stroke-width:3;stroke-linecap:round;stroke-linejoin:round;stroke-miterlimit:10;}
	.st19{clip-path:url(#SVGID_22_);}
	.st20{clip-path:url(#SVGID_24_);}
	.st21{fill:none;stroke:#76787A;stroke-width:0.5;stroke-miterlimit:10;}
	.st22{clip-path:url(#SVGID_26_);}
	.st23{clip-path:url(#SVGID_28_);}
	.st24{clip-path:url(#SVGID_30_);}
	.st25{clip-path:url(#SVGID_32_);}
	.st26{fill:url(#SVGID_35_);}
	.st27{fill:url(#SVGID_36_);}
	.st28{opacity:0.05;}
	.st29{opacity:0.7;}
	.st30{fill:none;stroke:#EB9839;stroke-width:1.5;stroke-miterlimit:10;}
	.st31{fill:#FFFFFF;stroke:#0D3F85;stroke-width:1.5;stroke-miterlimit:10;}
	.st32{fill:url(#SVGID_37_);}
	.st33{fill:none;stroke:#FFFFFF;stroke-width:0.75;stroke-miterlimit:10;}
</style>
<g id="encontre_seu_imóvel">
</g>
<g id="imóveis_em_destaque">
	<g>
		<path class="st2" d="M36.89,23.18v-5.86c0-0.7-0.57-1.27-1.27-1.27c-0.7,0-1.27,0.57-1.27,1.27v0.65
			c-0.25-0.16-0.49-0.34-0.72-0.52c-1.7-1.3-3.7-2.16-5.76-2.49c-0.86-0.14-4.54-0.14-5.39,0c-2.06,0.34-4.05,1.2-5.76,2.49
			c-0.27,0.21-0.54,0.4-0.78,0.56c-0.21,0.14-0.27,0.43-0.13,0.65c0.14,0.21,0.43,0.27,0.65,0.13l0.09-0.06
			c0.24-0.16,0.49-0.34,0.74-0.53c1.58-1.2,3.42-2,5.34-2.31c0.74-0.12,4.36-0.12,5.09,0c1.92,0.31,3.76,1.11,5.34,2.31
			c0.4,0.31,0.82,0.6,1.29,0.88v3.13c0,0.26,0.22,0.47,0.47,0.47c0.26,0,0.47-0.22,0.47-0.47v-4.89c0-0.18,0.16-0.34,0.34-0.34
			c0.18,0,0.34,0.15,0.34,0.34v5.54c-0.12-0.02-0.24-0.03-0.36-0.03h-1.74c0.07-0.18,0.11-0.37,0.11-0.57
			c0-1.36-1.11-2.47-2.47-2.47h-4.68c-0.83,0-1.5,0.67-1.5,1.5c0,0.56,0.19,1.09,0.53,1.52h-1.69c0.34-0.43,0.53-0.97,0.53-1.52
			c0-0.83-0.67-1.5-1.5-1.5H18.5c-1.36,0-2.47,1.11-2.47,2.47c0,0.2,0.04,0.39,0.11,0.57h-0.5v-5.52c0-0.7-0.57-1.27-1.27-1.27
			c-0.7,0-1.27,0.57-1.27,1.27v5.86c-0.83,0.47-1.34,1.34-1.34,2.3v9.19c0,0.26,0.22,0.47,0.47,0.47h1.46
			c0.24,0,0.44-0.18,0.47-0.43c0-0.03,0.25-2.55,2.4-3l16.83,0c2.19,0.46,2.44,2.98,2.44,3.01c0.03,0.24,0.23,0.42,0.47,0.42h1.46
			c0.26,0,0.47-0.22,0.47-0.47v-9.19C38.23,24.52,37.71,23.65,36.89,23.18z M37.3,31.72v2.49h-0.61c-0.13-0.59-0.48-1.68-1.33-2.49
			H37.3z M14.64,31.72c-0.86,0.81-1.2,1.91-1.34,2.49H12.7v-2.49H14.64z M37.3,29.65v1.13H12.7v-1.13H37.3z M26.25,21.3
			c0-0.31,0.25-0.57,0.57-0.57h4.68c0.84,0,1.52,0.68,1.52,1.52c0,0.31-0.25,0.57-0.57,0.57h-4.68c-0.39,0.01-0.78-0.15-1.07-0.44
			C26.41,22.1,26.25,21.71,26.25,21.3z M18.5,20.74h4.68c0.31,0,0.57,0.25,0.57,0.57c0,0.84-0.68,1.52-1.52,1.52h-4.69
			c-0.31,0-0.56-0.25-0.56-0.57C16.97,21.43,17.66,20.74,18.5,20.74z M37.3,25.48v3.23H12.7v-3.23c0-0.94,0.76-1.7,1.7-1.7h21.19
			C36.53,23.78,37.3,24.54,37.3,25.48z M14.05,22.86v-5.62c0.03-0.15,0.17-0.27,0.33-0.27c0.18,0,0.34,0.15,0.34,0.34v5.52h-0.31
			C14.29,22.83,14.17,22.84,14.05,22.86z"/>
	</g>
</g>
<g id="simule_um_financiamento">
</g>
<g id="anuncie_x2C__encontre_x2C__fale_conosco">
</g>
<g id="bairros_mais_procurados">
</g>
<g id="modelos_mais_buscados">
</g>
<g id="footer">
</g>
<g id="Layer_3">
</g>
</svg>
