<?xml version="1.0" encoding="utf-8"?>
<!-- Generator: Adobe Illustrator 24.1.2, SVG Export Plug-In . SVG Version: 6.00 Build 0)  -->
<svg version="1.1" xmlns="http://www.w3.org/2000/svg" xmlns:xlink="http://www.w3.org/1999/xlink" x="0px" y="0px"
	 viewBox="0 0 50 50" style="enable-background:new 0 0 50 50;" xml:space="preserve">
<style type="text/css">
	.st0{opacity:0.07;}
	.st1{fill:#FFFFFF;}
	.st2{fill:#0F4B93;}
	.st3{fill:#0D3F85;}
	.st4{fill:#EB9839;}
	.st5{fill:#CACACA;}
	.st6{fill:#76787A;}
	.st7{clip-path:url(#SVGID_2_);}
	.st8{opacity:0.18;fill:#76787A;}
	.st9{fill:#E9E9EC;}
	.st10{fill:none;stroke:#FFFFFF;stroke-width:1.5;stroke-miterlimit:10;}
	.st11{fill:none;stroke:#3C3C3B;stroke-width:2;stroke-miterlimit:10;}
	.st12{fill:#00973A;}
	.st13{fill:#FADB00;}
	.st14{fill:#002776;}
	.st15{clip-path:url(#SVGID_4_);}
	.st16{fill:none;stroke:#FFFFFF;stroke-width:0.75;stroke-linecap:round;stroke-linejoin:round;stroke-miterlimit:10;}
	.st17{opacity:0.5;}
	.st18{fill:none;stroke:#0F4B93;stroke-width:3;stroke-linecap:round;stroke-linejoin:round;stroke-miterlimit:10;}
	.st19{clip-path:url(#SVGID_22_);}
	.st20{clip-path:url(#SVGID_24_);}
	.st21{fill:none;stroke:#76787A;stroke-width:0.5;stroke-miterlimit:10;}
	.st22{clip-path:url(#SVGID_26_);}
	.st23{clip-path:url(#SVGID_28_);}
	.st24{clip-path:url(#SVGID_30_);}
	.st25{clip-path:url(#SVGID_32_);}
	.st26{fill:url(#SVGID_35_);}
	.st27{fill:url(#SVGID_36_);}
	.st28{opacity:0.05;}
	.st29{opacity:0.7;}
	.st30{fill:none;stroke:#EB9839;stroke-width:1.5;stroke-miterlimit:10;}
	.st31{fill:#FFFFFF;stroke:#0D3F85;stroke-width:1.5;stroke-miterlimit:10;}
	.st32{fill:url(#SVGID_37_);}
	.st33{fill:none;stroke:#FFFFFF;stroke-width:0.75;stroke-miterlimit:10;}
</style>
<g id="encontre_seu_imóvel">
</g>
<g id="imóveis_em_destaque">
	<g>
		<g>
			<path class="st2" d="M33.81,35.82c0.14,0.62,0.27,1.24,0.41,1.87c0.08,0.38-0.07,0.57-0.45,0.58c-0.41,0.01-0.82,0-1.23,0
				c-0.23,0-0.38-0.1-0.49-0.3c-0.32-0.62-0.66-1.22-0.98-1.85c-0.11-0.21-0.24-0.28-0.47-0.28c-3.74,0.01-7.47,0.01-11.21,0
				c-0.22,0-0.35,0.05-0.45,0.26c-0.3,0.61-0.64,1.19-0.95,1.8c-0.14,0.27-0.32,0.38-0.62,0.37c-0.38-0.02-0.76,0-1.14-0.01
				c-0.37-0.01-0.52-0.2-0.44-0.56c0.14-0.63,0.27-1.25,0.41-1.86c-0.02-0.03-0.02-0.05-0.04-0.06c-0.79-0.26-1.23-0.8-1.42-1.6
				c-0.52-2.09-1.06-4.17-1.6-6.26c-0.02-0.08-0.04-0.16-0.07-0.26c-0.29,0-0.56,0-0.84,0c-0.33-0.01-0.47-0.15-0.48-0.48
				c-0.01-0.38,0-0.76,0-1.14c0.01-0.95,0.64-1.58,1.6-1.59c0.64-0.01,1.28,0,1.92,0c0.1,0,0.2,0,0.3,0
				c0.05-0.19,0.08-0.37,0.14-0.53c0.36-1,1.06-1.61,2.11-1.81c0.13-0.03,0.21-0.04,0.23-0.21c0.13-1.3,0.96-2.25,2.18-2.55
				c1.19-0.29,2.37,0.21,3.07,1.29c0.02,0.03,0.04,0.06,0.08,0.11c0.57-0.17,1.13-0.15,1.66,0.16c0.53,0.3,0.85,0.77,0.98,1.34
				c0.31,0.04,0.61,0.04,0.9,0.11c0.99,0.26,1.63,0.89,1.89,1.89c0.04,0.15,0.08,0.22,0.25,0.22c1.83-0.01,3.66,0,5.49,0
				c0.04,0,0.07-0.01,0.15-0.02c0-0.1,0-0.2,0-0.3c0-0.78,0-1.56,0-2.34c0-0.56,0.06-0.62,0.62-0.64c0.04,0,0.09-0.01,0.15-0.02
				c0.01-0.09,0.01-0.17,0.01-0.25c0-2.31,0-4.63,0-6.94c0-0.77-0.4-1.28-1.09-1.4c-0.37-0.06-0.71,0.03-0.99,0.27
				c-0.22,0.19-0.41,0.42-0.63,0.65c0.52,0.75,0.72,1.59,0.42,2.47c-0.14,0.41-0.4,0.79-0.65,1.15c-0.17,0.25-0.41,0.24-0.62,0.02
				c-1.13-1.12-2.25-2.24-3.37-3.37c-0.22-0.22-0.2-0.43,0.02-0.65c0.88-0.85,2.28-1,3.36-0.38c0.09,0.05,0.17,0.11,0.32,0.21
				c0.16-0.18,0.3-0.38,0.47-0.55c0.63-0.61,1.37-0.8,2.2-0.49c0.81,0.31,1.25,0.93,1.33,1.8c0.01,0.12,0.01,0.24,0.01,0.36
				c0,2.25,0,4.5,0,6.75c0,0.11,0,0.22,0,0.34c0.06,0.01,0.09,0.02,0.12,0.03c0.59,0.02,0.65,0.08,0.65,0.67c0,0.8,0.01,1.6,0,2.4
				c0,0.18,0.04,0.27,0.23,0.34c0.62,0.21,0.99,0.74,1.01,1.39c0.01,0.42,0.01,0.84,0,1.25c-0.01,0.32-0.15,0.45-0.46,0.47
				c-0.02,0-0.04,0-0.06,0c-0.27,0.01-0.61-0.08-0.78,0.06c-0.17,0.14-0.17,0.49-0.24,0.75c-0.47,1.84-0.94,3.69-1.41,5.53
				C35.04,35.07,34.87,35.29,33.81,35.82z M13.89,27.68c0.02,0.11,0.04,0.2,0.06,0.28c0.51,2.01,1.02,4.01,1.53,6.02
				c0.21,0.8,0.58,1.09,1.41,1.09c3.87,0,7.73,0,11.6,0c1.56,0,3.12,0,4.68,0c0.75,0,1.13-0.3,1.32-1.02
				c0.52-2.04,1.04-4.08,1.57-6.12c0.02-0.07,0.03-0.15,0.04-0.24C28.68,27.68,21.3,27.68,13.89,27.68z M37.48,26.87
				c0-0.34,0.01-0.64,0-0.95c-0.01-0.28-0.15-0.51-0.42-0.61c-0.17-0.06-0.36-0.08-0.54-0.08c-7.68,0-15.35,0-23.03,0
				c-0.11,0-0.22,0-0.33,0.02c-0.32,0.06-0.56,0.24-0.6,0.57c-0.04,0.34-0.01,0.7-0.01,1.06C20.85,26.87,29.15,26.87,37.48,26.87z
				 M28.04,24.44c-0.04-0.13-0.06-0.23-0.11-0.33c-0.35-0.77-1.17-1.18-2.03-1.01c-0.48,0.1-0.61,0-0.64-0.48
				c-0.03-0.58-0.38-1.02-0.92-1.16c-0.31-0.08-0.6-0.04-0.89,0.11c-0.36,0.18-0.53,0.12-0.7-0.26c-0.04-0.09-0.09-0.18-0.14-0.27
				c-0.49-0.8-1.44-1.16-2.34-0.9c-0.93,0.27-1.5,1.1-1.47,2.12c0.02,0.5-0.06,0.58-0.56,0.59c-0.63,0.01-1.16,0.26-1.53,0.78
				c-0.16,0.23-0.25,0.51-0.4,0.81C20.28,24.44,24.14,24.44,28.04,24.44z M32.2,16.21c0.53-0.7,0.42-1.82-0.25-2.51
				c-0.68-0.7-1.79-0.82-2.54-0.29C30.33,14.34,31.26,15.27,32.2,16.21z M36.22,24.43c0-0.83,0-1.66,0-2.49c-0.26,0-0.5,0-0.74,0
				c0,0.83,0,1.65,0,2.49C35.73,24.43,35.97,24.43,36.22,24.43z M31.8,35.85c0.3,0.56,0.56,1.06,0.84,1.56
				c0.02,0.04,0.1,0.07,0.16,0.08c0.18,0.01,0.36,0,0.57,0c-0.12-0.53-0.22-1.01-0.34-1.5c-0.01-0.05-0.08-0.13-0.13-0.14
				C32.56,35.84,32.21,35.85,31.8,35.85z M16.63,37.46c0.66,0.08,0.66,0.08,0.95-0.46c0.12-0.23,0.25-0.46,0.37-0.69
				c0.07-0.14,0.14-0.29,0.23-0.45c-0.42,0-0.8,0-1.19,0C16.86,36.4,16.75,36.92,16.63,37.46z"/>
		</g>
	</g>
</g>
<g id="simule_um_financiamento">
</g>
<g id="anuncie_x2C__encontre_x2C__fale_conosco">
</g>
<g id="bairros_mais_procurados">
</g>
<g id="modelos_mais_buscados">
</g>
<g id="footer">
</g>
<g id="Layer_3">
</g>
</svg>
