<?xml version="1.0" encoding="utf-8"?>
<!-- Generator: Adobe Illustrator 24.1.2, SVG Export Plug-In . SVG Version: 6.00 Build 0)  -->
<svg version="1.1" id="Camada_1" xmlns="http://www.w3.org/2000/svg" xmlns:xlink="http://www.w3.org/1999/xlink" x="0px" y="0px"
	 viewBox="0 0 390.74 248.25" style="enable-background:new 0 0 390.74 248.25;" xml:space="preserve">
<style type="text/css">
	.st0{fill:#FA2F93;}
	.st1{clip-path:url(#SVGID_2_);fill:#FA2F93;}
	.st2{clip-path:url(#SVGID_2_);fill:#6C6A69;}
	.st3{clip-path:url(#SVGID_2_);}
	.st4{fill:#474747;}
</style>
<polygon class="st0" points="23.96,37.76 32.35,37.76 32.35,117.41 97.79,117.41 97.79,124.95 23.96,124.95 "/>
<rect x="136.58" y="37.76" class="st0" width="8.39" height="88.56"/>
<polygon class="st0" points="258.33,0 258.33,115.01 191.21,37.76 182.32,37.76 182.32,167.58 190.71,167.58 190.71,50.26 
	257.49,126.32 266.72,126.32 266.72,0 "/>
<g>
	<defs>
		<rect id="SVGID_1_" width="390.74" height="248.25"/>
	</defs>
	<clipPath id="SVGID_2_">
		<use xlink:href="#SVGID_1_"  style="overflow:visible;"/>
	</clipPath>
	<path class="st1" d="M330.16,85.55l-26.68,29.81v10.96h-8.39V37.76h8.39v65.95l59.06-65.95h10.23l-36.07,40.6
		c9.23,27.24,20.64,40.94,36.58,40.94c5.03,0,10.07-1.37,12.75-2.74l3.52,7.19c-3.02,1.54-9.56,3.77-16.44,3.77
		C357.34,127.51,341.9,116.89,330.16,85.55"/>
	<polygon class="st2" points="270.36,180.98 263.24,180.98 263.24,177.68 261.46,177.68 261.46,186.07 263.24,186.07 263.24,182.76 
		270.36,182.76 270.36,186.07 272.14,186.07 272.14,177.68 270.36,177.68 	"/>
	<path class="st2" d="M333.69,180.98l-5.6,0c-0.42,0-0.76-0.34-0.76-0.76s0.34-0.76,0.76-0.76l8.15,0v-1.78l-8.14,0
		c-1.4,0-2.54,1.14-2.54,2.54s1.14,2.54,2.54,2.54l5.6,0c0.42,0,0.77,0.34,0.77,0.77c0,0.42-0.34,0.77-0.77,0.77h-8.14l0,1.78
		l8.14,0c1.41,0,2.54-1.14,2.54-2.54C336.24,182.12,335.1,180.98,333.69,180.98"/>
	<rect x="346.92" y="177.68" class="st2" width="1.78" height="8.39"/>
	<path class="st2" d="M313.09,177.69l0,5.4c0,0.66-0.54,1.2-1.2,1.2l-4.71,0c-0.66,0-1.2-0.54-1.2-1.2l0-5.32l0-0.08h-1.78
		l0.01,5.58c0,0.39,0.07,0.75,0.22,1.08s0.35,0.63,0.61,0.88c0.13,0.12,0.26,0.24,0.41,0.34c0.15,0.1,0.31,0.19,0.47,0.26
		c0.17,0.07,0.34,0.13,0.52,0.17c0.18,0.04,0.37,0.06,0.56,0.06h5.08c0.19,0,0.38-0.02,0.56-0.06c0.18-0.04,0.35-0.1,0.52-0.17
		c0.16-0.07,0.32-0.16,0.47-0.26c0.15-0.1,0.29-0.22,0.41-0.34c0.26-0.26,0.47-0.55,0.61-0.88c0.15-0.33,0.22-0.7,0.22-1.08v-5.58
		L313.09,177.69z"/>
	<path class="st2" d="M293.29,179.4c-0.15-0.33-0.35-0.63-0.61-0.88c-0.13-0.12-0.26-0.24-0.41-0.34c-0.15-0.1-0.31-0.19-0.47-0.26
		c-0.17-0.07-0.34-0.13-0.52-0.17c-0.18-0.04-0.37-0.06-0.56-0.06h-5.08c-0.19,0-0.38,0.02-0.56,0.06c-0.18,0.04-0.36,0.1-0.52,0.17
		c-0.17,0.07-0.32,0.16-0.47,0.26c-0.15,0.1-0.29,0.22-0.41,0.34c-0.26,0.25-0.47,0.55-0.61,0.88c-0.15,0.33-0.22,0.7-0.22,1.08
		l0,0.78h-0.01l0,0.82l0,1.09h0.01v0.1c0,0.39,0.07,0.75,0.22,1.08c0.14,0.33,0.35,0.63,0.61,0.88c0.13,0.12,0.26,0.24,0.41,0.34
		c0.15,0.1,0.31,0.19,0.47,0.26c0.16,0.07,0.34,0.13,0.52,0.17c0.18,0.04,0.37,0.06,0.56,0.06h5.08c0.19,0,0.38-0.02,0.56-0.06
		c0.18-0.04,0.35-0.1,0.52-0.17c0.17-0.07,0.32-0.16,0.47-0.26c0.15-0.1,0.29-0.22,0.41-0.34c0.26-0.25,0.47-0.55,0.61-0.88
		c0.14-0.33,0.22-0.7,0.22-1.08v-0.1v-1.91v-0.78C293.51,180.1,293.43,179.73,293.29,179.4 M290.52,184.3l-4.71,0
		c-0.66,0-1.19-0.53-1.2-1.18v-0.9l0-0.87l0-0.03l0-0.65c0-0.66,0.54-1.2,1.2-1.2l4.71,0c0.66,0,1.2,0.54,1.2,1.2l0,1.41l0,1.03
		C291.72,183.76,291.18,184.3,290.52,184.3"/>
	<path class="st2" d="M238.93,177.7c1.61,0,2.54,0.91,2.54,2.24c0,0.9-0.52,1.57-1.28,1.85c0.91,0.23,1.55,1.08,1.55,2.05
		c0,1.32-1.04,2.26-2.58,2.26h-2.65v-8.39H238.93z M239.12,181.53c0.92,0,1.6-0.64,1.6-1.54c0-0.99-0.67-1.62-1.86-1.62h-1.6v3.16
		H239.12z M239.09,185.43c1.15,0,1.89-0.64,1.89-1.64c0-0.95-0.7-1.61-1.74-1.61h-1.99v3.25H239.09z"/>
	<polygon class="st2" points="244.18,177.7 245.08,177.7 247.51,181.81 249.94,177.7 250.79,177.7 247.86,182.51 247.86,186.09 
		247.12,186.09 247.12,182.51 	"/>
	<path class="st2" d="M220.32,162.25v7.09h-1.49v-16.75h5.51c3.1,0,5.13,2.08,5.13,4.84s-2.03,4.82-5.13,4.82H220.32z M224.1,160.9
		c2.39,0,3.85-1.39,3.85-3.47s-1.46-3.5-3.85-3.5h-3.78v6.97H224.1z"/>
	<path class="st2" d="M246.34,152.28c4.09,0,8.2,3.1,8.2,8.7s-4.11,8.67-8.2,8.67c-4.11,0-8.18-3.07-8.18-8.67
		S242.23,152.28,246.34,152.28 M246.34,168.28c3.4,0,6.69-2.53,6.69-7.3c0-4.8-3.28-7.33-6.69-7.33c-3.43,0-6.66,2.53-6.66,7.33
		C239.67,165.75,242.91,168.28,246.34,168.28"/>
	<polygon class="st2" points="282.9,152.59 284.43,152.59 279.61,169.34 277.98,169.34 273.3,154.55 268.62,169.34 267.06,169.34 
		262.17,152.59 263.73,152.59 267.89,167.14 272.5,152.59 274.13,152.59 278.78,167.24 	"/>
	<polygon class="st2" points="293.82,169.34 293.82,152.59 303.69,152.59 303.69,153.96 295.3,153.96 295.3,160.27 302.96,160.27 
		302.96,161.64 295.3,161.64 295.3,167.97 303.69,167.97 303.69,169.34 	"/>
	<path class="st2" d="M318.94,162.11h-3.5v7.23h-1.51v-16.76h5.86c3,0,4.99,2.06,4.99,4.77c0,2.43-1.65,4.32-4.21,4.63l4.16,7.35
		h-1.75L318.94,162.11z M319.53,160.74c2.24,0,3.71-1.32,3.71-3.38c0-2.08-1.46-3.43-3.71-3.43h-4.09v6.81H319.53z"/>
	<polygon class="st2" points="334.89,169.34 334.89,152.59 344.77,152.59 344.77,153.96 336.38,153.96 336.38,160.27 344.03,160.27 
		344.03,161.64 336.38,161.64 336.38,167.97 344.77,167.97 344.77,169.34 	"/>
	<path class="st2" d="M355,169.34v-16.76h5.22c4.25,0,7.96,2.93,7.96,8.41c0,5.48-3.76,8.34-8.01,8.34H355z M360.13,168.02
		c3.47,0,6.52-2.34,6.52-7.02c0-4.7-2.98-7.09-6.47-7.09h-3.69v14.11H360.13z"/>
	<g class="st3">
		<path class="st4" d="M1.93,237.18v-10.5H5.1v10.27c0,2.13,1.17,3.26,3.07,3.26c1.93,0,3.1-1.12,3.1-3.26v-10.27h3.17v10.5
			c0,3.99-2.78,6.12-6.26,6.12C4.71,243.3,1.93,241.17,1.93,237.18z"/>
		<path class="st4" d="M33.81,242.93v-11.4l-4.68,11.4H26.5l-4.68-11.31v11.31h-3.03v-16.26h4.17l4.88,11.74l4.77-11.74h4.31v16.26
			H33.81z"/>
		<path class="st4" d="M47.42,242.93v-16.26h3.21v16.26H47.42z"/>
		<path class="st4" d="M65.7,242.93l-7.38-11.54v11.54h-3.17v-16.26h3.94l6.77,10.76v-10.76h3.17v16.26H65.7z"/>
		<path class="st4" d="M83.87,226.67h3.35l-6.03,16.26h-3.26l-6.01-16.26h3.46l4.24,12.09L83.87,226.67z"/>
		<path class="st4" d="M90.11,242.93v-16.26h10.18v2.98h-7.02v3.71h6.35v2.82h-6.35v3.76h7.02v2.98H90.11z"/>
		<path class="st4" d="M112.34,231.42c-0.18-0.92-0.85-2.29-2.96-2.29c-1.54,0-2.55,0.99-2.55,2.06c0,0.89,0.57,1.58,1.77,1.83
			l2.27,0.44c2.94,0.55,4.54,2.52,4.54,4.79c0,2.5-2.11,5.02-5.87,5.02c-4.31,0-6.21-2.77-6.47-5.09l2.94-0.78
			c0.11,1.58,1.26,3.05,3.55,3.05c1.72,0,2.64-0.83,2.64-2c0-0.94-0.69-1.67-1.97-1.93l-2.27-0.46c-2.59-0.53-4.27-2.18-4.27-4.66
			c0-2.87,2.59-5.09,5.66-5.09c3.92,0,5.46,2.39,5.83,4.22L112.34,231.42z"/>
		<path class="st4" d="M125.62,229.68v13.26h-3.19v-13.26h-5.14v-3h13.46v3H125.62z"/>
		<path class="st4" d="M133.79,242.93v-16.26H137v16.26H133.79z"/>
		<path class="st4" d="M156.52,242.93v-11.4l-4.68,11.4h-2.64l-4.68-11.31v11.31h-3.03v-16.26h4.17l4.88,11.74l4.77-11.74h4.31
			v16.26H156.52z"/>
		<path class="st4" d="M164.14,242.93v-16.26h10.18v2.98h-7.02v3.71h6.35v2.82h-6.35v3.76h7.02v2.98H164.14z"/>
		<path class="st4" d="M188.82,242.93l-7.38-11.54v11.54h-3.17v-16.26h3.94l6.77,10.76v-10.76h3.17v16.26H188.82z"/>
		<path class="st4" d="M203.5,229.68v13.26h-3.19v-13.26h-5.14v-3h13.46v3H203.5z"/>
		<path class="st4" d="M218.46,226.33c4.43,0,8.37,3.23,8.37,8.49c0,5.23-3.94,8.46-8.37,8.46c-4.4,0-8.35-3.23-8.35-8.46
			C210.11,229.56,214.05,226.33,218.46,226.33z M218.46,240.2c2.52,0,5.09-1.74,5.09-5.41c0-3.67-2.57-5.41-5.09-5.41
			c-2.5,0-5.07,1.74-5.07,5.41C213.39,238.46,215.96,240.2,218.46,240.2z"/>
		<path class="st4" d="M236.4,242.93v-16.26h3.21v16.26H236.4z"/>
		<path class="st4" d="M254.66,242.93l-7.38-11.54v11.54h-3.17v-16.26h3.95l6.76,10.76v-10.76h3.17v16.26H254.66z"/>
		<path class="st4" d="M269.34,229.68v13.26h-3.19v-13.26h-5.14v-3h13.46v3H269.34z"/>
		<path class="st4" d="M277.51,242.93v-16.26h10.18v2.98h-7.02v3.71h6.35v2.82h-6.35v3.76h7.02v2.98H277.51z"/>
		<path class="st4" d="M291.64,242.93v-16.26h3.17v13.23h7.25v3.03H291.64z"/>
		<path class="st4" d="M305.29,242.93v-16.26h3.21v16.26H305.29z"/>
		<path class="st4" d="M325.15,242.93l-0.21-1.86c-0.73,1.12-2.34,2.2-4.79,2.2c-4.38,0-8.12-3.21-8.12-8.46
			c0-5.25,3.92-8.49,8.33-8.49c4.29,0,6.63,2.5,7.43,5l-3.03,1.08c-0.41-1.45-1.77-3.12-4.4-3.12c-2.45,0-5.11,1.67-5.11,5.53
			c0,3.67,2.41,5.57,5.14,5.57c3.03,0,4.17-2,4.36-3.17h-5.14v-2.75h8.12v8.46H325.15z"/>
		<path class="st4" d="M331.69,242.93v-16.26h10.18v2.98h-7.02v3.71h6.35v2.82h-6.35v3.76h7.02v2.98H331.69z"/>
		<path class="st4" d="M356.39,242.93l-7.38-11.54v11.54h-3.17v-16.26h3.95l6.76,10.76v-10.76h3.17v16.26H356.39z"/>
		<path class="st4" d="M371.08,229.68v13.26h-3.19v-13.26h-5.14v-3h13.46v3H371.08z"/>
		<path class="st4" d="M379.25,242.93v-16.26h10.18v2.98h-7.02v3.71h6.35v2.82h-6.35v3.76h7.02v2.98H379.25z"/>
	</g>
</g>
</svg>
