<?xml version="1.0" encoding="utf-8"?>
<!-- Generator: Adobe Illustrator 24.1.2, SVG Export Plug-In . SVG Version: 6.00 Build 0)  -->
<svg version="1.1" id="Camada_1" xmlns="http://www.w3.org/2000/svg" xmlns:xlink="http://www.w3.org/1999/xlink" x="0px" y="0px"
	 viewBox="0 0 1296.41 312.13" style="enable-background:new 0 0 1296.41 312.13;" xml:space="preserve">
<style type="text/css">
	.st0{fill:#FFFFFF;}
	.st1{clip-path:url(#SVGID_2_);fill:#FFFFFF;}
</style>
<polygon class="st0" points="132.29,49.05 26.48,49.04 26.48,0.05 0,0.05 0,124.67 26.48,124.67 26.53,75.5 132.29,75.5 
	132.29,124.66 158.74,124.67 158.72,0.05 132.29,0.04 "/>
<g>
	<defs>
		<rect id="SVGID_1_" width="1296.41" height="312.13"/>
	</defs>
	<clipPath id="SVGID_2_">
		<use xlink:href="#SVGID_1_"  style="overflow:visible;"/>
	</clipPath>
	<path class="st1" d="M1073.39,49.08l-83.22-0.06c-6.21,0-11.25-5.04-11.24-11.25c0-6.21,5.03-11.24,11.24-11.24l121.04-0.03V0
		L990.17,0.07c-20.83,0.01-37.72,16.89-37.72,37.73c0,20.84,16.89,37.73,37.73,37.73l83.19-0.04c6.28,0,11.37,5.09,11.38,11.37
		c0.01,6.29-5.09,11.39-11.38,11.39l-120.9,0.01l-0.02,26.42l120.93,0.04c20.89,0,37.81-16.93,37.81-37.82
		C1111.2,66.01,1094.27,49.08,1073.39,49.08"/>
	<rect x="1269.95" y="0.05" class="st1" width="26.46" height="124.62"/>
	<path class="st1" d="M767.26,0.09l-0.02,80.26c0,9.85-8.01,17.87-17.86,17.87l-70.06-0.04c-9.85,0-17.86-8.01-17.86-17.86
		l0.02-79.05l-0.04-1.2h-26.46l0.13,82.88c0,5.72,1.1,11.13,3.26,16.06c2.16,4.93,5.23,9.35,9.14,13.13
		c1.87,1.81,3.93,3.49,6.13,5.01c2.21,1.52,4.57,2.84,7.02,3.92c2.46,1.09,5.06,1.94,7.72,2.54c2.67,0.6,5.47,0.9,8.3,0.9h75.49
		c2.84,0,5.63-0.3,8.3-0.9c2.67-0.6,5.27-1.45,7.72-2.54c2.45-1.08,4.81-2.4,7.02-3.92c2.2-1.51,4.26-3.2,6.13-5.01
		c3.9-3.78,6.97-8.2,9.13-13.13c2.16-4.94,3.26-10.34,3.26-16.06V0.05L767.26,0.09z"/>
	<path class="st1" d="M472.97,25.55c-2.16-4.93-5.23-9.35-9.13-13.13c-1.87-1.81-3.93-3.49-6.13-5.01
		c-2.21-1.52-4.57-2.84-7.02-3.92c-2.45-1.09-5.05-1.94-7.72-2.54c-2.67-0.6-5.47-0.9-8.3-0.9h-75.49c-2.84,0-5.63,0.3-8.3,0.9
		c-2.67,0.6-5.26,1.45-7.72,2.54c-2.44,1.08-4.8,2.4-7.02,3.92c-2.2,1.51-4.26,3.2-6.13,5.01c-3.9,3.78-6.98,8.2-9.14,13.13
		c-2.16,4.93-3.26,10.34-3.26,16.06l-0.04,11.53h-0.1l0.05,12.15l-0.05,16.21h0.13l0.01,1.53c0,5.72,1.1,11.13,3.26,16.06
		c2.16,4.93,5.23,9.35,9.14,13.13c1.87,1.81,3.93,3.49,6.13,5.01c2.21,1.52,4.57,2.84,7.02,3.92c2.46,1.09,5.05,1.94,7.72,2.54
		c2.67,0.6,5.47,0.9,8.3,0.9h75.49c2.84,0,5.63-0.3,8.3-0.9c2.67-0.6,5.27-1.45,7.72-2.54c2.45-1.08,4.81-2.4,7.02-3.92
		c2.2-1.51,4.26-3.2,6.13-5.01c3.9-3.78,6.97-8.2,9.13-13.13c2.16-4.94,3.26-10.34,3.26-16.06v-1.53V53.14V41.61
		C476.23,35.89,475.13,30.49,472.97,25.55 M431.89,98.3l-70.06-0.04c-9.74,0-17.67-7.84-17.85-17.53l-0.01-13.4l0.01-12.99
		l-0.02-0.48l0-9.63c0-9.85,8.01-17.86,17.87-17.86l70.06-0.04c9.85,0,17.86,8.01,17.86,17.87l0.01,20.93l-0.01,15.31
		C449.75,90.28,441.74,98.3,431.89,98.3"/>
	<path class="st1" d="M188.48,267.74c-0.69-3.43-3.18-8.59-11.08-8.59c-5.75,0-9.53,3.69-9.53,7.73c0,3.35,2.15,5.92,6.61,6.87
		l8.5,1.63c10.99,2.06,17,9.45,17,17.95c0,9.36-7.9,18.8-21.98,18.8c-16.14,0-23.27-10.39-24.21-19.06l10.99-2.92
		c0.43,5.92,4.72,11.42,13.31,11.42c6.44,0,9.87-3.09,9.87-7.47c0-3.52-2.58-6.27-7.38-7.21l-8.5-1.72
		c-9.7-1.98-15.97-8.16-15.97-17.43c0-10.73,9.7-19.06,21.21-19.06c14.68,0,20.43,8.93,21.81,15.8L188.48,267.74z"/>
	<polygon class="st1" points="297.96,310.84 297.96,268.16 280.44,310.84 270.57,310.84 253.05,268.51 253.05,310.84 241.72,310.84 
		241.72,249.96 257.35,249.96 275.64,293.92 293.49,249.96 309.64,249.96 309.64,310.84 	"/>
	<path class="st1" d="M391.47,296.93h-24.73l-5.07,13.91h-12.54l23.35-60.88h13.74l23.18,60.88h-12.88L391.47,296.93z
		 M370.69,286.11h16.83l-8.41-23.01L370.69,286.11z"/>
	<path class="st1" d="M467.03,287.4h-6.18v23.44h-11.93v-60.88h23.78c11.85,0,19.4,8.16,19.4,18.72c0,8.59-4.98,14.94-12.96,17.26
		l13.05,24.9h-13.22L467.03,287.4z M470.47,277.18c6.1,0,9.53-3.35,9.53-8.41c0-5.15-3.43-8.5-9.53-8.5h-9.62v16.91H470.47z"/>
	<polygon class="st1" points="559.86,261.21 559.86,310.84 547.92,310.84 547.92,261.21 528.69,261.21 528.69,249.96 579.09,249.96 
		579.09,261.21 	"/>
	<polygon class="st1" points="672,310.84 672,249.96 683.85,249.96 683.85,299.5 710.98,299.5 710.98,310.84 	"/>
	<rect x="751.77" y="249.96" class="st1" width="12.02" height="60.88"/>
	<polygon class="st1" points="848.03,249.96 860.56,249.96 837.98,310.84 825.79,310.84 803.29,249.96 816.26,249.96 832.14,295.21 
			"/>
	<rect x="900.07" y="249.96" class="st1" width="12.02" height="60.88"/>
	<polygon class="st1" points="997.18,310.84 969.53,267.65 969.53,310.84 957.68,310.84 957.68,249.96 972.45,249.96 997.78,290.23 
		997.78,249.96 1009.63,249.96 1009.63,310.84 	"/>
	<path class="st1" d="M1100.73,310.84l-0.77-6.96c-2.75,4.21-8.76,8.24-17.95,8.24c-16.4,0-30.39-12.02-30.39-31.68
		c0-19.66,14.68-31.77,31.17-31.77c16.06,0,24.81,9.36,27.82,18.72l-11.33,4.04c-1.55-5.41-6.61-11.68-16.48-11.68
		c-9.19,0-19.15,6.27-19.15,20.69c0,13.74,9.02,20.87,19.23,20.87c11.33,0,15.63-7.47,16.31-11.85h-19.23v-10.3h30.4v31.68H1100.73z
		"/>
</g>
</svg>
