<?xml version="1.0" encoding="utf-8"?>
<!-- Generator: Adobe Illustrator 24.1.2, SVG Export Plug-In . SVG Version: 6.00 Build 0)  -->
<svg version="1.1" xmlns="http://www.w3.org/2000/svg" xmlns:xlink="http://www.w3.org/1999/xlink" x="0px" y="0px"
	 viewBox="0 0 208 63" style="enable-background:new 0 0 208 63;" xml:space="preserve">
<style type="text/css">
	.st0{opacity:0.07;}
	.st1{fill:#FFFFFF;}
	.st2{fill:#0F4B93;}
	.st3{fill:#0D3F85;}
	.st4{fill:#EB9839;}
	.st5{fill:#CACACA;}
	.st6{fill:#76787A;}
	.st7{clip-path:url(#SVGID_2_);}
	.st8{opacity:0.18;fill:#76787A;}
	.st9{fill:#E9E9EC;}
	.st10{fill:none;stroke:#FFFFFF;stroke-width:1.5;stroke-miterlimit:10;}
	.st11{fill:none;stroke:#3C3C3B;stroke-width:2;stroke-miterlimit:10;}
	.st12{fill:#00973A;}
	.st13{fill:#FADB00;}
	.st14{fill:#002776;}
	.st15{clip-path:url(#SVGID_4_);}
	.st16{fill:none;stroke:#FFFFFF;stroke-width:0.75;stroke-linecap:round;stroke-linejoin:round;stroke-miterlimit:10;}
	.st17{opacity:0.5;}
	.st18{fill:none;stroke:#0F4B93;stroke-width:3;stroke-linecap:round;stroke-linejoin:round;stroke-miterlimit:10;}
	.st19{clip-path:url(#SVGID_22_);}
	.st20{clip-path:url(#SVGID_24_);}
	.st21{fill:none;stroke:#76787A;stroke-width:0.5;stroke-miterlimit:10;}
	.st22{clip-path:url(#SVGID_26_);}
	.st23{clip-path:url(#SVGID_28_);}
	.st24{clip-path:url(#SVGID_30_);}
	.st25{clip-path:url(#SVGID_32_);}
	.st26{fill:url(#SVGID_35_);}
	.st27{fill:url(#SVGID_36_);}
	.st28{opacity:0.05;}
	.st29{opacity:0.7;}
	.st30{fill:none;stroke:#EB9839;stroke-width:1.5;stroke-miterlimit:10;}
	.st31{fill:#FFFFFF;stroke:#0D3F85;stroke-width:1.5;stroke-miterlimit:10;}
	.st32{fill:url(#SVGID_37_);}
	.st33{fill:none;stroke:#FFFFFF;stroke-width:0.75;stroke-miterlimit:10;}
</style>
<g id="encontre_seu_imóvel">
</g>
<g id="imóveis_em_destaque">
</g>
<g id="simule_um_financiamento">
</g>
<g id="anuncie_x2C__encontre_x2C__fale_conosco">
</g>
<g id="bairros_mais_procurados">
</g>
<g id="modelos_mais_buscados">
</g>
<g id="footer">
	<g>
		<g>
			<path class="st1" d="M39.89,10.14c-2.54,8.34-5.07,16.63-7.6,24.92c-0.02,0-0.04-0.01-0.06-0.01c-0.07-0.32-0.12-0.64-0.2-0.95
				c-0.37-1.55-1.06-2.95-1.93-4.28c-0.6-0.92-1.27-1.79-1.99-2.61c-0.89-1.01-1.7-2.09-2.33-3.28c-0.91-1.7-1.4-3.5-1.31-5.45
				c0.08-1.71,0.65-3.25,1.59-4.66c0.97-1.46,2.25-2.59,3.69-3.56c0.15-0.1,0.3-0.14,0.48-0.14c3.11,0,6.22,0,9.34,0
				C39.67,10.12,39.76,10.13,39.89,10.14z"/>
			<path class="st1" d="M24.48,46.23c-3.66-12.02-7.33-24.04-11.01-36.09c4.68,0,9.34,0,14,0c-0.01,0.11-0.1,0.12-0.16,0.16
				c-2.86,1.84-4.69,4.42-5.4,7.75c-0.49,2.28-0.29,4.53,0.48,6.74c0.52,1.5,1.28,2.87,2.24,4.13c0.77,1.01,1.48,2.05,2.07,3.17
				c0.76,1.43,1.31,2.94,1.45,4.56c0.12,1.34-0.01,2.66-0.41,3.95c-0.46,1.48-1.19,2.83-2.05,4.12c-0.32,0.48-0.7,0.93-1.04,1.4
				C24.61,46.17,24.57,46.22,24.48,46.23z"/>
			<path class="st1" d="M55.71,32.48c0.22-0.75,0.42-1.43,0.62-2.12c0.71-2.45,1.42-4.9,2.12-7.35c0.73-2.55,1.43-5.11,2.05-7.69
				c0.1-0.4,0.18-0.8,0.22-1.21c0.06-0.62-0.16-1-0.74-1.23c-0.42-0.17-0.88-0.25-1.32-0.33c-0.18-0.03-0.26-0.09-0.25-0.28
				c0.01-0.23,0.01-0.46,0-0.68c-0.01-0.16,0.05-0.23,0.22-0.22c0.26,0.01,0.52,0,0.79,0c1.8,0,3.6,0,5.4,0c0.07,0,0.14,0,0.21,0
				c0.13-0.01,0.18,0.05,0.18,0.18c0,0.25,0,0.5,0,0.75c0,0.15-0.07,0.22-0.22,0.24c-0.19,0.03-0.38,0.08-0.57,0.11
				c-0.81,0.16-1.37,0.63-1.75,1.35c-0.28,0.53-0.5,1.1-0.69,1.67c-0.63,1.87-1.17,3.76-1.75,5.65c-1.38,4.54-2.74,9.1-4.02,13.67
				c-0.26,0.93-0.52,1.86-0.78,2.8c-0.08,0.27-0.08,0.28-0.37,0.28c-0.2,0-0.44,0.08-0.6-0.04c-0.16-0.12-0.14-0.37-0.2-0.56
				c-1.69-6.16-3.41-12.31-5.2-18.45c-0.4-1.37-0.77-2.74-1.23-4.09c-0.1-0.3-0.23-0.6-0.35-0.89c-0.36-0.81-0.97-1.31-1.86-1.44
				c-0.12-0.02-0.25-0.05-0.37-0.06c-0.15-0.01-0.2-0.09-0.2-0.22c0-0.26,0-0.52-0.01-0.79c0-0.12,0.05-0.17,0.16-0.17
				c0.07,0,0.14,0,0.21,0c2.21,0,4.42,0,6.64,0c0.01,0,0.02,0,0.03,0c0.37,0,0.34,0,0.33,0.33c0,0.19,0,0.39,0.01,0.58
				c0.01,0.17-0.05,0.24-0.23,0.26c-0.25,0.03-0.49,0.08-0.74,0.13c-0.2,0.04-0.39,0.11-0.58,0.21c-0.29,0.15-0.43,0.4-0.44,0.72
				c-0.01,0.26,0.05,0.52,0.11,0.78c0.46,1.83,0.98,3.65,1.49,5.47c0.69,2.47,1.4,4.93,2.1,7.39c0.45,1.59,0.91,3.17,1.38,4.76
				C55.54,32.14,55.56,32.3,55.71,32.48z"/>
			<path class="st1" d="M146.62,30.55c0.03,1.37-0.21,2.69-0.83,3.91c-1.2,2.36-3.09,3.69-5.79,3.73c-1.55,0.03-2.96-0.44-4.26-1.28
				c-0.17-0.11-0.26-0.23-0.29-0.43c-0.16-0.94-0.28-1.89-0.39-2.84c-0.11-0.92-0.22-1.83-0.32-2.75c-0.01-0.08-0.01-0.16-0.02-0.24
				c-0.01-0.1,0.03-0.18,0.14-0.21c0.21-0.07,0.41-0.14,0.62-0.2c0.15-0.04,0.17,0.08,0.19,0.18c0.08,0.33,0.14,0.67,0.22,1
				c0.33,1.25,0.79,2.45,1.55,3.52c0.35,0.5,0.78,0.92,1.29,1.26c1.49,0.99,3.68,0.59,4.62-0.99c0.31-0.52,0.52-1.06,0.63-1.65
				c0.19-0.94,0.22-1.87,0.07-2.82c-0.19-1.19-0.76-2.19-1.6-3.03c-0.6-0.61-1.27-1.14-1.97-1.64c-0.86-0.62-1.73-1.23-2.5-1.96
				c-1.3-1.21-2.2-2.64-2.53-4.4c-0.37-2-0.17-3.93,0.77-5.75c1.14-2.2,3.34-3.4,5.81-3.19c1.06,0.09,2.05,0.42,3.02,0.81
				c0.18,0.07,0.26,0.18,0.27,0.38c0.03,0.97,0.16,1.93,0.24,2.9c0.06,0.73,0.13,1.45,0.21,2.18c0.02,0.16-0.03,0.24-0.19,0.26
				c-0.06,0.01-0.11,0.02-0.17,0.04c-0.52,0.12-0.52,0.12-0.63-0.42c-0.2-0.94-0.44-1.86-0.87-2.73c-0.19-0.39-0.43-0.75-0.71-1.08
				c-1.16-1.35-3.58-1.33-4.68,0.27c-0.49,0.71-0.76,1.51-0.84,2.36c-0.07,0.75-0.06,1.5,0.09,2.25c0.22,1.05,0.71,1.94,1.45,2.71
				c0.58,0.6,1.23,1.12,1.92,1.59c0.75,0.52,1.51,1.02,2.22,1.6c0.66,0.54,1.28,1.13,1.79,1.83c0.92,1.25,1.4,2.65,1.48,4.19
				C146.63,30.12,146.62,30.34,146.62,30.55z"/>
			<path class="st1" d="M91.36,32.74c0.04-0.09,0.03-0.2,0.03-0.29c0-3.26,0.01-6.52,0-9.78c0-1.14-0.06-2.28-0.19-3.41
				c-0.02-0.2-0.07-0.4-0.14-0.6c-0.17-0.47-0.48-0.79-0.97-0.94c-0.33-0.1-0.67-0.15-1.01-0.18c-0.18-0.01-0.24-0.08-0.23-0.25
				c0.01-0.18,0-0.36,0-0.55c0-0.11,0.05-0.17,0.17-0.16c0.07,0,0.14,0,0.21,0c1.64,0,3.28,0,4.93,0c0.07,0,0.14,0,0.21,0
				c0.13-0.01,0.19,0.05,0.18,0.18c0,0.02,0,0.05,0,0.07c-0.02,0.21,0.08,0.47-0.04,0.63c-0.11,0.15-0.38,0.1-0.57,0.14
				c-0.84,0.17-1.26,0.64-1.37,1.56c-0.08,0.65-0.1,1.3-0.13,1.94c-0.03,0.67-0.03,1.34-0.03,2.02c0,4.56,0,9.12,0,13.68
				c0,0.24,0,0.48,0.01,0.72c0,0.37,0,0.37-0.35,0.37c-0.03,0-0.07,0-0.1,0c-0.23,0.03-0.37-0.08-0.49-0.28
				c-3.28-5.43-6.57-10.86-9.87-16.29c-0.06-0.09-0.09-0.21-0.21-0.26c-0.09,0.06-0.05,0.15-0.05,0.22c0,3.12-0.02,6.25,0.01,9.37
				c0.01,1.28,0.03,2.55,0.13,3.83c0.03,0.31,0.06,0.61,0.14,0.91c0.17,0.6,0.55,0.98,1.16,1.14c0.28,0.07,0.56,0.11,0.84,0.14
				c0.13,0.01,0.18,0.06,0.18,0.19c0,0.18,0,0.37,0,0.55c0.01,0.17-0.08,0.22-0.23,0.21c-0.05,0-0.09,0-0.14,0
				c-1.65,0-3.31,0-4.96,0c-0.08,0-0.16,0-0.24,0c-0.11,0-0.17-0.06-0.16-0.17c0-0.02,0-0.05,0-0.07c0.02-0.21-0.09-0.47,0.04-0.63
				c0.12-0.15,0.38-0.09,0.58-0.13c0.87-0.16,1.35-0.7,1.47-1.65c0.08-0.68,0.11-1.36,0.13-2.05c0.07-2.28,0.03-4.56,0.04-6.84
				c0.01-1.71,0-3.42,0-5.13c0-0.4,0-0.8-0.06-1.19c-0.09-0.62-0.4-1.13-0.83-1.58c-0.33-0.34-0.76-0.5-1.21-0.58
				c-0.5-0.09-0.5-0.09-0.49-0.58c0.01-0.49-0.05-0.44,0.44-0.44c0.93,0,1.87,0,2.8,0c0.19,0,0.31,0.06,0.41,0.23
				c2.24,3.63,4.49,7.25,6.74,10.87c1.01,1.63,2.02,3.25,3.03,4.88C91.21,32.61,91.23,32.71,91.36,32.74z"/>
			<path class="st1" d="M165.52,21.06c-0.07,0.11-0.04,0.2-0.04,0.29c0,2.96-0.01,5.93,0,8.89c0.01,1.47,0.03,2.94,0.15,4.41
				c0.02,0.3,0.07,0.59,0.16,0.87c0.17,0.49,0.49,0.81,0.98,0.97c0.31,0.1,0.62,0.15,0.94,0.18c0.18,0.01,0.23,0.09,0.23,0.25
				c-0.01,0.85,0.09,0.69-0.67,0.7c-1.52,0.01-3.03,0-4.55,0c-0.1,0-0.21-0.01-0.31,0c-0.14,0.01-0.21-0.04-0.21-0.19
				c0.01-0.19,0.01-0.39,0-0.58c0-0.12,0.05-0.16,0.16-0.17c0.3-0.03,0.59-0.08,0.87-0.18c0.43-0.16,0.73-0.46,0.89-0.88
				c0.11-0.29,0.17-0.59,0.19-0.9c0.07-1.01,0.13-2.03,0.13-3.04c0-3.72,0-7.43,0-11.15c0-0.69-0.13-1.33-0.53-1.91
				c-0.4-0.59-0.93-0.92-1.63-1.02c-0.45-0.07-0.45-0.07-0.45-0.54c0-0.55-0.06-0.47,0.47-0.47c0.9,0,1.8,0.01,2.7-0.01
				c0.27-0.01,0.4,0.09,0.54,0.31c3.19,5.16,6.39,10.31,9.59,15.46c0.09,0.14,0.17,0.29,0.3,0.42c0.1-0.06,0.05-0.15,0.05-0.22
				c0.01-3.17,0.03-6.34,0-9.51c-0.01-1.32-0.03-2.65-0.23-3.96c-0.03-0.23-0.1-0.44-0.2-0.65c-0.17-0.33-0.43-0.55-0.78-0.68
				c-0.35-0.13-0.71-0.16-1.07-0.21c-0.25-0.03-0.25-0.03-0.26-0.29c0-0.15,0.01-0.3,0-0.44c-0.01-0.18,0.07-0.23,0.25-0.23
				c1.74,0,3.49,0,5.23,0c0.18,0,0.24,0.07,0.23,0.24c-0.01,0.17-0.01,0.34,0,0.51c0.01,0.14-0.04,0.2-0.19,0.21
				c-0.24,0.01-0.47,0.07-0.7,0.13c-0.52,0.16-0.86,0.5-1.01,1.02c-0.15,0.52-0.16,1.06-0.19,1.59c-0.05,1.13-0.09,2.26-0.09,3.38
				c0.01,4.62,0,9.24,0.01,13.86c0,0.03,0,0.07,0,0.1c-0.01,0.25-0.01,0.25-0.24,0.27c-0.06,0-0.11,0-0.17,0
				c-0.24,0.03-0.39-0.07-0.52-0.29c-1.55-2.58-3.11-5.15-4.67-7.72c-1.73-2.85-3.45-5.69-5.18-8.54
				C165.68,21.25,165.64,21.14,165.52,21.06z"/>
			<path class="st1" d="M150.78,27.06c0-2.44,0-4.88,0-7.32c0-0.4-0.04-0.8-0.13-1.19c-0.11-0.46-0.39-0.76-0.86-0.87
				c-0.3-0.07-0.6-0.12-0.91-0.15c-0.12-0.01-0.16-0.06-0.15-0.17c0-0.01,0-0.02,0-0.03c0.01-0.24-0.09-0.53,0.05-0.7
				c0.14-0.16,0.43-0.06,0.65-0.06c3.19,0,6.39,0,9.58,0c0.41,0,0.46-0.1,0.47,0.43c0.03,1.34,0.1,2.69,0.18,4.03
				c0.01,0.15-0.02,0.25-0.19,0.26c-0.01,0-0.02,0-0.03,0.01c-0.48,0.11-0.48,0.11-0.56-0.36c-0.13-0.74-0.33-1.47-0.63-2.16
				c-0.22-0.51-0.6-0.82-1.14-0.93c-0.36-0.07-0.72-0.12-1.09-0.12c-0.83,0-1.66,0-2.5-0.01c-0.1,0-0.21,0-0.31,0.02
				c-0.17,0.03-0.28,0.13-0.32,0.31c-0.04,0.18-0.06,0.36-0.06,0.54c0,2.37,0,4.74,0.01,7.12c0,0.4-0.05,0.38,0.39,0.38
				c0.88,0,1.76-0.01,2.63-0.02c0.21,0,0.41-0.03,0.61-0.07c0.48-0.1,0.8-0.37,0.94-0.84c0.1-0.34,0.17-0.69,0.21-1.04
				c0.01-0.11,0.04-0.22,0.06-0.34c0.01-0.06,0.05-0.11,0.11-0.11c0.17,0,0.34,0,0.51,0c0.08,0,0.12,0.06,0.12,0.14
				c0,0.07,0,0.14,0,0.21c0,1.82,0,3.65,0,5.47c0,0.07,0,0.14,0,0.21c0,0.03-0.01,0.08-0.03,0.09c-0.19,0.1-0.4,0.04-0.6,0.04
				c-0.15,0-0.13-0.14-0.15-0.23c-0.06-0.32-0.11-0.65-0.17-0.98c-0.03-0.16-0.08-0.31-0.14-0.46c-0.15-0.39-0.44-0.63-0.85-0.72
				c-0.19-0.04-0.38-0.07-0.58-0.07c-0.93-0.01-1.87,0-2.81,0c-0.28,0-0.28,0.01-0.28,0.29c0,2.08,0,4.15,0,6.23
				c0,0.43,0.04,0.87,0.13,1.29c0.16,0.74,0.54,1.12,1.28,1.22c1.06,0.14,2.12,0.13,3.17-0.02c0.71-0.1,1.24-0.49,1.6-1.11
				c0.37-0.64,0.62-1.32,0.86-2.01c0.08-0.23,0.15-0.46,0.2-0.69c0.04-0.17,0.12-0.24,0.29-0.19c0.47,0.12,0.52-0.01,0.43,0.57
				c-0.22,1.42-0.44,2.84-0.7,4.25c-0.01,0.08-0.04,0.16-0.05,0.23c-0.01,0.13-0.09,0.18-0.21,0.17c-0.1,0-0.21,0-0.31,0
				c-3.57,0-7.14,0-10.71,0c-0.03,0-0.07,0-0.1,0c-0.3-0.01-0.3-0.01-0.3-0.3c0-0.05,0-0.09,0-0.14c0-0.49,0-0.5,0.51-0.55
				c0.28-0.03,0.56-0.09,0.84-0.17c0.46-0.14,0.76-0.45,0.88-0.92c0.09-0.38,0.13-0.76,0.13-1.15
				C150.78,31.94,150.78,29.5,150.78,27.06z"/>
			<path class="st1" d="M185.64,37.62c-1.8,0-3.6,0-5.4,0c-0.39,0-0.38,0.02-0.37-0.37c0-0.57,0-0.57,0.57-0.63
				c0.25-0.03,0.49-0.08,0.74-0.15c0.54-0.15,0.85-0.51,0.95-1.05c0.09-0.48,0.12-0.97,0.12-1.46c0-4.04,0-8.07-0.01-12.11
				c0-0.88,0.04-1.76-0.04-2.63c-0.02-0.26-0.06-0.52-0.14-0.77c-0.12-0.38-0.37-0.62-0.75-0.73c-0.3-0.09-0.6-0.13-0.91-0.16
				c-0.15-0.02-0.23-0.06-0.22-0.23c0.01-0.18,0.01-0.36,0.01-0.55c0-0.15,0.07-0.2,0.21-0.2c0.07,0,0.14,0,0.21,0
				c3.3,0,6.59,0,9.89,0c0.47,0,0.4-0.02,0.43,0.4c0.05,0.74,0.07,1.48,0.1,2.22c0.03,0.58,0.05,1.16,0.08,1.74
				c0.01,0.32,0.01,0.32-0.29,0.38c-0.07,0.01-0.14,0.02-0.2,0.03c-0.16,0.03-0.23-0.03-0.25-0.19c-0.06-0.45-0.16-0.9-0.29-1.34
				c-0.1-0.37-0.24-0.74-0.4-1.09c-0.21-0.47-0.56-0.76-1.06-0.88c-0.37-0.08-0.74-0.13-1.12-0.13c-0.84,0-1.69,0-2.53,0
				c-0.07,0-0.14,0-0.2,0.01c-0.28,0.03-0.38,0.13-0.42,0.4c-0.02,0.12-0.02,0.25-0.02,0.38c0,2.41,0,4.81,0,7.22
				c0,0.37-0.05,0.38,0.37,0.37c0.89-0.01,1.78-0.01,2.67-0.02c0.18,0,0.36-0.03,0.54-0.06c0.53-0.09,0.86-0.39,1-0.91
				c0.1-0.36,0.16-0.73,0.21-1.11c0.05-0.33,0.04-0.33,0.38-0.33c0.07,0,0.14,0,0.21,0c0.13-0.01,0.19,0.05,0.18,0.18
				c0,0.05,0,0.09,0,0.14c0,1.84,0,3.67,0,5.51c0,0.06,0,0.11,0,0.17c0.01,0.13-0.06,0.17-0.18,0.18c-0.51,0.04-0.51,0.04-0.6-0.47
				c-0.06-0.31-0.11-0.63-0.19-0.94c-0.15-0.61-0.53-0.97-1.17-1.02c-0.12-0.01-0.25-0.03-0.37-0.03c-0.92,0-1.85,0-2.77,0
				c-0.26,0-0.27,0.01-0.27,0.26c0,2.2,0,4.4,0,6.6c0,0.35,0.05,0.7,0.13,1.05c0.15,0.64,0.55,1,1.19,1.11
				c0.4,0.07,0.79,0.07,1.19,0.08c0.64,0.02,1.28,0,1.91-0.08c0.8-0.1,1.38-0.49,1.76-1.19c0.36-0.66,0.63-1.36,0.87-2.08
				c0.07-0.21,0.13-0.41,0.18-0.62c0.03-0.11,0.09-0.15,0.2-0.13c0.02,0,0.05,0.01,0.07,0.01c0.51,0.07,0.51,0.07,0.43,0.57
				c-0.23,1.44-0.43,2.88-0.72,4.31c-0.07,0.34-0.07,0.34-0.41,0.34C189.29,37.62,187.47,37.62,185.64,37.62
				C185.64,37.62,185.64,37.62,185.64,37.62z"/>
			<path class="st1" d="M116.63,37.62c-0.83,0-1.66,0-2.5,0c-0.09,0-0.18,0-0.27,0c-0.11,0-0.17-0.05-0.17-0.16
				c0-0.21,0-0.41,0-0.62c0-0.11,0.06-0.15,0.16-0.17c0.26-0.05,0.52-0.09,0.76-0.18c0.51-0.19,0.66-0.42,0.61-0.96
				c-0.05-0.52-0.22-1.02-0.35-1.53c-0.33-1.24-0.66-2.49-1-3.73c-0.08-0.3-0.08-0.3-0.35-0.3c-1.52,0-3.03,0-4.55,0
				c-0.29,0-0.3,0-0.37,0.24c-0.41,1.53-0.81,3.06-1.15,4.61c-0.06,0.27-0.07,0.54-0.07,0.82c0,0.39,0.19,0.64,0.53,0.8
				c0.29,0.14,0.61,0.18,0.92,0.23c0.27,0.05,0.27,0.05,0.27,0.32c0,0.16,0,0.32,0,0.48c0,0.11-0.05,0.17-0.16,0.17
				c-0.06,0-0.11,0-0.17,0c-1.52,0-3.03,0-4.55,0c-0.07,0-0.14,0-0.21,0c-0.11,0-0.16-0.06-0.16-0.17c0-0.02,0-0.05,0-0.07
				c0-0.2-0.06-0.44,0.02-0.61c0.09-0.19,0.36-0.15,0.55-0.19c0.68-0.15,1.13-0.55,1.42-1.17c0.28-0.6,0.47-1.23,0.66-1.87
				c1.65-5.62,3.3-11.23,4.95-16.85c0.06-0.21,0.18-0.32,0.38-0.39c0.47-0.18,0.46-0.18,0.59,0.29c1.51,5.61,3.01,11.22,4.52,16.83
				c0.15,0.55,0.3,1.1,0.5,1.63c0.07,0.18,0.14,0.36,0.23,0.53c0.29,0.58,0.75,0.93,1.4,1.03c0.16,0.03,0.37-0.01,0.48,0.12
				c0.1,0.12,0.03,0.31,0.03,0.47c0.01,0.42,0.07,0.42-0.43,0.42C118.32,37.62,117.47,37.62,116.63,37.62
				C116.63,37.62,116.63,37.62,116.63,37.62z M111.35,20.38c-0.17,0.3-2.25,7.89-2.25,8.15c0.11,0.04,0.22,0.03,0.34,0.03
				c1.22,0,2.44,0,3.66,0c0.36,0,0.36,0,0.27-0.35c-0.44-1.73-0.89-3.46-1.33-5.19C111.81,22.15,111.59,21.29,111.35,20.38z"/>
			<path class="st1" d="M74.06,37.62c-0.87,0-1.73,0-2.6,0c-0.32,0-0.32-0.01-0.32-0.32c0-0.19-0.07-0.42,0.04-0.57
				c0.1-0.14,0.33-0.1,0.51-0.14c0.2-0.05,0.4-0.11,0.58-0.2c0.28-0.14,0.43-0.37,0.42-0.69c-0.01-0.19-0.02-0.39-0.07-0.58
				c-0.4-1.65-0.87-3.28-1.3-4.92c-0.07-0.26-0.07-0.25-0.35-0.25c-1.5,0-3.01,0-4.51,0c-0.32,0-0.32,0-0.39,0.26
				c-0.4,1.54-0.82,3.08-1.15,4.64c-0.05,0.25-0.06,0.5-0.06,0.75c-0.01,0.42,0.21,0.68,0.58,0.84c0.3,0.13,0.61,0.18,0.93,0.22
				c0.17,0.02,0.23,0.09,0.23,0.26c-0.01,0.87,0.11,0.69-0.66,0.7c-1.37,0.01-2.74,0-4.1,0c-0.1,0-0.21,0-0.31,0
				c-0.13,0-0.18-0.06-0.18-0.19c0-0.19,0-0.39-0.01-0.58c0-0.11,0.05-0.16,0.16-0.18c0.18-0.03,0.36-0.08,0.53-0.12
				c0.55-0.14,0.95-0.46,1.22-0.97c0.24-0.44,0.41-0.92,0.55-1.4c0.75-2.54,1.5-5.09,2.25-7.64c0.65-2.21,1.3-4.41,1.95-6.62
				c0.3-1.03,0.64-2.04,0.89-3.08c0.12-0.48,0.46-0.55,0.8-0.67c0.13-0.05,0.14,0.09,0.16,0.17c0.15,0.55,0.3,1.1,0.45,1.65
				c1.43,5.35,2.84,10.7,4.31,16.03c0.13,0.46,0.28,0.92,0.46,1.36c0.3,0.72,0.82,1.15,1.61,1.26c0.4,0.05,0.4,0.07,0.4,0.48
				c0,0.54,0.1,0.5-0.51,0.51C75.7,37.62,74.88,37.62,74.06,37.62C74.06,37.62,74.06,37.62,74.06,37.62z M70.85,28.54
				c-0.03-0.44-1.96-7.87-2.13-8.13c-0.75,2.72-1.48,5.42-2.23,8.13C67.96,28.54,69.4,28.54,70.85,28.54z"/>
			<path class="st1" d="M99.24,16.57c0.96,0,1.92,0,2.87,0c0.3,0,0.31,0,0.31,0.3c0,0.2,0.08,0.45-0.04,0.6
				c-0.12,0.14-0.38,0.09-0.58,0.12c-1.03,0.13-1.41,0.52-1.5,1.57c-0.02,0.19-0.02,0.39-0.02,0.58c0,4.91,0,9.83,0,14.74
				c0,0.34,0.02,0.68,0.08,1.02c0.1,0.57,0.43,0.92,1,1.03c0.28,0.06,0.56,0.1,0.84,0.13c0.15,0.02,0.21,0.06,0.22,0.23
				c0.04,0.73,0.05,0.73-0.67,0.73c-1.73,0-3.47,0-5.2,0c-0.1,0-0.21,0-0.31,0c-0.14,0-0.21-0.05-0.21-0.2
				c0.01-0.18,0.01-0.37,0-0.55c-0.01-0.15,0.07-0.19,0.2-0.2c0.27-0.03,0.54-0.08,0.81-0.13c0.63-0.12,0.96-0.51,1.06-1.14
				c0.08-0.51,0.1-1.02,0.1-1.53c0-4.26-0.01-8.53,0-12.79c0-0.74,0.01-1.48-0.1-2.22c-0.02-0.11-0.05-0.22-0.07-0.33
				c-0.11-0.42-0.39-0.68-0.8-0.81c-0.33-0.1-0.67-0.14-1.01-0.18c-0.14-0.02-0.2-0.06-0.19-0.21c0.02-0.24-0.09-0.53,0.05-0.7
				c0.14-0.17,0.43-0.06,0.65-0.06C97.57,16.57,98.4,16.57,99.24,16.57z"/>
			<path class="st1" d="M120.18,26.45c-0.5,0-1,0-1.5,0c-0.11,0-0.2,0.01-0.23-0.14c-0.03-0.22,0.01-0.36,0.14-0.4
				c0.08-0.02,0.16-0.03,0.23-0.05c0.35-0.07,0.49-0.2,0.55-0.56c0.04-0.22,0.05-0.45,0.05-0.68c0-2.21,0.01-4.42,0-6.63
				c0-0.18-0.02-0.36-0.05-0.54c-0.05-0.3-0.2-0.5-0.52-0.55c-0.1-0.01-0.23,0-0.27-0.11c-0.05-0.13-0.03-0.27-0.01-0.41
				c0.01-0.05,0.04-0.08,0.09-0.08c0.07,0,0.14-0.01,0.2-0.01c1.05,0.01,2.1-0.01,3.14,0.05c1.48,0.09,2.51,0.78,3.08,2.16
				c0.23,0.56,0.38,1.15,0.43,1.75c0.08,1.11,0.02,2.21-0.33,3.28c-0.2,0.6-0.48,1.15-0.91,1.63c-0.82,0.93-1.88,1.29-3.09,1.28
				C120.86,26.45,120.52,26.45,120.18,26.45C120.18,26.45,120.18,26.45,120.18,26.45z M120.95,21.18c0,1.13,0,2.25,0,3.38
				c0,0.26,0.01,0.52,0.09,0.78c0.1,0.31,0.28,0.43,0.61,0.45c0.44,0.03,0.8-0.15,1.1-0.45c0.42-0.42,0.65-0.95,0.81-1.52
				c0.2-0.71,0.29-1.43,0.3-2.16c0.02-0.96-0.03-1.91-0.3-2.84c-0.16-0.53-0.39-1.02-0.81-1.4c-0.28-0.27-0.62-0.42-1.01-0.45
				c-0.65-0.05-0.8,0.09-0.8,0.73C120.94,18.86,120.95,20.02,120.95,21.18z"/>
			<path class="st1" d="M129.02,26.44c-0.82,0-1.64,0-2.46,0c-0.11,0-0.26,0.05-0.28-0.15c-0.02-0.29,0-0.36,0.24-0.39
				c0.49-0.07,0.7-0.17,0.74-0.88c0.02-0.39,0.02-0.77,0.02-1.16c0-1.77,0-3.53,0-5.3c0-0.32-0.01-0.64-0.04-0.96
				c-0.04-0.5-0.14-0.6-0.62-0.71c-0.2-0.05-0.22-0.11-0.2-0.42c0.01-0.2,0.14-0.17,0.26-0.17c1.52,0,3.03,0,4.55,0
				c0.26,0,0.26,0.01,0.28,0.27c0.04,0.61,0.08,1.23,0.11,1.84c0.01,0.1,0.02,0.21-0.14,0.22c-0.13,0-0.28,0.05-0.31-0.16
				c-0.04-0.26-0.13-0.51-0.21-0.76c-0.16-0.45-0.46-0.69-0.94-0.72c-0.31-0.01-0.62-0.01-0.92-0.01c-0.18,0-0.28,0.09-0.28,0.27
				c0,0.07-0.01,0.14-0.01,0.2c0,1.03,0,2.05,0,3.08c0,0.27,0.01,0.28,0.29,0.28c0.27,0,0.55,0.01,0.82,0
				c0.35-0.01,0.49-0.13,0.6-0.46c0.05-0.15,0.08-0.31,0.1-0.47c0.02-0.16,0.09-0.24,0.27-0.23c0.18,0.01,0.2,0.11,0.2,0.25
				c0,0.88,0,1.76,0,2.63c0,0.14-0.03,0.22-0.19,0.22c-0.14,0-0.25-0.01-0.27-0.18c-0.02-0.2-0.07-0.4-0.14-0.6
				c-0.09-0.21-0.24-0.33-0.46-0.36c-0.35-0.04-0.71-0.01-1.06-0.02c-0.1,0-0.15,0.05-0.15,0.14c0,0.07,0,0.14,0,0.21
				c0,0.93,0,1.87,0,2.8c0,0.18,0.01,0.37,0.04,0.54c0.04,0.26,0.19,0.43,0.47,0.47c0.39,0.06,0.77,0.08,1.16,0
				c0.32-0.06,0.56-0.23,0.72-0.52c0.2-0.37,0.36-0.76,0.48-1.17c0.07-0.22,0.08-0.21,0.29-0.16c0.14,0.03,0.19,0.1,0.17,0.24
				c-0.06,0.42-0.11,0.83-0.17,1.25c-0.04,0.26-0.08,0.52-0.12,0.78c-0.04,0.25-0.05,0.25-0.31,0.25
				C130.68,26.45,129.85,26.45,129.02,26.44C129.02,26.45,129.02,26.44,129.02,26.44z"/>
			<path class="st5" d="M123.27,45.84c-0.14,0.26-0.14,0.48-0.17,0.69c-0.15,0.91-0.3,1.82-0.44,2.73c-0.01,0.07-0.03,0.13-0.04,0.2
				c-0.01,0.03,0,0.08-0.02,0.1c-0.16,0.18-0.38,0.07-0.58,0.09c-0.13,0.02-0.18-0.06-0.2-0.18c-0.08-0.49-0.17-0.99-0.25-1.48
				c-0.08-0.54-0.23-1.07-0.22-1.62c0-0.08-0.02-0.16-0.1-0.21c-0.06,1.01-0.02,2.01-0.03,3.01c0,0.09,0,0.18,0,0.27
				c0.01,0.14-0.06,0.21-0.2,0.21c-0.22,0-0.43,0.01-0.65,0c-0.27-0.01-0.27-0.01-0.27-0.27c0-0.5,0-1,0-1.5
				c0-1.03-0.01-2.05-0.01-3.08c0-0.26,0-0.26,0.26-0.27c0.42,0,0.84,0,1.26,0c0.25,0,0.25,0.01,0.28,0.27
				c0.08,0.61,0.17,1.22,0.26,1.83c0.01,0.07,0.01,0.14,0.05,0.19c0.1-0.04,0.08-0.13,0.08-0.2c0.03-0.63,0.18-1.24,0.26-1.86
				c0.02-0.16,0.08-0.24,0.26-0.24c0.44,0.01,0.89,0,1.33,0c0.23,0,0.23,0.01,0.23,0.26c0,1.01,0,2.03-0.01,3.04
				c0,0.51,0,1.03,0,1.54c0,0.26,0,0.27-0.27,0.27c-0.19,0.01-0.39,0.01-0.58,0c-0.29-0.01-0.29-0.01-0.29-0.32
				c0.01-1.01,0.02-2.03,0.02-3.04C123.27,46.17,123.27,46.04,123.27,45.84z"/>
			<path class="st1" d="M125.51,28.6c2.27,0,4.54,0,6.81,0c0.07,0,0.14,0,0.21,0c0.15-0.01,0.2,0.07,0.2,0.21
				c-0.01,0.28-0.01,0.57,0,0.86c0,0.15-0.06,0.2-0.2,0.2c-0.25-0.01-0.5-0.01-0.75-0.01c-4.33,0-8.67,0-13,0
				c-0.55,0-0.51,0.09-0.52-0.51c0-0.18,0-0.37-0.01-0.55c-0.01-0.14,0.04-0.22,0.19-0.21c0.06,0,0.11,0,0.17,0
				C120.9,28.6,123.2,28.6,125.51,28.6C125.51,28.6,125.51,28.6,125.51,28.6z"/>
			<path class="st1" d="M29.71,43.54c-1,3.28-1.99,6.54-2.99,9.8c-0.14-0.07-0.14-0.21-0.17-0.32c-0.47-1.53-0.93-3.07-1.4-4.6
				c-0.09-0.3-0.09-0.3,0.14-0.48c1.55-1.27,3-2.66,4.23-4.25C29.56,43.63,29.58,43.57,29.71,43.54z"/>
			<path class="st5" d="M54.41,46.55c0.07,0.96,0.02,1.91,0.05,2.86c0.01,0.18-0.06,0.25-0.24,0.24c-0.19-0.01-0.39,0-0.58,0
				c-0.32,0-0.32-0.01-0.32-0.32c0-1.12,0-2.23,0-3.35c0-0.41,0-0.82-0.01-1.23c-0.01-0.16,0.05-0.23,0.22-0.22
				c0.28,0.01,0.57,0.01,0.85,0c0.2-0.01,0.28,0.08,0.33,0.26c0.18,0.67,0.38,1.34,0.57,2c0.06,0.2,0.1,0.42,0.23,0.62
				c0.03-0.2,0.02-0.37,0-0.53c-0.07-0.7-0.02-1.41-0.04-2.12c0-0.18,0.05-0.25,0.23-0.23c0.23,0.01,0.46,0.01,0.68,0
				c0.17-0.01,0.26,0.05,0.24,0.23c-0.01,0.07,0,0.14,0,0.2c0,1.41,0,2.82,0,4.24c0,0.08,0,0.16,0,0.24c0.01,0.15-0.07,0.2-0.21,0.2
				c-0.28,0-0.57,0-0.85,0.01c-0.15,0.01-0.23-0.06-0.27-0.2c-0.09-0.33-0.2-0.65-0.29-0.98c-0.16-0.57-0.36-1.13-0.49-1.71
				C54.5,46.69,54.48,46.62,54.41,46.55z"/>
			<path class="st5" d="M138.4,46.96c0.52,0.22,0.65,0.62,0.62,1.1c-0.01,0.12,0,0.25,0,0.38c-0.02,0.67-0.38,1.08-1.04,1.18
				c-0.31,0.05-0.61,0.04-0.92,0.04c-0.27,0-0.55,0-0.82,0c-0.14,0-0.21-0.06-0.2-0.2c0-0.05,0-0.09,0-0.14
				c0-1.49-0.01-2.98-0.01-4.47c0-0.3,0-0.3,0.3-0.3c0.44,0,0.89-0.01,1.33,0c0.95,0.02,1.32,0.42,1.27,1.36
				C138.91,46.44,138.86,46.53,138.4,46.96z M137.25,48.78c0.54-0.05,0.6-0.13,0.61-0.61c0-0.06,0-0.11,0-0.17
				c-0.01-0.47-0.1-0.56-0.61-0.59C137.25,47.86,137.25,48.31,137.25,48.78z M137.23,45.43c0,0.33,0,0.63,0,0.94
				c0,0.14,0.05,0.18,0.18,0.17c0.24-0.02,0.35-0.12,0.36-0.36c0.01-0.15,0-0.3,0-0.44c0.01-0.15-0.08-0.23-0.21-0.27
				C137.48,45.43,137.38,45.41,137.23,45.43z"/>
			<path class="st5" d="M170.47,46.95c0.51,0.24,0.57,0.65,0.58,1.11c0,0.52-0.05,1.05,0.06,1.6c-0.35,0-0.68,0-1,0
				c-0.11,0-0.17-0.07-0.18-0.17c-0.02-0.14-0.04-0.27-0.04-0.41c-0.01-0.35,0-0.71,0-1.06c0-0.14-0.01-0.27-0.08-0.4
				c-0.06-0.11-0.32-0.24-0.45-0.2c-0.18,0.05-0.1,0.21-0.1,0.32c-0.01,0.55,0,1.09-0.01,1.64c0,0.26-0.01,0.26-0.27,0.27
				c-0.24,0.01-0.48,0-0.72,0c-0.11,0-0.17-0.05-0.16-0.17c0-0.06,0-0.11,0-0.17c0-1.46,0-2.92,0-4.38c0-0.08,0-0.16,0-0.24
				c0-0.11,0.05-0.16,0.16-0.16c0.59,0.01,1.19-0.02,1.78,0.02c0.63,0.04,0.96,0.41,1,1.04C171.07,46.13,171.06,46.64,170.47,46.95z
				 M169.27,45.43c0,0.38,0,0.76,0,1.14c0.51,0,0.61-0.1,0.6-0.59C169.88,45.5,169.8,45.43,169.27,45.43z"/>
			<path class="st5" d="M69.73,49.33c-0.23,0.22-0.47,0.35-0.75,0.38c-0.46,0.06-0.81-0.13-1-0.54c-0.12-0.26-0.18-0.54-0.18-0.83
				c-0.01-0.81-0.01-1.62,0-2.43c0-0.12,0.02-0.25,0.05-0.37c0.15-0.69,0.6-1.05,1.31-1.07c0.25-0.01,0.5-0.01,0.75,0.06
				c0.43,0.12,0.71,0.39,0.85,0.81c0.08,0.24,0.09,0.49,0.11,0.74c0.01,0.15-0.06,0.21-0.2,0.2c-0.27,0-0.55,0-0.82,0
				c-0.11,0-0.17-0.05-0.17-0.16c0-0.14,0-0.27-0.02-0.41c-0.03-0.21-0.16-0.32-0.33-0.32c-0.16,0-0.27,0.09-0.32,0.29
				c-0.02,0.1-0.03,0.2-0.03,0.3c0,0.74,0,1.48,0,2.22c0,0.13,0.01,0.25,0.06,0.37c0.05,0.15,0.16,0.22,0.31,0.21
				c0.15,0,0.27-0.08,0.31-0.23c0.06-0.22,0.05-0.45,0.03-0.68c-0.01-0.13-0.12-0.12-0.21-0.12c-0.16,0.01-0.2-0.08-0.19-0.21
				c0-0.19,0-0.39,0-0.58c0-0.11,0.05-0.17,0.17-0.17c0.42,0,0.84,0,1.27,0c0.14,0,0.17,0.07,0.17,0.19c0,0.81,0,1.62,0,2.43
				c0,0.17-0.08,0.22-0.23,0.22c-0.19,0-0.39,0-0.58,0C69.8,49.65,69.8,49.65,69.73,49.33z"/>
			<path class="st5" d="M78.19,47.12c0,0.42,0.02,0.84,0,1.26c-0.03,0.49-0.19,0.93-0.66,1.16c-0.56,0.27-1.15,0.27-1.71,0
				c-0.36-0.18-0.55-0.5-0.62-0.89c-0.03-0.18-0.05-0.36-0.05-0.54c-0.01-0.66-0.01-1.32,0-1.98c0-0.17,0.01-0.34,0.04-0.51
				c0.09-0.64,0.47-1.03,1.1-1.13c0.33-0.05,0.66-0.04,0.98,0.05c0.46,0.13,0.74,0.42,0.86,0.88c0.06,0.21,0.07,0.43,0.07,0.64
				C78.2,46.41,78.2,46.77,78.19,47.12C78.19,47.12,78.19,47.12,78.19,47.12z M77.02,47.1c0-0.36,0-0.73,0-1.09
				c0-0.14-0.02-0.27-0.06-0.4c-0.05-0.15-0.17-0.21-0.32-0.21c-0.14,0-0.24,0.09-0.28,0.21c-0.03,0.08-0.03,0.18-0.03,0.27
				c0,0.81,0,1.62,0,2.43c0,0.08,0,0.16,0.02,0.24c0.03,0.15,0.12,0.24,0.28,0.25c0.17,0.01,0.28-0.05,0.33-0.23
				c0.03-0.12,0.05-0.24,0.05-0.37C77.02,47.83,77.02,47.47,77.02,47.1z"/>
			<path class="st5" d="M128.69,47.09c0-0.34,0-0.68,0-1.03c0-0.11,0-0.23,0.02-0.34c0.1-0.8,0.59-1.24,1.4-1.25
				c0.2,0,0.41-0.01,0.61,0.04c0.55,0.13,0.86,0.48,0.98,1.02c0.02,0.11,0.04,0.23,0.05,0.34c0.02,0.89,0.07,1.78-0.03,2.66
				c-0.08,0.69-0.48,1.08-1.17,1.17c-0.15,0.02-0.3,0.03-0.44,0.02c-0.87-0.04-1.34-0.49-1.39-1.37c-0.03-0.42,0-0.84,0-1.26
				C128.69,47.09,128.69,47.09,128.69,47.09z M130.57,47.1C130.57,47.1,130.57,47.1,130.57,47.1c0-0.35,0-0.71,0-1.06
				c0-0.12-0.01-0.25-0.03-0.37c-0.03-0.17-0.14-0.26-0.31-0.27c-0.17-0.01-0.28,0.07-0.33,0.23c-0.04,0.13-0.05,0.27-0.05,0.4
				c0,0.72,0,1.43,0,2.15c0,0.14,0.01,0.27,0.06,0.4c0.06,0.15,0.16,0.21,0.32,0.21c0.17-0.01,0.28-0.09,0.31-0.26
				c0.02-0.11,0.03-0.23,0.03-0.34C130.57,47.83,130.57,47.47,130.57,47.1z"/>
			<path class="st5" d="M95.29,47.07c0-0.32,0-0.64,0-0.96c0-0.14,0-0.27,0.02-0.41c0.11-0.78,0.59-1.21,1.39-1.22
				c0.22,0,0.43-0.01,0.65,0.05c0.53,0.13,0.84,0.48,0.95,1c0.02,0.1,0.04,0.2,0.04,0.3c0.03,0.91,0.07,1.82-0.03,2.73
				c-0.08,0.67-0.49,1.05-1.16,1.14c-0.17,0.02-0.34,0.03-0.51,0.02c-0.83-0.07-1.29-0.52-1.34-1.36
				C95.28,47.93,95.3,47.5,95.29,47.07C95.3,47.07,95.3,47.07,95.29,47.07z M97.17,47.11C97.17,47.11,97.17,47.11,97.17,47.11
				c0-0.42,0.01-0.84-0.01-1.26c-0.01-0.3-0.14-0.46-0.35-0.46c-0.2-0.01-0.35,0.16-0.35,0.46c-0.01,0.83-0.01,1.66,0,2.49
				c0,0.31,0.14,0.46,0.35,0.45c0.22,0,0.33-0.14,0.35-0.45c0.01-0.09,0-0.18,0-0.27C97.17,47.75,97.17,47.43,97.17,47.11z"/>
			<path class="st5" d="M180.87,47.08c0-0.31,0-0.61,0-0.92c0-0.16,0-0.32,0.02-0.48c0.06-0.64,0.43-1.06,1.05-1.18
				c0.33-0.06,0.68-0.06,1.02,0.03c0.48,0.13,0.76,0.44,0.88,0.91c0.05,0.19,0.07,0.38,0.07,0.57c0,0.72,0.01,1.43,0,2.15
				c-0.01,1.09-0.57,1.61-1.66,1.55c-0.85-0.04-1.32-0.49-1.37-1.35C180.86,47.95,180.87,47.51,180.87,47.08
				C180.87,47.08,180.87,47.08,180.87,47.08z M182.04,47.08c0,0.39,0,0.77,0,1.16c0,0.11,0.01,0.23,0.04,0.34
				c0.03,0.14,0.14,0.21,0.28,0.21c0.15,0.01,0.27-0.04,0.33-0.19c0.03-0.09,0.05-0.18,0.05-0.27c0-0.83,0.01-1.66,0-2.49
				c0-0.32-0.13-0.44-0.36-0.45c-0.22-0.01-0.33,0.13-0.33,0.46C182.03,46.26,182.04,46.67,182.04,47.08z"/>
			<path class="st5" d="M163.38,49.66c-0.16-0.02-0.4,0.08-0.55-0.06c-0.15-0.14-0.08-0.39-0.12-0.58
				c-0.05-0.28-0.04-0.28-0.31-0.28c-0.51-0.01-0.52-0.01-0.58,0.48c-0.05,0.49-0.02,0.44-0.51,0.44c-0.17,0-0.34,0-0.51,0
				c-0.15,0-0.2-0.06-0.17-0.21c0.1-0.54,0.2-1.08,0.3-1.61c0.18-1,0.37-1.99,0.55-2.99c0.05-0.3,0.05-0.3,0.34-0.3
				c0.34,0,0.68,0,1.03,0c0.25,0,0.26,0.01,0.31,0.26c0.12,0.66,0.24,1.32,0.36,1.98c0.15,0.85,0.31,1.7,0.46,2.56
				c0.01,0.06,0.02,0.11,0.03,0.17c0.02,0.1-0.02,0.15-0.13,0.15C163.73,49.66,163.58,49.66,163.38,49.66z M162.03,47.72
				c0.12,0.08,0.23,0.05,0.35,0.05c0.13,0.01,0.18-0.05,0.17-0.18c-0.07-0.59-0.17-1.18-0.2-1.79
				C162.16,46.43,162.13,47.08,162.03,47.72z"/>
			<path class="st5" d="M104.91,46.2c-0.02,0-0.05,0-0.07,0c-0.14-0.01-0.29,0.05-0.4-0.03c-0.12-0.09-0.03-0.26-0.06-0.39
				c-0.01-0.07-0.03-0.14-0.06-0.2c-0.08-0.17-0.22-0.23-0.39-0.17c-0.17,0.06-0.26,0.23-0.2,0.41c0.04,0.12,0.12,0.22,0.2,0.31
				c0.17,0.19,0.36,0.35,0.55,0.52c0.25,0.21,0.51,0.42,0.73,0.67c0.41,0.46,0.44,0.99,0.26,1.54c-0.17,0.52-0.59,0.75-1.11,0.83
				c-0.3,0.05-0.59,0.04-0.88-0.03c-0.52-0.13-0.82-0.46-0.93-0.98c-0.01-0.03-0.01-0.07-0.02-0.1c-0.11-0.69-0.11-0.69,0.57-0.69
				c0.03,0,0.07,0,0.1,0c0.42,0,0.42,0,0.44,0.4c0.01,0.1,0.03,0.2,0.07,0.3c0.08,0.16,0.22,0.23,0.4,0.19
				c0.17-0.04,0.25-0.15,0.27-0.31c0.02-0.17-0.04-0.31-0.13-0.45c-0.11-0.15-0.24-0.27-0.39-0.38c-0.28-0.22-0.56-0.43-0.82-0.68
				c-0.49-0.47-0.56-1.05-0.38-1.67c0.14-0.46,0.51-0.69,0.96-0.78c0.35-0.07,0.7-0.07,1.05,0.03c0.49,0.14,0.78,0.51,0.82,1.02
				c0,0.01,0,0.02,0,0.03C105.49,46.31,105.6,46.19,104.91,46.2z"/>
			<path class="st5" d="M188.69,47.9c0.15,0.01,0.35-0.06,0.48,0.04c0.15,0.11,0.05,0.32,0.07,0.49c0.03,0.27,0.15,0.39,0.39,0.37
				c0.22-0.02,0.35-0.19,0.33-0.43c-0.02-0.22-0.14-0.38-0.3-0.52c-0.23-0.19-0.46-0.37-0.69-0.56c-0.14-0.12-0.28-0.23-0.41-0.36
				c-0.42-0.44-0.5-0.96-0.36-1.53c0.13-0.51,0.5-0.78,0.99-0.88c0.36-0.07,0.73-0.07,1.08,0.04c0.43,0.14,0.69,0.43,0.77,0.87
				c0.14,0.77,0.14,0.77-0.64,0.77c-0.01,0-0.02,0-0.03,0c-0.35-0.01-0.41,0.07-0.4-0.39c0-0.18-0.02-0.34-0.23-0.41
				c-0.15-0.05-0.27,0-0.36,0.12c-0.11,0.14-0.1,0.3,0.05,0.5c0.19,0.27,0.46,0.48,0.71,0.69c0.2,0.17,0.4,0.33,0.59,0.52
				c0.45,0.45,0.56,1.2,0.28,1.78c-0.14,0.28-0.37,0.47-0.65,0.58c-0.45,0.17-0.91,0.19-1.37,0.04c-0.53-0.17-0.82-0.55-0.87-1.11
				C188.03,47.9,188.03,47.9,188.69,47.9z"/>
			<path class="st5" d="M82.47,47.06c0-0.34,0-0.68,0-1.03c0-0.17,0-0.34,0.04-0.51c0.1-0.5,0.39-0.84,0.89-0.98
				c0.38-0.11,0.77-0.1,1.15-0.01c0.45,0.11,0.73,0.4,0.87,0.84c0.09,0.29,0.1,0.58,0.1,0.88c0,0.14-0.06,0.18-0.19,0.18
				c-0.27-0.01-0.55-0.01-0.82,0c-0.15,0-0.2-0.07-0.2-0.21c0-0.17,0-0.34-0.01-0.51c-0.02-0.2-0.15-0.31-0.34-0.31
				c-0.18,0-0.28,0.1-0.3,0.3c-0.01,0.09-0.01,0.18-0.01,0.27c0,0.75,0,1.51,0,2.26c0,0.09,0,0.18,0.02,0.27
				c0.03,0.21,0.15,0.3,0.35,0.29c0.19-0.01,0.28-0.09,0.29-0.3c0.01-0.23,0.01-0.46,0-0.68c0-0.14,0.05-0.18,0.18-0.18
				c0.29,0,0.57,0,0.86,0c0.13,0,0.19,0.05,0.18,0.18c-0.01,0.3,0,0.59-0.07,0.88c-0.13,0.58-0.49,0.91-1.07,1.01
				c-0.26,0.04-0.52,0.04-0.78,0c-0.63-0.1-1.06-0.53-1.1-1.16c-0.03-0.49-0.01-0.98-0.01-1.47C82.48,47.06,82.48,47.06,82.47,47.06
				z"/>
			<path class="st5" d="M60.98,47.08c0-0.75,0-1.5,0-2.26c0-0.28,0-0.28,0.28-0.28c0.68,0,1.37,0,2.05,0c0.29,0,0.29,0.01,0.3,0.31
				c0,0.15,0,0.3,0,0.44c-0.01,0.23-0.01,0.24-0.26,0.25c-0.3,0.01-0.59,0-0.89,0.01c-0.29,0-0.3,0-0.29,0.28
				c0.02,0.86-0.11,0.67,0.67,0.69c0.59,0.01,0.59,0,0.59,0.6c0,0.03,0,0.07,0,0.1c0,0.3,0,0.3-0.3,0.3c-0.25,0-0.5,0.01-0.75,0
				c-0.14,0-0.21,0.05-0.2,0.2c0.01,0.24,0,0.48,0,0.72c0,0.14,0.05,0.2,0.2,0.2c0.33-0.01,0.66-0.01,0.99,0
				c0.27,0,0.27,0.01,0.27,0.26c0,0.18-0.01,0.37,0,0.55c0.01,0.18-0.09,0.21-0.24,0.21c-0.73,0-1.46,0-2.19,0
				c-0.19,0-0.22-0.08-0.22-0.25C60.99,48.63,60.98,47.86,60.98,47.08C60.98,47.08,60.98,47.08,60.98,47.08z"/>
			<path class="st5" d="M148.8,47.11c0-0.76,0-1.53,0-2.29c0-0.28,0.01-0.28,0.29-0.28c0.22,0,0.43,0,0.65,0
				c0.24,0.01,0.24,0.01,0.24,0.26c0,0.96,0,1.91-0.01,2.87c0,0.23,0,0.46,0,0.68c0,0.29,0.01,0.29,0.31,0.29
				c0.25,0,0.5,0.01,0.75,0c0.16,0,0.23,0.05,0.22,0.22c-0.01,0.19-0.01,0.39-0.01,0.58c0,0.13-0.04,0.22-0.19,0.22
				c-0.69,0-1.39,0-2.08,0c-0.2,0-0.17-0.13-0.17-0.26C148.8,48.64,148.8,47.87,148.8,47.11C148.8,47.11,148.8,47.11,148.8,47.11z"
				/>
			<path class="st5" d="M114.54,47.08c0-0.74,0-1.48,0-2.22c0-0.31,0-0.31,0.32-0.32c0.23,0,0.46,0.01,0.68,0
				c0.15,0,0.21,0.06,0.2,0.21c0,0.07,0,0.14,0,0.21c0,1.42,0,2.85,0,4.27c0,0.09,0,0.18,0,0.27c0,0.1-0.06,0.15-0.15,0.15
				c-0.3,0-0.59,0-0.89,0c-0.12,0-0.15-0.08-0.15-0.18c0-0.22,0-0.43,0-0.65C114.55,48.24,114.55,47.66,114.54,47.08
				C114.55,47.08,114.55,47.08,114.54,47.08z"/>
			<path class="st5" d="M155.32,47.11c0-0.75,0-1.5,0-2.26c0-0.31,0-0.31,0.32-0.32c0.23,0,0.46,0.01,0.68,0
				c0.15,0,0.21,0.06,0.2,0.21c0,0.07,0,0.14,0,0.21c0,1.42,0,2.85,0,4.27c0,0.09,0,0.18,0,0.27c0,0.1-0.06,0.15-0.15,0.15
				c-0.3,0-0.59,0-0.89,0c-0.12,0-0.15-0.08-0.15-0.18c0-0.23,0-0.46,0-0.68C155.33,48.23,155.33,47.67,155.32,47.11
				C155.33,47.11,155.33,47.11,155.32,47.11z"/>
			<path class="st5" d="M90.99,47.11c0,0.75,0,1.5,0,2.25c0,0.28,0,0.29-0.28,0.29c-0.22,0.01-0.43,0.01-0.65,0
				c-0.24-0.01-0.24-0.01-0.24-0.26c0-0.16,0-0.32,0-0.48c0-1.32,0-2.64,0-3.96c0-0.08,0-0.16,0-0.24
				c-0.01-0.13,0.05-0.19,0.18-0.18c0.25,0.01,0.5,0,0.75,0c0.24,0,0.24,0.01,0.24,0.25C90.99,45.56,90.99,46.34,90.99,47.11
				C90.99,47.11,90.99,47.11,90.99,47.11z"/>
			<path class="st5" d="M143.28,47.11c0-0.75,0-1.5,0-2.26c0-0.31,0-0.31,0.32-0.32c0.22,0,0.43,0,0.65,0
				c0.13,0,0.19,0.04,0.18,0.18c-0.01,0.13,0,0.25,0,0.38c0,1.38,0,2.76,0,4.14c0,0.08,0,0.16,0,0.24c0.01,0.15-0.07,0.2-0.21,0.19
				c-0.23-0.01-0.46,0-0.68,0c-0.24-0.01-0.25-0.01-0.25-0.25c0-0.57,0-1.14,0-1.71C143.29,47.5,143.29,47.31,143.28,47.11
				C143.29,47.11,143.28,47.11,143.28,47.11z"/>
			<path class="st5" d="M176.52,47.07c0,0.76,0,1.52,0,2.29c0,0.29,0,0.29-0.28,0.3c-0.22,0.01-0.43,0-0.65,0
				c-0.16,0-0.21-0.07-0.21-0.23c0.01-0.53,0.01-1.07,0.01-1.6c0-1-0.01-2-0.01-3c0-0.28,0-0.28,0.28-0.28c0.19,0,0.39,0,0.58,0
				c0.28,0,0.28,0.01,0.28,0.28C176.52,45.57,176.52,46.32,176.52,47.07C176.52,47.07,176.52,47.07,176.52,47.07z"/>
			<path class="st5" d="M163.28,43.4c-0.33,0.27-0.66,0.54-1,0.8c-0.12,0.09-0.28,0.08-0.46,0.03c0.15-0.31,0.36-0.56,0.54-0.82
				c0.03-0.05,0.09-0.07,0.15-0.07c0.25,0,0.49,0,0.74,0C163.26,43.36,163.27,43.38,163.28,43.4z"/>
			<path class="st5" d="M76.18,44.22c0.18-0.3,0.37-0.57,0.58-0.83c0.05-0.07,0.14-0.06,0.22-0.06c0.2,0,0.41,0,0.61,0
				c0.01,0.03,0.02,0.06,0.02,0.07c-0.28,0.29-0.61,0.54-0.93,0.78C76.55,44.27,76.39,44.29,76.18,44.22z"/>
		</g>
	</g>
</g>
<g id="Layer_3">
</g>
</svg>
