<?xml version="1.0" encoding="utf-8"?>
<!-- Generator: Adobe Illustrator 24.1.2, SVG Export Plug-In . SVG Version: 6.00 Build 0)  -->
<svg version="1.1" xmlns="http://www.w3.org/2000/svg" xmlns:xlink="http://www.w3.org/1999/xlink" x="0px" y="0px"
	 viewBox="0 0 75 75" style="enable-background:new 0 0 75 75;" xml:space="preserve">
<style type="text/css">
	.st0{fill:#F4F4F4;}
	.st1{fill:#E4E4E7;}
	.st2{fill:#FFFFFF;}
	.st3{fill:#0D3F80;}
	.st4{fill:none;stroke:#0D3F80;stroke-width:2;stroke-miterlimit:10;}
	.st5{clip-path:url(#SVGID_2_);fill:#67675E;}
	.st6{clip-path:url(#SVGID_2_);}
	.st7{clip-path:url(#SVGID_2_);fill:url(#SVGID_5_);}
	.st8{clip-path:url(#SVGID_2_);fill:#76787A;}
	.st9{opacity:0.03;clip-path:url(#SVGID_2_);}
	.st10{fill:#E69339;}
	.st11{clip-path:url(#SVGID_7_);}
	.st12{fill:none;stroke:#76787A;stroke-width:0.5;stroke-miterlimit:10;}
	.st13{fill:#0F4B8E;}
	.st14{clip-path:url(#SVGID_9_);}
	.st15{clip-path:url(#SVGID_11_);}
	.st16{clip-path:url(#SVGID_13_);}
	.st17{clip-path:url(#SVGID_15_);}
	.st18{clip-path:url(#SVGID_17_);}
	.st19{fill:none;stroke:#D9DCE4;stroke-width:1.3;stroke-linecap:round;stroke-linejoin:round;stroke-miterlimit:10;}
	.st20{fill:#B7B7B7;}
	.st21{fill:#A3A3A3;}
	.st22{fill:none;stroke:#D9DCE4;stroke-width:3;stroke-linecap:round;stroke-linejoin:round;stroke-miterlimit:10;}
	.st23{fill:none;stroke:#0F4B90;stroke-width:3;stroke-linecap:round;stroke-linejoin:round;stroke-miterlimit:10;}
	.st24{clip-path:url(#SVGID_19_);}
	.st25{opacity:0.9;}
	.st26{clip-path:url(#SVGID_21_);}
	.st27{clip-path:url(#SVGID_23_);}
	.st28{opacity:0.5;fill:#1D1D1B;}
	.st29{fill:#E89539;}
	.st30{fill:none;stroke:#E89539;stroke-miterlimit:10;}
	.st31{fill:none;stroke:#D1D1D1;stroke-width:0.5;stroke-miterlimit:10;}
	.st32{fill:none;stroke:#0F4B90;stroke-width:2;stroke-linecap:round;stroke-linejoin:round;stroke-miterlimit:10;}
	.st33{clip-path:url(#SVGID_25_);}
	.st34{clip-path:url(#SVGID_27_);}
	.st35{clip-path:url(#SVGID_29_);}
	.st36{clip-path:url(#SVGID_31_);}
	.st37{fill:#C8C8C8;}
	.st38{clip-path:url(#SVGID_33_);}
	.st39{clip-path:url(#SVGID_35_);}
	.st40{clip-path:url(#SVGID_37_);}
	.st41{clip-path:url(#SVGID_39_);}
	.st42{clip-path:url(#SVGID_41_);}
	.st43{clip-path:url(#SVGID_43_);}
	.st44{fill:#C5C5C5;}
	.st45{fill:#76787A;}
	.st46{fill:#00923A;}
	.st47{fill:#F5D600;}
	.st48{fill:#002776;}
	.st49{clip-path:url(#SVGID_45_);}
	.st50{fill:none;stroke:#FFFFFF;stroke-width:0.75;stroke-linecap:round;stroke-linejoin:round;stroke-miterlimit:10;}
	.st51{clip-path:url(#SVGID_63_);}
	.st52{clip-path:url(#SVGID_81_);}
	.st53{clip-path:url(#SVGID_99_);}
	.st54{fill:url(#SVGID_116_);}
	.st55{fill:none;stroke:#FFFFFF;stroke-width:0.75;stroke-miterlimit:10;}
	.st56{fill:url(#SVGID_117_);}
	.st57{fill:url(#SVGID_118_);}
	.st58{fill:url(#SVGID_119_);}
	.st59{opacity:0.4;}
</style>
<g id="quem_somos">
	<g>
		<path class="st3" d="M2.46,41.23c0.01-14.89,10.71-27.54,25.49-30.1c6.37-1.1,12.48-0.21,18.33,2.52c0.36,0.17,0.7,0.36,0.88,0.75
			c0.26,0.56,0.2,1.09-0.22,1.54c-0.45,0.48-1.01,0.55-1.59,0.27c-1.38-0.66-2.79-1.23-4.26-1.66
			c-14.23-4.21-29.16,3.29-34.26,17.22C0.88,48.05,11.31,65.96,28.4,68.81c12.77,2.13,25.24-4.59,30.31-16.47
			c3.26-7.64,3.07-15.31-0.34-22.89c-0.5-1.12-0.37-1.9,0.42-2.26c0.83-0.38,1.51-0.01,2.03,1.1c8.11,17.3-1.53,37.86-19.99,42.64
			C23.42,75.45,6.02,64.23,2.9,46.48C2.6,44.75,2.46,43,2.46,41.23z"/>
		<path class="st3" d="M12.21,41.42c-0.03-12.51,10.8-22.2,23.11-20.86c1.8,0.2,3.55,0.61,5.24,1.26c0.91,0.35,1.29,1.05,1,1.83
			c-0.28,0.76-1.04,1.02-1.97,0.68c-10.72-3.92-22.02,2.31-24.34,13.44c-2.07,9.92,4.9,19.92,14.92,21.43
			c10.05,1.51,19.04-4.92,20.8-14.93c0.56-3.16,0.23-6.27-0.87-9.29c-0.04-0.11-0.09-0.21-0.12-0.32c-0.28-0.85,0-1.57,0.73-1.85
			c0.76-0.29,1.49,0.08,1.82,0.92c0.77,2,1.24,4.07,1.37,6.21c0.63,10.42-6.34,19.6-16.55,21.79C25.65,64.26,13.94,56,12.43,44.15
			C12.3,43.19,12.25,42.22,12.21,41.42z"/>
		<path class="st3" d="M63.94,20.06c-2.02-0.23-4.04-0.45-6.06-0.71c-0.57-0.07-0.98,0.04-1.41,0.47
			c-7.28,7.31-14.58,14.6-21.88,21.9c-0.23,0.23-0.45,0.47-0.71,0.66c-0.55,0.41-1.3,0.34-1.77-0.14c-0.47-0.48-0.51-1.23-0.09-1.78
			c0.17-0.22,0.38-0.41,0.57-0.6c7.31-7.31,14.62-14.63,21.95-21.93c0.45-0.45,0.56-0.86,0.49-1.47c-0.27-2.06-0.49-4.13-0.73-6.2
			c-0.06-0.49,0.11-0.91,0.46-1.26c2.93-2.93,5.84-5.87,8.79-8.78c0.85-0.84,1.94-0.52,2.34,0.63c0.57,1.68,1.14,3.37,1.68,5.07
			c0.15,0.46,0.37,0.72,0.85,0.87c1.7,0.53,3.38,1.11,5.07,1.68c1.23,0.42,1.49,1.5,0.58,2.42c-2.87,2.89-5.75,5.76-8.62,8.65
			C65.02,19.99,64.53,20.15,63.94,20.06z M63.51,17.28c0.24,0.06,0.43-0.07,0.63-0.26c2.07-2.08,4.15-4.16,6.23-6.23
			c0.29-0.29,0.27-0.41-0.13-0.53C69,9.86,67.79,9.42,66.55,9.03c-0.63-0.2-1.01-0.58-1.21-1.22c-0.37-1.19-0.79-2.37-1.17-3.56
			c-0.14-0.43-0.23-0.62-0.64-0.19c-2.03,2.06-4.08,4.1-6.13,6.14c-0.24,0.24-0.32,0.47-0.28,0.8c0.2,1.72,0.4,3.45,0.58,5.17
			c0.03,0.29,0.14,0.47,0.46,0.5C59.93,16.88,61.7,17.08,63.51,17.28z"/>
		<path class="st3" d="M21.99,41.28c0.01-6.6,5.82-11.83,12.25-11.03c1.07,0.13,1.59,0.65,1.52,1.5c-0.07,0.85-0.69,1.26-1.76,1.18
			c-3.98-0.3-7.37,1.78-8.75,5.35c-1.77,4.59,0.79,9.72,5.54,11.09c4.7,1.35,9.59-1.64,10.54-6.44c0.18-0.89,0.18-1.79,0.11-2.69
			c-0.08-0.91,0.36-1.52,1.13-1.61c0.83-0.1,1.42,0.4,1.54,1.31c0.76,5.85-3.4,11.44-9.14,12.29c-6.22,0.92-11.81-3.02-12.82-9.02
			C22.03,42.58,22,41.93,21.99,41.28z"/>
	</g>
</g>
<g id="simule_um_financiamento">
</g>
<g id="locação">
</g>
<g id="imóvel">
</g>
<g id="venda_00000113349875049179142070000008859431808294898344_">
</g>
<g id="header">
</g>
<g id="footer">
</g>
<g id="Layer_3">
</g>
</svg>
