<?xml version="1.0" encoding="utf-8"?>
<!-- Generator: Adobe Illustrator 24.1.2, SVG Export Plug-In . SVG Version: 6.00 Build 0)  -->
<svg version="1.1" xmlns="http://www.w3.org/2000/svg" xmlns:xlink="http://www.w3.org/1999/xlink" x="0px" y="0px"
	 viewBox="0 0 50 50" style="enable-background:new 0 0 50 50;" xml:space="preserve">
<style type="text/css">
	.st0{opacity:0.07;}
	.st1{fill:#FFFFFF;}
	.st2{fill:#0F4B93;}
	.st3{fill:#0D3F85;}
	.st4{fill:#212529;}
	.st5{fill:#CACACA;}
	.st6{fill:#76787A;}
	.st7{clip-path:url(#SVGID_2_);}
	.st8{opacity:0.18;fill:#76787A;}
	.st9{fill:#E9E9EC;}
	.st10{fill:none;stroke:#FFFFFF;stroke-width:1.5;stroke-miterlimit:10;}
	.st11{fill:none;stroke:#3C3C3B;stroke-width:2;stroke-miterlimit:10;}
	.st12{fill:#00973A;}
	.st13{fill:#FADB00;}
	.st14{fill:#002776;}
	.st15{clip-path:url(#SVGID_4_);}
	.st16{fill:none;stroke:#FFFFFF;stroke-width:0.75;stroke-linecap:round;stroke-linejoin:round;stroke-miterlimit:10;}
	.st17{opacity:0.5;}
	.st18{fill:none;stroke:#0F4B93;stroke-width:3;stroke-linecap:round;stroke-linejoin:round;stroke-miterlimit:10;}
	.st19{clip-path:url(#SVGID_22_);}
	.st20{clip-path:url(#SVGID_24_);}
	.st21{fill:none;stroke:#76787A;stroke-width:0.5;stroke-miterlimit:10;}
	.st22{clip-path:url(#SVGID_26_);}
	.st23{clip-path:url(#SVGID_28_);}
	.st24{clip-path:url(#SVGID_30_);}
	.st25{clip-path:url(#SVGID_32_);}
	.st26{fill:url(#SVGID_35_);}
	.st27{fill:url(#SVGID_36_);}
	.st28{opacity:0.05;}
	.st29{opacity:0.7;}
	.st30{fill:none;stroke:#212529;stroke-width:1.5;stroke-miterlimit:10;}
	.st31{fill:#FFFFFF;stroke:#0D3F85;stroke-width:1.5;stroke-miterlimit:10;}
	.st32{fill:url(#SVGID_37_);}
	.st33{fill:none;stroke:#FFFFFF;stroke-width:0.75;stroke-miterlimit:10;}
</style>
<g id="encontre_seu_imóvel">
</g>
<g id="imóveis_em_destaque">
	<g>
		<g>
			<path class="st2" d="M11.84,18.86c0.49,0,0.99,0,1.48,0c0.44,0,0.61,0.17,0.62,0.62c0,0.22,0,0.44,0,0.66
				c0,0.14-0.03,0.29,0.2,0.3c0.19,0,0.33,0,0.38-0.24c0.13-0.7,0.28-1.4,0.43-2.09c0.39-1.79,1.68-2.84,3.52-2.84
				c4.14,0,8.28,0,12.42,0c0.53,0,1.06-0.04,1.57,0.1c1.37,0.36,2.22,1.23,2.55,2.6c0.17,0.72,0.32,1.43,0.45,2.16
				c0.05,0.24,0.16,0.29,0.38,0.28c0.26-0.01,0.2-0.18,0.2-0.32c0.01-0.23,0-0.46,0.01-0.69c0.02-0.33,0.19-0.52,0.51-0.52
				c1.05-0.01,2.11-0.01,3.16,0c0.32,0,0.52,0.19,0.53,0.51c0.02,0.67,0.01,1.34,0,2.01c0,0.28-0.16,0.48-0.45,0.52
				c-1.03,0.17-2.05,0.35-3.08,0.51c-0.44,0.07-0.65-0.15-0.66-0.6c0-0.07,0-0.13,0-0.2c0-0.11-0.03-0.2-0.17-0.18
				c-0.14,0.01-0.11,0.12-0.1,0.2c0.07,0.37,0.16,0.73,0.23,1.09c0.03,0.13,0.12,0.17,0.21,0.23c1.15,0.71,1.73,1.74,1.88,3.08
				c0.26,2.3,0.26,4.6,0.25,6.91c-0.01,1.05-0.72,1.78-1.78,1.79c-0.92,0.01-1.85,0.01-2.77,0c-1.06-0.01-1.77-0.73-1.78-1.79
				c-0.01-0.5,0.07-0.45-0.46-0.45c-4.41,0-8.81,0-13.22,0c-0.43,0-0.43,0-0.43,0.41c-0.01,1.12-0.72,1.82-1.84,1.83
				c-0.89,0-1.78,0-2.67,0c-1.11,0-1.82-0.71-1.82-1.81c-0.01-1.26-0.03-2.53,0.01-3.79c0.04-1.23,0.13-2.46,0.33-3.67
				c0.18-1.09,0.81-1.91,1.75-2.48c0.18-0.11,0.27-0.23,0.3-0.43c0.05-0.27,0.13-0.53,0.17-0.8c0.01-0.1,0.16-0.28-0.06-0.32
				c-0.22-0.03-0.15,0.16-0.17,0.28c0,0.02,0,0.04,0,0.07c-0.01,0.51-0.22,0.7-0.73,0.62c-0.74-0.11-1.47-0.24-2.21-0.36
				c-0.27-0.04-0.54-0.09-0.81-0.14c-0.32-0.06-0.48-0.25-0.48-0.57c0-0.64-0.01-1.27,0-1.91c0-0.38,0.2-0.56,0.57-0.57
				C10.81,18.86,11.32,18.86,11.84,18.86z M25,23.49c-3.08,0-6.15,0-9.23,0c-1.47,0-2.65,0.94-2.82,2.3
				c-0.14,1.11-0.24,2.23-0.28,3.35c-0.05,1.25-0.01,2.5-0.01,3.76c0,0.56,0.24,0.8,0.81,0.8c0.85,0,1.69,0,2.54,0
				c0.71,0,0.96-0.28,0.91-1c-0.01-0.16-0.07-0.21-0.22-0.2c-0.3,0.01-0.59,0.01-0.89,0c-0.23-0.01-0.4-0.11-0.49-0.33
				c-0.07-0.19-0.05-0.37,0.09-0.52c0.14-0.17,0.34-0.18,0.54-0.18c1.44,0,2.88-0.01,4.32,0.01c0.32,0,0.39-0.1,0.38-0.39
				c-0.02-0.37-0.01-0.75,0-1.12c0.01-0.37,0.19-0.54,0.56-0.55c2.54,0,5.08,0,7.61,0c0.36,0,0.55,0.18,0.56,0.55
				c0.01,0.36,0.02,0.73,0,1.09c-0.02,0.32,0.06,0.43,0.41,0.43c1.45-0.02,2.9-0.01,4.35-0.01c0.37,0,0.6,0.2,0.6,0.51
				c0,0.31-0.23,0.51-0.59,0.52c-0.27,0.01-0.55,0-0.82,0c-0.08,0-0.17-0.02-0.21,0.1c-0.19,0.57,0.17,1.09,0.77,1.1
				c0.91,0,1.82,0.01,2.74,0c0.48,0,0.74-0.26,0.74-0.73c-0.02-1.62,0.08-3.25-0.07-4.87c-0.07-0.75-0.11-1.51-0.21-2.26
				c-0.17-1.37-1.35-2.33-2.83-2.33C31.16,23.49,28.08,23.49,25,23.49z M25,22.46c3.18,0,6.37,0,9.55,0.01
				c0.29,0,0.37-0.05,0.3-0.37c-0.29-1.29-0.55-2.6-0.82-3.89c-0.24-1.15-1.17-1.92-2.34-1.92c-4.45,0-8.9,0-13.34,0
				c-1.18,0-2.11,0.75-2.36,1.91c-0.28,1.3-0.53,2.6-0.82,3.89c-0.07,0.33,0.01,0.38,0.31,0.38C18.65,22.46,21.82,22.46,25,22.46z
				 M25,31.46c0.89,0,1.78,0,2.67,0c0.68,0,0.67,0,0.68-0.67c0.01-0.28-0.08-0.35-0.35-0.35c-1.89,0.01-3.78,0.01-5.66,0.01
				c-0.69,0-0.68,0-0.68,0.7c0,0.25,0.07,0.32,0.32,0.31C22.98,31.45,23.99,31.46,25,31.46z M38.19,19.9c-0.3,0-0.59,0-0.89,0
				c-0.13,0-0.21,0.03-0.21,0.18c0,0.35,0,0.7,0,1.05c0,0.12,0.05,0.18,0.18,0.15c0.6-0.1,1.21-0.21,1.81-0.3
				c0.1-0.02,0.17-0.04,0.16-0.16c-0.01-0.29,0.1-0.64-0.05-0.87c-0.11-0.17-0.45-0.04-0.69-0.06C38.41,19.89,38.3,19.9,38.19,19.9z
				 M11.83,19.89c-0.29,0-0.57,0-0.86,0c-0.08,0-0.2-0.03-0.21,0.1c-0.01,0.3-0.01,0.59,0,0.89c0,0.1,0.11,0.09,0.18,0.1
				c0.58,0.1,1.17,0.19,1.75,0.3c0.16,0.03,0.22-0.01,0.22-0.17c0-0.33-0.01-0.66,0-0.99c0-0.17-0.06-0.24-0.23-0.23
				C12.4,19.89,12.11,19.89,11.83,19.89z"/>
			<path class="st2" d="M16.95,28.85c-0.49-0.02-1.1,0.04-1.7-0.03c-1.07-0.14-1.76-1.12-1.57-2.23c0.17-1.04,1.15-1.7,2.19-1.48
				c1.12,0.23,2.23,0.46,3.35,0.67c0.61,0.11,1.08,0.37,1.25,1.01c0.17,0.64-0.11,1.14-0.54,1.57c-0.38,0.38-0.86,0.5-1.39,0.5
				C18.05,28.85,17.55,28.85,16.95,28.85z M17.06,27.81C17.06,27.81,17.06,27.81,17.06,27.81c0.52,0,1.03,0,1.55,0
				c0.33,0,0.59-0.12,0.77-0.41c0.2-0.32,0.13-0.5-0.25-0.58c-1.15-0.24-2.3-0.47-3.45-0.7c-0.33-0.07-0.61,0.02-0.81,0.3
				c-0.21,0.28-0.25,0.59-0.11,0.9c0.14,0.33,0.41,0.48,0.76,0.49C16.03,27.82,16.54,27.81,17.06,27.81z"/>
			<path class="st2" d="M33.18,28.83c-0.53,0-1.05,0-1.58,0c-0.8-0.01-1.35-0.41-1.69-1.1c-0.39-0.79,0.03-1.69,0.89-1.88
				c1.24-0.27,2.49-0.53,3.74-0.77c0.98-0.19,1.95,0.56,2.08,1.57c0.14,1.11-0.57,2.09-1.62,2.16c-0.6,0.04-1.21,0.01-1.81,0.01
				C33.18,28.82,33.18,28.83,33.18,28.83z M33.18,27.8c0-0.01,0-0.01,0-0.02c0.57,0,1.14,0.03,1.71-0.01
				c0.49-0.04,0.76-0.48,0.68-0.98c-0.08-0.49-0.46-0.77-0.95-0.68c-1.18,0.23-2.37,0.47-3.55,0.72c-0.27,0.06-0.34,0.24-0.22,0.49
				c0.17,0.33,0.44,0.48,0.8,0.48C32.17,27.8,32.67,27.8,33.18,27.8z"/>
		</g>
	</g>
</g>
<g id="simule_um_financiamento">
</g>
<g id="anuncie_x2C__encontre_x2C__fale_conosco">
</g>
<g id="bairros_mais_procurados">
</g>
<g id="modelos_mais_buscados">
</g>
<g id="footer">
</g>
<g id="Layer_3">
</g>
</svg>
