<?xml version="1.0" encoding="utf-8"?>
<!-- Generator: Adobe Illustrator 24.1.2, SVG Export Plug-In . SVG Version: 6.00 Build 0)  -->
<svg version="1.1" xmlns="http://www.w3.org/2000/svg" xmlns:xlink="http://www.w3.org/1999/xlink" x="0px" y="0px"
	 viewBox="0 0 120 120" style="enable-background:new 0 0 120 120;" xml:space="preserve">
<style type="text/css">
	.st0{opacity:0.07;}
	.st1{fill:#FFFFFF;}
	.st2{fill:#0F4B93;}
	.st3{fill:#0D3F85;}
	.st4{fill:#212529;}
	.st5{fill:#CACACA;}
	.st6{fill:#76787A;}
	.st7{clip-path:url(#SVGID_2_);}
	.st8{opacity:0.18;fill:#76787A;}
	.st9{fill:#E9E9EC;}
	.st10{fill:none;stroke:#FFFFFF;stroke-width:1.5;stroke-miterlimit:10;}
	.st11{fill:none;stroke:#3C3C3B;stroke-width:2;stroke-miterlimit:10;}
	.st12{fill:#00973A;}
	.st13{fill:#FADB00;}
	.st14{fill:#002776;}
	.st15{clip-path:url(#SVGID_4_);}
	.st16{fill:none;stroke:#FFFFFF;stroke-width:0.75;stroke-linecap:round;stroke-linejoin:round;stroke-miterlimit:10;}
	.st17{opacity:0.5;}
	.st18{fill:none;stroke:#0F4B93;stroke-width:3;stroke-linecap:round;stroke-linejoin:round;stroke-miterlimit:10;}
	.st19{clip-path:url(#SVGID_22_);}
	.st20{clip-path:url(#SVGID_24_);}
	.st21{fill:none;stroke:#76787A;stroke-width:0.5;stroke-miterlimit:10;}
	.st22{clip-path:url(#SVGID_26_);}
	.st23{clip-path:url(#SVGID_28_);}
	.st24{clip-path:url(#SVGID_30_);}
	.st25{clip-path:url(#SVGID_32_);}
	.st26{fill:url(#SVGID_35_);}
	.st27{fill:url(#SVGID_36_);}
	.st28{opacity:0.05;}
	.st29{opacity:0.7;}
	.st30{fill:none;stroke:#212529;stroke-width:1.5;stroke-miterlimit:10;}
	.st31{fill:#FFFFFF;stroke:#0D3F85;stroke-width:1.5;stroke-miterlimit:10;}
	.st32{fill:url(#SVGID_37_);}
	.st33{fill:none;stroke:#FFFFFF;stroke-width:0.75;stroke-miterlimit:10;}
</style>
<g id="encontre_seu_imóvel">
</g>
<g id="imóveis_em_destaque">
</g>
<g id="simule_um_financiamento">
</g>
<g id="anuncie_x2C__encontre_x2C__fale_conosco">
	<g>
		<path class="st3" d="M76.96,65.44c0.08,0.01,0.15,0.02,0.23,0.02c0.29,0,0.56-0.09,0.8-0.26c7.22-5.07,9.24-14.9,4.61-22.39
			c-0.2-0.32-0.51-0.54-0.87-0.62c-0.37-0.09-0.74-0.02-1.05,0.17c-0.32,0.2-0.55,0.51-0.64,0.87c-0.09,0.36-0.03,0.74,0.17,1.06
			l0,0c3.86,6.23,2.18,14.41-3.83,18.62c-0.31,0.22-0.51,0.54-0.58,0.91c-0.06,0.37,0.02,0.73,0.24,1.03
			C76.26,65.17,76.59,65.37,76.96,65.44z"/>
		<path class="st3" d="M87.45,32.54c-5.06-5.07-11.82-7.87-19.03-7.87c-7.2,0-13.92,2.76-18.94,7.78
			c-3.49,3.44-5.96,7.79-7.14,12.57c-1.94,7.57-0.55,15.29,3.9,21.77L25.77,87.29c-0.71,0.71-1.11,1.66-1.1,2.67
			c0,1,0.4,1.94,1.1,2.64l1.62,1.63c0.71,0.71,1.66,1.1,2.66,1.1c0,0,0.01,0,0.01,0c1,0,1.94-0.39,2.64-1.1l20.48-20.48
			c6.49,4.47,14.21,5.85,21.77,3.91c4.77-1.17,9.13-3.63,12.6-7.13c5.02-5.01,7.78-11.73,7.78-18.94
			C95.33,44.37,92.53,37.61,87.45,32.54z M44.3,53.38c-0.09-1.25-0.06-2.54,0.07-3.82c0.03-0.1,0.05-0.19,0.05-0.27
			c0.06-0.67,0.13-1.21,0.21-1.69c0.82-4.62,2.89-8.89,5.98-12.33c4.09-4.48,9.68-7.22,15.71-7.73c0.08,0,0.16-0.02,0.21-0.03
			c0.68-0.04,1.29-0.06,1.86-0.06c0.92,0.03,1.67,0.07,2.36,0.13c0.08,0.02,0.13,0.02,0.15,0.02c5.49,0.56,10.67,3.02,14.57,6.92
			c3.9,3.92,6.36,9.09,6.92,14.54c0,0.04,0,0.08,0.02,0.16c0.07,0.71,0.11,1.45,0.11,2.35c0,0.64-0.03,1.26-0.07,1.88
			c-0.01,0.04-0.02,0.08-0.03,0.16c-0.51,6.05-3.26,11.64-7.73,15.74c-3.45,3.1-7.71,5.17-12.33,5.98
			c-0.57,0.09-1.13,0.16-1.73,0.22l-0.18,0.04c-1.31,0.12-2.61,0.15-3.87,0.07c-0.14-0.06-0.28-0.1-0.43-0.11
			c-4.68-0.44-9.25-2.3-12.88-5.23c-0.67-0.54-1.3-1.1-1.92-1.7c-0.61-0.62-1.17-1.25-1.71-1.93c-2.97-3.68-4.78-8.13-5.23-12.88
			C44.4,53.66,44.37,53.52,44.3,53.38z M47.97,69.06c0.45,0.52,0.93,1.05,1.44,1.56c0.51,0.5,1.02,0.97,1.54,1.42L37.34,85.64
			l-2.98-2.98L47.97,69.06z M29.39,92.24l-1.64-1.64c-0.17-0.17-0.27-0.41-0.27-0.66c0-0.26,0.1-0.5,0.28-0.68l4.62-4.62l2.98,2.98
			l-4.62,4.62C30.37,92.62,29.76,92.62,29.39,92.24z"/>
		<path class="st3" d="M68.43,72.58c5.62,0,10.9-2.18,14.86-6.14c8.19-8.19,8.19-21.52,0-29.72c-8.19-8.19-21.52-8.19-29.72,0
			c-3.96,3.96-6.14,9.24-6.14,14.86C47.42,63.16,56.85,72.58,68.43,72.58z M50.22,51.58c0-10.04,8.17-18.21,18.21-18.21
			c4.86,0,9.44,1.89,12.88,5.32c7.1,7.1,7.1,18.66,0,25.76c-3.43,3.43-8.01,5.32-12.88,5.32C58.39,69.78,50.22,61.62,50.22,51.58z"
			/>
	</g>
</g>
<g id="bairros_mais_procurados">
</g>
<g id="modelos_mais_buscados">
</g>
<g id="footer">
</g>
<g id="Layer_3">
</g>
</svg>
