<?xml version="1.0" encoding="utf-8"?>
<!-- Generator: Adobe Illustrator 24.1.2, SVG Export Plug-In . SVG Version: 6.00 Build 0)  -->
<svg version="1.1" xmlns="http://www.w3.org/2000/svg" xmlns:xlink="http://www.w3.org/1999/xlink" x="0px" y="0px"
	 viewBox="0 0 85 88" style="enable-background:new 0 0 85 88;" xml:space="preserve">
<style type="text/css">
	.st0{fill:#F4F4F4;}
	.st1{fill:#E4E4E7;}
	.st2{fill:#FFFFFF;}
	.st3{fill:#0D3F80;}
	.st4{fill:none;stroke:#0D3F80;stroke-width:2;stroke-miterlimit:10;}
	.st5{clip-path:url(#SVGID_2_);fill:#67675E;}
	.st6{clip-path:url(#SVGID_2_);}
	.st7{clip-path:url(#SVGID_2_);fill:url(#SVGID_5_);}
	.st8{clip-path:url(#SVGID_2_);fill:#76787A;}
	.st9{opacity:0.03;clip-path:url(#SVGID_2_);}
	.st10{fill:#E69339;}
	.st11{clip-path:url(#SVGID_7_);}
	.st12{fill:none;stroke:#76787A;stroke-width:0.5;stroke-miterlimit:10;}
	.st13{fill:#0F4B8E;}
	.st14{clip-path:url(#SVGID_9_);}
	.st15{clip-path:url(#SVGID_11_);}
	.st16{clip-path:url(#SVGID_13_);}
	.st17{clip-path:url(#SVGID_15_);}
	.st18{clip-path:url(#SVGID_17_);}
	.st19{fill:none;stroke:#D9DCE4;stroke-width:1.3;stroke-linecap:round;stroke-linejoin:round;stroke-miterlimit:10;}
	.st20{fill:#B7B7B7;}
	.st21{fill:#A3A3A3;}
	.st22{fill:none;stroke:#D9DCE4;stroke-width:3;stroke-linecap:round;stroke-linejoin:round;stroke-miterlimit:10;}
	.st23{fill:none;stroke:#0F4B90;stroke-width:3;stroke-linecap:round;stroke-linejoin:round;stroke-miterlimit:10;}
	.st24{clip-path:url(#SVGID_19_);}
	.st25{opacity:0.9;}
	.st26{clip-path:url(#SVGID_21_);}
	.st27{clip-path:url(#SVGID_23_);}
	.st28{opacity:0.5;fill:#1D1D1B;}
	.st29{fill:#E89539;}
	.st30{fill:none;stroke:#E89539;stroke-miterlimit:10;}
	.st31{fill:none;stroke:#D1D1D1;stroke-width:0.5;stroke-miterlimit:10;}
	.st32{fill:none;stroke:#0F4B90;stroke-width:2;stroke-linecap:round;stroke-linejoin:round;stroke-miterlimit:10;}
	.st33{clip-path:url(#SVGID_25_);}
	.st34{clip-path:url(#SVGID_27_);}
	.st35{clip-path:url(#SVGID_29_);}
	.st36{clip-path:url(#SVGID_31_);}
	.st37{fill:#C8C8C8;}
	.st38{clip-path:url(#SVGID_33_);}
	.st39{clip-path:url(#SVGID_35_);}
	.st40{clip-path:url(#SVGID_37_);}
	.st41{clip-path:url(#SVGID_39_);}
	.st42{clip-path:url(#SVGID_41_);}
	.st43{clip-path:url(#SVGID_43_);}
	.st44{fill:#C5C5C5;}
	.st45{fill:#76787A;}
	.st46{fill:#00923A;}
	.st47{fill:#F5D600;}
	.st48{fill:#002776;}
	.st49{clip-path:url(#SVGID_45_);}
	.st50{fill:none;stroke:#FFFFFF;stroke-width:0.75;stroke-linecap:round;stroke-linejoin:round;stroke-miterlimit:10;}
	.st51{clip-path:url(#SVGID_63_);}
	.st52{clip-path:url(#SVGID_81_);}
	.st53{clip-path:url(#SVGID_99_);}
	.st54{fill:url(#SVGID_116_);}
	.st55{fill:none;stroke:#FFFFFF;stroke-width:0.75;stroke-miterlimit:10;}
	.st56{fill:url(#SVGID_117_);}
	.st57{fill:url(#SVGID_118_);}
	.st58{fill:url(#SVGID_119_);}
	.st59{opacity:0.4;}
</style>
<g id="quem_somos">
	<g>
		<path class="st3" d="M42.91,64.38c-8.33-0.09-16.27-2.66-23.57-7.33c-4.08-2.61-7.67-5.78-10.87-9.41
			c-1.96-2.22-1.96-5.32-0.02-7.55c1.07-1.23,2.21-2.4,3.4-3.53c6.15-5.82,13.25-9.95,21.5-11.99c9.78-2.42,19.21-1.25,28.3,2.98
			c6.42,2.99,11.85,7.28,16.52,12.57c1.89,2.14,1.93,5.27,0.06,7.39c-7.16,8.11-15.86,13.68-26.53,15.98
			C48.93,64.09,46.12,64.35,42.91,64.38z M25.18,43.84c-0.06,9.74,8.09,18.52,18.96,18.1c8.9-0.35,17.22-7.78,17.29-18.05
			c0.06-9.8-8.13-18.55-18.93-18.14C33.56,26.1,25.21,33.56,25.18,43.84z M56.87,28.28c4.53,4.25,6.97,9.41,6.96,15.62
			c-0.01,6.17-2.48,11.31-7.07,15.53c0.19,0.01,0.24,0.03,0.28,0.02c0.15-0.05,0.3-0.1,0.45-0.16c7.37-2.82,13.54-7.34,18.75-13.21
			c1.28-1.44,1.25-3.04-0.01-4.47c-4.52-5.07-9.77-9.18-15.97-12.02C59.17,29.08,58.06,28.6,56.87,28.28z M29.68,28.22
			c-0.23,0.08-0.47,0.16-0.7,0.24c-1.87,0.71-3.68,1.55-5.44,2.51c-5.02,2.74-9.35,6.33-13.15,10.58c-1.28,1.44-1.31,3.09-0.08,4.48
			c5.2,5.85,11.33,10.38,18.68,13.19c0.23,0.09,0.46,0.27,0.82,0.16c-4.59-4.2-7.04-9.34-7.05-15.51
			C22.76,37.68,25.21,32.52,29.68,28.22z"/>
		<path class="st3" d="M44.51,9.68c0,1.52,0,3.03,0,4.55c0,0.92-0.44,1.44-1.2,1.44c-0.76,0-1.21-0.52-1.21-1.43
			c0-3.05,0-6.11,0-9.16c0-0.9,0.46-1.42,1.23-1.4c0.74,0.01,1.18,0.52,1.18,1.39C44.52,6.6,44.51,8.14,44.51,9.68z"/>
		<path class="st3" d="M44.51,78.09c0,1.52,0,3.03,0,4.55c0,0.87-0.44,1.37-1.18,1.39c-0.77,0.01-1.23-0.5-1.23-1.4
			c0-3.05,0-6.11,0-9.16c0-0.91,0.46-1.43,1.22-1.43c0.76,0,1.2,0.53,1.2,1.45C44.51,75.02,44.51,76.56,44.51,78.09z"/>
		<path class="st3" d="M73,12.85c0.01,0.23-0.16,0.54-0.44,0.81c-2.2,2.19-4.39,4.39-6.59,6.58c-0.56,0.55-1.29,0.59-1.79,0.12
			c-0.51-0.48-0.53-1.22,0.03-1.78c2.22-2.24,4.45-4.46,6.68-6.69c0.4-0.4,0.89-0.49,1.4-0.29C72.77,11.79,72.99,12.18,73,12.85z"/>
		<path class="st3" d="M22.8,19.53c-0.05,0.49-0.26,0.89-0.74,1.07c-0.48,0.18-0.95,0.12-1.34-0.26c-0.75-0.75-1.5-1.49-2.25-2.24
			c-1.45-1.45-2.89-2.89-4.33-4.35c-0.63-0.64-0.7-1.38-0.21-1.89c0.49-0.51,1.27-0.46,1.89,0.16c2.19,2.17,4.36,4.36,6.54,6.53
			C22.63,18.82,22.78,19.14,22.8,19.53z"/>
		<path class="st3" d="M22.8,68.23c-0.03,0.36-0.17,0.66-0.43,0.92c-2.21,2.21-4.42,4.43-6.64,6.63c-0.55,0.54-1.31,0.55-1.79,0.07
			c-0.48-0.48-0.46-1.24,0.08-1.79c2.21-2.22,4.42-4.43,6.63-6.64c0.43-0.43,0.92-0.52,1.45-0.3C22.58,67.31,22.77,67.73,22.8,68.23
			z"/>
		<path class="st3" d="M73.01,74.99c-0.04,0.59-0.29,0.94-0.73,1.11c-0.49,0.19-0.95,0.11-1.34-0.27c-0.93-0.92-1.86-1.85-2.79-2.77
			c-1.3-1.3-2.6-2.6-3.9-3.91c-0.46-0.46-0.59-0.99-0.26-1.57c0.29-0.5,0.76-0.63,1.31-0.54c0.24,0.04,0.43,0.16,0.6,0.32
			c2.26,2.26,4.52,4.53,6.78,6.79C72.92,74.42,73.03,74.74,73.01,74.99z"/>
		<path class="st3" d="M43.28,54.09C37.62,54.07,33,49.44,33.06,43.85c0.06-5.77,4.61-10.27,10.36-10.23
			c5.57,0.03,10.12,4.62,10.11,10.2C53.54,49.53,48.96,54.11,43.28,54.09z M43.31,51.67c4.3,0,7.81-3.51,7.82-7.82
			c0-4.29-3.53-7.82-7.82-7.82c-4.29,0-7.82,3.53-7.82,7.82C35.48,48.14,39.01,51.67,43.31,51.67z"/>
	</g>
</g>
<g id="simule_um_financiamento">
</g>
<g id="locação">
</g>
<g id="imóvel">
</g>
<g id="venda_00000113349875049179142070000008859431808294898344_">
</g>
<g id="header">
</g>
<g id="footer">
</g>
<g id="Layer_3">
</g>
</svg>
