<?xml version="1.0" encoding="utf-8"?>
<!-- Generator: Adobe Illustrator 24.1.2, SVG Export Plug-In . SVG Version: 6.00 Build 0)  -->
<svg version="1.1" id="Camada_1" xmlns="http://www.w3.org/2000/svg" xmlns:xlink="http://www.w3.org/1999/xlink" x="0px" y="0px"
	 viewBox="0 0 390.74 231.38" style="enable-background:new 0 0 390.74 231.38;" xml:space="preserve">
<style type="text/css">
	.st0{clip-path:url(#SVGID_2_);fill:#FA2F93;}
	.st1{clip-path:url(#SVGID_2_);fill:#6C6A69;}
	.st2{clip-path:url(#SVGID_2_);}
	.st3{fill:#474747;}
</style>
<g>
	<defs>
		<rect id="SVGID_1_" width="390.74" height="231.38"/>
	</defs>
	<clipPath id="SVGID_2_">
		<use xlink:href="#SVGID_1_"  style="overflow:visible;"/>
	</clipPath>
	<path class="st0" d="M157.78,100.43l43.49-97.82c0.71-1.59,2.28-2.61,4.01-2.61h4.26c3.18,0,5.3,3.27,4.01,6.18l-55.78,125.46
		c-0.54,1.2-2.24,1.2-2.78,0l-28.17-63.35c-0.54-1.2-2.24-1.2-2.78,0l-28.17,63.35c-0.53,1.2-2.24,1.2-2.78,0L37.32,6.18
		C36.03,3.27,38.16,0,41.34,0h4.26c1.74,0,3.31,1.02,4.01,2.61l43.49,97.82c0.53,1.2,2.24,1.2,2.78,0l22.35-50.25
		c0.18-0.39,0.18-0.84,0-1.24L99.22,6.18C97.93,3.28,100.05,0,103.23,0h4.26c1.74,0,3.31,1.02,4.01,2.61l12.55,28.22
		c0.53,1.2,2.24,1.2,2.78,0l12.55-28.22c0.71-1.59,2.28-2.61,4.01-2.61h4.26c3.18,0,5.3,3.27,4.01,6.18l-19.01,42.76
		c-0.18,0.39-0.18,0.84,0,1.24L155,100.43C155.54,101.63,157.25,101.63,157.78,100.43"/>
	<path class="st0" d="M228.6,4.89v121.36c0,2.15-1.75,3.9-3.9,3.9h-3.59c-2.15,0-3.9-1.74-3.9-3.9"/>
	<path class="st0" d="M325.28,100.01V17.33c0-2.15,1.74-3.9,3.9-3.9h3.59c2.15,0,3.9,1.74,3.9,3.9v113.76
		c0,1.27-1.59,1.85-2.41,0.88l-74.72-88.24c-0.82-0.97-2.41-0.39-2.41,0.88v82.59c0,2.15-1.74,3.9-3.9,3.9h-3.59
		c-2.15,0-3.9-1.75-3.9-3.9V13.53c0-1.27,1.59-1.85,2.41-0.88l74.72,88.24C323.69,101.86,325.28,101.28,325.28,100.01"/>
	<polygon class="st1" points="183.74,175.42 177.45,175.42 177.45,172.51 175.88,172.51 175.88,179.92 177.45,179.92 177.45,176.99 
		183.74,176.99 183.74,179.92 185.31,179.92 185.31,172.51 183.74,172.51 	"/>
	<path class="st1" d="M239.68,175.42l-4.95,0c-0.37,0-0.67-0.3-0.67-0.67c0-0.37,0.3-0.67,0.67-0.67l7.19,0v-1.58l-7.19,0.01
		c-1.24,0-2.24,1-2.24,2.24c0,1.24,1,2.24,2.24,2.24l4.95,0c0.37,0,0.68,0.3,0.68,0.68c0,0.37-0.3,0.68-0.68,0.68h-7.19l0,1.57
		l7.19,0c1.24,0,2.25-1.01,2.25-2.25C241.93,176.43,240.92,175.42,239.68,175.42"/>
	<rect x="251.37" y="172.51" class="st1" width="1.57" height="7.41"/>
	<path class="st1" d="M221.49,172.51l0,4.77c0,0.59-0.48,1.06-1.06,1.06l-4.16,0c-0.59,0-1.06-0.48-1.06-1.06l0-4.7l0-0.07h-1.57
		l0.01,4.93c0,0.34,0.07,0.66,0.19,0.95c0.13,0.29,0.31,0.56,0.54,0.78c0.11,0.11,0.23,0.21,0.36,0.3c0.13,0.09,0.27,0.17,0.42,0.23
		c0.15,0.06,0.3,0.11,0.46,0.15c0.16,0.04,0.32,0.05,0.49,0.05h4.49c0.17,0,0.34-0.02,0.49-0.05c0.16-0.04,0.31-0.09,0.46-0.15
		c0.15-0.07,0.29-0.14,0.42-0.23c0.13-0.09,0.25-0.19,0.36-0.3c0.23-0.23,0.41-0.49,0.54-0.78c0.13-0.29,0.19-0.61,0.19-0.95v-4.93
		L221.49,172.51z"/>
	<path class="st1" d="M203.99,174.02c-0.13-0.29-0.31-0.56-0.54-0.78c-0.11-0.11-0.23-0.21-0.36-0.3c-0.13-0.09-0.27-0.17-0.42-0.23
		c-0.15-0.06-0.3-0.12-0.46-0.15c-0.16-0.04-0.32-0.05-0.49-0.05h-4.49c-0.17,0-0.33,0.02-0.49,0.05c-0.16,0.04-0.31,0.09-0.46,0.15
		c-0.15,0.06-0.29,0.14-0.42,0.23c-0.13,0.09-0.25,0.19-0.36,0.3c-0.23,0.23-0.41,0.49-0.54,0.78c-0.13,0.29-0.19,0.61-0.19,0.95
		l0,0.69h0l0,0.72l0,0.96h0.01l0,0.09c0,0.34,0.07,0.66,0.19,0.95c0.13,0.29,0.31,0.56,0.54,0.78c0.11,0.11,0.23,0.21,0.36,0.3
		s0.27,0.17,0.42,0.23c0.15,0.07,0.3,0.12,0.46,0.15c0.16,0.04,0.32,0.05,0.49,0.05h4.49c0.17,0,0.34-0.02,0.49-0.05
		c0.16-0.04,0.31-0.09,0.46-0.15c0.14-0.06,0.29-0.14,0.42-0.23c0.13-0.09,0.25-0.19,0.36-0.3c0.23-0.23,0.42-0.49,0.54-0.78
		c0.13-0.29,0.19-0.61,0.19-0.95v-0.09v-1.68v-0.69C204.19,174.64,204.12,174.32,203.99,174.02 M201.55,178.35l-4.16,0
		c-0.58,0-1.05-0.47-1.06-1.04l0-0.8l0-0.77l0-0.03v-0.57c0-0.59,0.48-1.06,1.06-1.06l4.16,0c0.59,0,1.06,0.48,1.06,1.06l0,1.24
		l0,0.91C202.61,177.87,202.14,178.35,201.55,178.35"/>
	<path class="st1" d="M155.98,172.53c1.42,0,2.25,0.8,2.25,1.97c0,0.79-0.46,1.39-1.13,1.63c0.8,0.2,1.37,0.95,1.37,1.81
		c0,1.17-0.92,1.99-2.28,1.99h-2.34v-7.41H155.98z M156.14,175.9c0.82,0,1.41-0.56,1.41-1.36c0-0.88-0.6-1.43-1.64-1.43h-1.41v2.79
		H156.14z M156.12,179.35c1.01,0,1.67-0.56,1.67-1.45c0-0.84-0.62-1.42-1.54-1.42h-1.75v2.87H156.12z"/>
	<polygon class="st1" points="160.61,172.53 161.41,172.53 163.56,176.15 165.7,172.53 166.45,172.53 163.86,176.77 163.86,179.93 
		163.22,179.93 163.22,176.77 	"/>
	<path class="st1" d="M139.54,158.88v6.26h-1.32v-14.8h4.86c2.73,0,4.53,1.84,4.53,4.28c0,2.44-1.79,4.26-4.53,4.26H139.54z
		 M142.88,157.69c2.11,0,3.4-1.23,3.4-3.07c0-1.84-1.29-3.09-3.4-3.09h-3.34v6.16H142.88z"/>
	<path class="st1" d="M162.52,150.07c3.61,0,7.24,2.74,7.24,7.68c0,4.95-3.63,7.66-7.24,7.66c-3.63,0-7.22-2.71-7.22-7.66
		C155.3,152.8,158.89,150.07,162.52,150.07 M162.52,164.2c3.01,0,5.91-2.23,5.91-6.45c0-4.24-2.9-6.47-5.91-6.47
		c-3.03,0-5.89,2.23-5.89,6.47C156.64,161.97,159.5,164.2,162.52,164.2"/>
	<polygon class="st1" points="194.82,150.34 196.17,150.34 191.91,165.14 190.47,165.14 186.34,152.07 182.21,165.14 180.83,165.14 
		176.51,150.34 177.89,150.34 181.56,163.2 185.63,150.34 187.07,150.34 191.18,163.28 	"/>
	<polygon class="st1" points="204.46,165.14 204.46,150.34 213.18,150.34 213.18,151.55 205.77,151.55 205.77,157.12 212.54,157.12 
		212.54,158.33 205.77,158.33 205.77,163.93 213.18,163.93 213.18,165.14 	"/>
	<path class="st1" d="M226.65,158.75h-3.09v6.39h-1.34v-14.8h5.18c2.65,0,4.4,1.82,4.4,4.22c0,2.15-1.46,3.82-3.72,4.09l3.67,6.49
		h-1.54L226.65,158.75z M227.17,157.54c1.98,0,3.28-1.17,3.28-2.98c0-1.84-1.29-3.03-3.28-3.03h-3.61v6.01H227.17z"/>
	<polygon class="st1" points="240.74,165.14 240.74,150.34 249.46,150.34 249.46,151.55 242.05,151.55 242.05,157.12 248.82,157.12 
		248.82,158.33 242.05,158.33 242.05,163.93 249.46,163.93 249.46,165.14 	"/>
	<path class="st1" d="M258.5,165.14v-14.8h4.61c3.76,0,7.04,2.59,7.04,7.43c0,4.84-3.32,7.37-7.08,7.37H258.5z M263.03,163.97
		c3.07,0,5.76-2.07,5.76-6.2c0-4.15-2.63-6.26-5.72-6.26h-3.26v12.46H263.03z"/>
	<g class="st2">
		<path class="st3" d="M1.96,220.19v-10.54h3.18v10.31c0,2.14,1.17,3.27,3.08,3.27c1.93,0,3.11-1.13,3.11-3.27v-10.31h3.18v10.54
			c0,4-2.79,6.15-6.28,6.15C4.74,226.33,1.96,224.19,1.96,220.19z"/>
		<path class="st3" d="M33.95,225.97v-11.44l-4.69,11.44h-2.65l-4.7-11.35v11.35h-3.04v-16.32h4.19l4.9,11.78l4.79-11.78h4.33v16.32
			H33.95z"/>
		<path class="st3" d="M47.6,225.97v-16.32h3.22v16.32H47.6z"/>
		<path class="st3" d="M65.94,225.97l-7.41-11.58v11.58h-3.18v-16.32h3.96l6.79,10.79v-10.79h3.18v16.32H65.94z"/>
		<path class="st3" d="M84.17,209.65h3.36l-6.05,16.32h-3.27l-6.03-16.32h3.48l4.26,12.13L84.17,209.65z"/>
		<path class="st3" d="M90.43,225.97v-16.32h10.22v2.99h-7.04v3.73h6.38v2.83h-6.38v3.77h7.04v2.99H90.43z"/>
		<path class="st3" d="M112.73,214.41c-0.18-0.92-0.85-2.3-2.97-2.3c-1.54,0-2.55,0.99-2.55,2.07c0,0.9,0.58,1.59,1.77,1.84
			l2.28,0.44c2.95,0.55,4.56,2.53,4.56,4.81c0,2.51-2.12,5.04-5.89,5.04c-4.33,0-6.24-2.78-6.49-5.11l2.95-0.78
			c0.12,1.59,1.27,3.06,3.57,3.06c1.73,0,2.65-0.83,2.65-2c0-0.94-0.69-1.68-1.98-1.93l-2.28-0.46c-2.6-0.53-4.28-2.19-4.28-4.67
			c0-2.88,2.6-5.11,5.68-5.11c3.94,0,5.48,2.39,5.85,4.23L112.73,214.41z"/>
		<path class="st3" d="M126.06,212.66v13.3h-3.2v-13.3h-5.16v-3.01h13.51v3.01H126.06z"/>
		<path class="st3" d="M134.25,225.97v-16.32h3.22v16.32H134.25z"/>
		<path class="st3" d="M157.06,225.97v-11.44l-4.69,11.44h-2.65l-4.7-11.35v11.35h-3.04v-16.32h4.19l4.9,11.78l4.79-11.78h4.33
			v16.32H157.06z"/>
		<path class="st3" d="M164.7,225.97v-16.32h10.22v2.99h-7.04v3.73h6.37v2.83h-6.37v3.77h7.04v2.99H164.7z"/>
		<path class="st3" d="M189.47,225.97l-7.41-11.58v11.58h-3.18v-16.32h3.96l6.79,10.79v-10.79h3.18v16.32H189.47z"/>
		<path class="st3" d="M204.2,212.66v13.3H201v-13.3h-5.16v-3.01h13.51v3.01H204.2z"/>
		<path class="st3" d="M219.2,209.3c4.44,0,8.4,3.25,8.4,8.52c0,5.25-3.96,8.49-8.4,8.49c-4.42,0-8.38-3.24-8.38-8.49
			C210.83,212.55,214.78,209.3,219.2,209.3z M219.2,223.23c2.53,0,5.11-1.75,5.11-5.43c0-3.68-2.58-5.43-5.11-5.43
			c-2.51,0-5.09,1.75-5.09,5.43C214.12,221.48,216.69,223.23,219.2,223.23z"/>
		<path class="st3" d="M237.2,225.97v-16.32h3.22v16.32H237.2z"/>
		<path class="st3" d="M255.52,225.97l-7.41-11.58v11.58h-3.18v-16.32h3.96l6.79,10.79v-10.79h3.18v16.32H255.52z"/>
		<path class="st3" d="M270.25,212.66v13.3h-3.2v-13.3h-5.16v-3.01h13.51v3.01H270.25z"/>
		<path class="st3" d="M278.45,225.97v-16.32h10.22v2.99h-7.04v3.73H288v2.83h-6.38v3.77h7.04v2.99H278.45z"/>
		<path class="st3" d="M292.62,225.97v-16.32h3.18v13.28h7.27v3.04H292.62z"/>
		<path class="st3" d="M306.32,225.97v-16.32h3.22v16.32H306.32z"/>
		<path class="st3" d="M326.25,225.97l-0.21-1.86c-0.74,1.13-2.35,2.21-4.81,2.21c-4.4,0-8.15-3.22-8.15-8.49
			c0-5.27,3.94-8.52,8.35-8.52c4.3,0,6.65,2.51,7.46,5.02l-3.04,1.08c-0.41-1.45-1.77-3.13-4.42-3.13c-2.46,0-5.13,1.68-5.13,5.55
			c0,3.68,2.42,5.59,5.16,5.59c3.04,0,4.19-2,4.37-3.18h-5.15v-2.76h8.15v8.49H326.25z"/>
		<path class="st3" d="M332.81,225.97v-16.32h10.22v2.99h-7.04v3.73h6.38v2.83h-6.38v3.77h7.04v2.99H332.81z"/>
		<path class="st3" d="M357.6,225.97l-7.41-11.58v11.58h-3.18v-16.32h3.96l6.79,10.79v-10.79h3.18v16.32H357.6z"/>
		<path class="st3" d="M372.33,212.66v13.3h-3.2v-13.3h-5.16v-3.01h13.51v3.01H372.33z"/>
		<path class="st3" d="M380.52,225.97v-16.32h10.22v2.99h-7.04v3.73h6.38v2.83h-6.38v3.77h7.04v2.99H380.52z"/>
	</g>
</g>
</svg>
